G04 #@! TF.FileFunction,Legend,Top*
%FSLAX46Y46*%
G04 Gerber Fmt 4.6, Leading zero omitted, Abs format (unit mm)*
G04 Created by KiCad (PCBNEW 4.0.0-rc1-stable) date 11/22/2015 9:16:10 AM*
%MOMM*%
G01*
G04 APERTURE LIST*
%ADD10C,0.150000*%
%ADD11C,0.120000*%
G04 APERTURE END LIST*
D10*
D11*
X142938500Y-81280000D02*
X141541500Y-81280000D01*
X142938500Y-78740000D02*
X141541500Y-78740000D01*
X142938500Y-78740000D02*
X142938500Y-81280000D01*
X141541500Y-81280000D02*
X141541500Y-78740000D01*
X123952000Y-96710500D02*
X123952000Y-95313500D01*
X126492000Y-96710500D02*
X126492000Y-95313500D01*
X126492000Y-96710500D02*
X123952000Y-96710500D01*
X123952000Y-95313500D02*
X126492000Y-95313500D01*
X126492000Y-88709500D02*
X126492000Y-90106500D01*
X123952000Y-88709500D02*
X123952000Y-90106500D01*
X123952000Y-88709500D02*
X126492000Y-88709500D01*
X126492000Y-90106500D02*
X123952000Y-90106500D01*
X129032000Y-95694500D02*
X129032000Y-96329500D01*
X128524000Y-96329500D02*
X128968500Y-96012000D01*
X128968500Y-96012000D02*
X128524000Y-95694500D01*
X128524000Y-95694500D02*
X128524000Y-96329500D01*
X130048000Y-95313500D02*
X130048000Y-96710500D01*
X127508000Y-95313500D02*
X127508000Y-96710500D01*
X127508000Y-96710500D02*
X130048000Y-96710500D01*
X130048000Y-95313500D02*
X127508000Y-95313500D01*
D10*
X136834000Y-95404000D02*
X138034000Y-95404000D01*
X138034000Y-93904000D02*
X138034000Y-95404000D01*
X130634000Y-93904000D02*
X130634000Y-95404000D01*
X131834000Y-95404000D02*
X130634000Y-95404000D01*
D11*
X127762000Y-79692500D02*
X127762000Y-78295500D01*
X130302000Y-79692500D02*
X130302000Y-78295500D01*
X130302000Y-79692500D02*
X127762000Y-79692500D01*
X127762000Y-78295500D02*
X130302000Y-78295500D01*
X124460000Y-79692500D02*
X124460000Y-78295500D01*
X127000000Y-79692500D02*
X127000000Y-78295500D01*
X127000000Y-79692500D02*
X124460000Y-79692500D01*
X124460000Y-78295500D02*
X127000000Y-78295500D01*
X143510000Y-88074500D02*
X143510000Y-86677500D01*
X146050000Y-88074500D02*
X146050000Y-86677500D01*
X146050000Y-88074500D02*
X143510000Y-88074500D01*
X143510000Y-86677500D02*
X146050000Y-86677500D01*
X139700000Y-88582500D02*
X139700000Y-87185500D01*
X142240000Y-88582500D02*
X142240000Y-87185500D01*
X142240000Y-88582500D02*
X139700000Y-88582500D01*
X139700000Y-87185500D02*
X142240000Y-87185500D01*
X145478500Y-81280000D02*
X144081500Y-81280000D01*
X145478500Y-78740000D02*
X144081500Y-78740000D01*
X145478500Y-78740000D02*
X145478500Y-81280000D01*
X144081500Y-81280000D02*
X144081500Y-78740000D01*
X136398000Y-88582500D02*
X136398000Y-87185500D01*
X138938000Y-88582500D02*
X138938000Y-87185500D01*
X138938000Y-88582500D02*
X136398000Y-88582500D01*
X136398000Y-87185500D02*
X138938000Y-87185500D01*
X136398000Y-90614500D02*
X136398000Y-89217500D01*
X138938000Y-90614500D02*
X138938000Y-89217500D01*
X138938000Y-90614500D02*
X136398000Y-90614500D01*
X136398000Y-89217500D02*
X138938000Y-89217500D01*
X138747500Y-93726000D02*
X140144500Y-93726000D01*
X138747500Y-96266000D02*
X140144500Y-96266000D01*
X138747500Y-96266000D02*
X138747500Y-93726000D01*
X140144500Y-93726000D02*
X140144500Y-96266000D01*
X127571500Y-92202000D02*
X128968500Y-92202000D01*
X127571500Y-94742000D02*
X128968500Y-94742000D01*
X127571500Y-94742000D02*
X127571500Y-92202000D01*
X128968500Y-92202000D02*
X128968500Y-94742000D01*
X127508000Y-91630500D02*
X127508000Y-90233500D01*
X130048000Y-91630500D02*
X130048000Y-90233500D01*
X130048000Y-91630500D02*
X127508000Y-91630500D01*
X127508000Y-90233500D02*
X130048000Y-90233500D01*
X136984000Y-79182000D02*
X136984000Y-78582000D01*
X136684000Y-78882000D02*
X137284000Y-78882000D01*
X136484000Y-84982000D02*
X137384000Y-84982000D01*
X140884000Y-84982000D02*
X139984000Y-84982000D01*
X140884000Y-80582000D02*
X140884000Y-84982000D01*
X136484000Y-80582000D02*
X136484000Y-84982000D01*
X136484000Y-80582000D02*
X137384000Y-79682000D01*
X139984000Y-79682000D02*
X140884000Y-80582000D01*
X133882000Y-78994000D02*
X133282000Y-79394000D01*
X133282000Y-79394000D02*
X133282000Y-78594000D01*
X133282000Y-78594000D02*
X133882000Y-78994000D01*
X133882000Y-79394000D02*
X133882000Y-78594000D01*
X135382000Y-78494000D02*
X135382000Y-78294000D01*
X135382000Y-78294000D02*
X131682000Y-78294000D01*
X131682000Y-78294000D02*
X131682000Y-78494000D01*
X135382000Y-79694000D02*
X135382000Y-79494000D01*
X135382000Y-79694000D02*
X131682000Y-79694000D01*
X131682000Y-79694000D02*
X131682000Y-79494000D01*
D10*
X135326000Y-84304000D02*
X135326000Y-86004000D01*
X128326000Y-84304000D02*
X128326000Y-86004000D01*
X126962803Y-90297000D02*
G75*
G03X126962803Y-90297000I-89803J0D01*
G01*
X126962803Y-81661000D02*
G75*
G03X126962803Y-81661000I-89803J0D01*
G01*
X143064803Y-86033000D02*
G75*
G03X143064803Y-86033000I-89803J0D01*
G01*
D11*
X122658000Y-78418000D02*
X122658000Y-84618000D01*
X122658000Y-84618000D02*
X116658000Y-84618000D01*
X122658000Y-78418000D02*
X116658000Y-78418000D01*
X147344000Y-84650000D02*
X147344000Y-78450000D01*
X147344000Y-78450000D02*
X153344000Y-78450000D01*
X147344000Y-84650000D02*
X153344000Y-84650000D01*
X142115000Y-82309857D02*
X142079286Y-82345571D01*
X141972143Y-82381286D01*
X141900714Y-82381286D01*
X141793571Y-82345571D01*
X141722143Y-82274143D01*
X141686428Y-82202714D01*
X141650714Y-82059857D01*
X141650714Y-81952714D01*
X141686428Y-81809857D01*
X141722143Y-81738429D01*
X141793571Y-81667000D01*
X141900714Y-81631286D01*
X141972143Y-81631286D01*
X142079286Y-81667000D01*
X142115000Y-81702714D01*
X142829286Y-82381286D02*
X142400714Y-82381286D01*
X142615000Y-82381286D02*
X142615000Y-81631286D01*
X142543571Y-81738429D01*
X142472143Y-81809857D01*
X142400714Y-81845571D01*
X122811000Y-96279857D02*
X122775286Y-96315571D01*
X122668143Y-96351286D01*
X122596714Y-96351286D01*
X122489571Y-96315571D01*
X122418143Y-96244143D01*
X122382428Y-96172714D01*
X122346714Y-96029857D01*
X122346714Y-95922714D01*
X122382428Y-95779857D01*
X122418143Y-95708429D01*
X122489571Y-95637000D01*
X122596714Y-95601286D01*
X122668143Y-95601286D01*
X122775286Y-95637000D01*
X122811000Y-95672714D01*
X123096714Y-95672714D02*
X123132428Y-95637000D01*
X123203857Y-95601286D01*
X123382428Y-95601286D01*
X123453857Y-95637000D01*
X123489571Y-95672714D01*
X123525286Y-95744143D01*
X123525286Y-95815571D01*
X123489571Y-95922714D01*
X123061000Y-96351286D01*
X123525286Y-96351286D01*
X125097000Y-88151857D02*
X125061286Y-88187571D01*
X124954143Y-88223286D01*
X124882714Y-88223286D01*
X124775571Y-88187571D01*
X124704143Y-88116143D01*
X124668428Y-88044714D01*
X124632714Y-87901857D01*
X124632714Y-87794714D01*
X124668428Y-87651857D01*
X124704143Y-87580429D01*
X124775571Y-87509000D01*
X124882714Y-87473286D01*
X124954143Y-87473286D01*
X125061286Y-87509000D01*
X125097000Y-87544714D01*
X125347000Y-87473286D02*
X125811286Y-87473286D01*
X125561286Y-87759000D01*
X125668428Y-87759000D01*
X125739857Y-87794714D01*
X125775571Y-87830429D01*
X125811286Y-87901857D01*
X125811286Y-88080429D01*
X125775571Y-88151857D01*
X125739857Y-88187571D01*
X125668428Y-88223286D01*
X125454143Y-88223286D01*
X125382714Y-88187571D01*
X125347000Y-88151857D01*
X130510428Y-96605286D02*
X130510428Y-95855286D01*
X130689000Y-95855286D01*
X130796143Y-95891000D01*
X130867571Y-95962429D01*
X130903286Y-96033857D01*
X130939000Y-96176714D01*
X130939000Y-96283857D01*
X130903286Y-96426714D01*
X130867571Y-96498143D01*
X130796143Y-96569571D01*
X130689000Y-96605286D01*
X130510428Y-96605286D01*
X131224714Y-95926714D02*
X131260428Y-95891000D01*
X131331857Y-95855286D01*
X131510428Y-95855286D01*
X131581857Y-95891000D01*
X131617571Y-95926714D01*
X131653286Y-95998143D01*
X131653286Y-96069571D01*
X131617571Y-96176714D01*
X131189000Y-96605286D01*
X131653286Y-96605286D01*
X137418000Y-95855286D02*
X137418000Y-96391000D01*
X137382286Y-96498143D01*
X137310857Y-96569571D01*
X137203714Y-96605286D01*
X137132286Y-96605286D01*
X138096572Y-96105286D02*
X138096572Y-96605286D01*
X137918001Y-95819571D02*
X137739429Y-96355286D01*
X138203715Y-96355286D01*
X128907000Y-80857286D02*
X128657000Y-80500143D01*
X128478428Y-80857286D02*
X128478428Y-80107286D01*
X128764143Y-80107286D01*
X128835571Y-80143000D01*
X128871286Y-80178714D01*
X128907000Y-80250143D01*
X128907000Y-80357286D01*
X128871286Y-80428714D01*
X128835571Y-80464429D01*
X128764143Y-80500143D01*
X128478428Y-80500143D01*
X129621286Y-80857286D02*
X129192714Y-80857286D01*
X129407000Y-80857286D02*
X129407000Y-80107286D01*
X129335571Y-80214429D01*
X129264143Y-80285857D01*
X129192714Y-80321571D01*
X125605000Y-80857286D02*
X125355000Y-80500143D01*
X125176428Y-80857286D02*
X125176428Y-80107286D01*
X125462143Y-80107286D01*
X125533571Y-80143000D01*
X125569286Y-80178714D01*
X125605000Y-80250143D01*
X125605000Y-80357286D01*
X125569286Y-80428714D01*
X125533571Y-80464429D01*
X125462143Y-80500143D01*
X125176428Y-80500143D01*
X125890714Y-80178714D02*
X125926428Y-80143000D01*
X125997857Y-80107286D01*
X126176428Y-80107286D01*
X126247857Y-80143000D01*
X126283571Y-80178714D01*
X126319286Y-80250143D01*
X126319286Y-80321571D01*
X126283571Y-80428714D01*
X125855000Y-80857286D01*
X126319286Y-80857286D01*
X146306000Y-89112286D02*
X146056000Y-88755143D01*
X145877428Y-89112286D02*
X145877428Y-88362286D01*
X146163143Y-88362286D01*
X146234571Y-88398000D01*
X146270286Y-88433714D01*
X146306000Y-88505143D01*
X146306000Y-88612286D01*
X146270286Y-88683714D01*
X146234571Y-88719429D01*
X146163143Y-88755143D01*
X145877428Y-88755143D01*
X146556000Y-88362286D02*
X147020286Y-88362286D01*
X146770286Y-88648000D01*
X146877428Y-88648000D01*
X146948857Y-88683714D01*
X146984571Y-88719429D01*
X147020286Y-88790857D01*
X147020286Y-88969429D01*
X146984571Y-89040857D01*
X146948857Y-89076571D01*
X146877428Y-89112286D01*
X146663143Y-89112286D01*
X146591714Y-89076571D01*
X146556000Y-89040857D01*
X141099000Y-86445286D02*
X140849000Y-86088143D01*
X140670428Y-86445286D02*
X140670428Y-85695286D01*
X140956143Y-85695286D01*
X141027571Y-85731000D01*
X141063286Y-85766714D01*
X141099000Y-85838143D01*
X141099000Y-85945286D01*
X141063286Y-86016714D01*
X141027571Y-86052429D01*
X140956143Y-86088143D01*
X140670428Y-86088143D01*
X141741857Y-85945286D02*
X141741857Y-86445286D01*
X141563286Y-85659571D02*
X141384714Y-86195286D01*
X141849000Y-86195286D01*
X146179000Y-78825286D02*
X145929000Y-78468143D01*
X145750428Y-78825286D02*
X145750428Y-78075286D01*
X146036143Y-78075286D01*
X146107571Y-78111000D01*
X146143286Y-78146714D01*
X146179000Y-78218143D01*
X146179000Y-78325286D01*
X146143286Y-78396714D01*
X146107571Y-78432429D01*
X146036143Y-78468143D01*
X145750428Y-78468143D01*
X146857571Y-78075286D02*
X146500428Y-78075286D01*
X146464714Y-78432429D01*
X146500428Y-78396714D01*
X146571857Y-78361000D01*
X146750428Y-78361000D01*
X146821857Y-78396714D01*
X146857571Y-78432429D01*
X146893286Y-78503857D01*
X146893286Y-78682429D01*
X146857571Y-78753857D01*
X146821857Y-78789571D01*
X146750428Y-78825286D01*
X146571857Y-78825286D01*
X146500428Y-78789571D01*
X146464714Y-78753857D01*
X136527000Y-86699286D02*
X136277000Y-86342143D01*
X136098428Y-86699286D02*
X136098428Y-85949286D01*
X136384143Y-85949286D01*
X136455571Y-85985000D01*
X136491286Y-86020714D01*
X136527000Y-86092143D01*
X136527000Y-86199286D01*
X136491286Y-86270714D01*
X136455571Y-86306429D01*
X136384143Y-86342143D01*
X136098428Y-86342143D01*
X137169857Y-85949286D02*
X137027000Y-85949286D01*
X136955571Y-85985000D01*
X136919857Y-86020714D01*
X136848428Y-86127857D01*
X136812714Y-86270714D01*
X136812714Y-86556429D01*
X136848428Y-86627857D01*
X136884143Y-86663571D01*
X136955571Y-86699286D01*
X137098428Y-86699286D01*
X137169857Y-86663571D01*
X137205571Y-86627857D01*
X137241286Y-86556429D01*
X137241286Y-86377857D01*
X137205571Y-86306429D01*
X137169857Y-86270714D01*
X137098428Y-86235000D01*
X136955571Y-86235000D01*
X136884143Y-86270714D01*
X136848428Y-86306429D01*
X136812714Y-86377857D01*
X135257000Y-91017286D02*
X135007000Y-90660143D01*
X134828428Y-91017286D02*
X134828428Y-90267286D01*
X135114143Y-90267286D01*
X135185571Y-90303000D01*
X135221286Y-90338714D01*
X135257000Y-90410143D01*
X135257000Y-90517286D01*
X135221286Y-90588714D01*
X135185571Y-90624429D01*
X135114143Y-90660143D01*
X134828428Y-90660143D01*
X135507000Y-90267286D02*
X136007000Y-90267286D01*
X135685571Y-91017286D01*
X139321000Y-93303286D02*
X139071000Y-92946143D01*
X138892428Y-93303286D02*
X138892428Y-92553286D01*
X139178143Y-92553286D01*
X139249571Y-92589000D01*
X139285286Y-92624714D01*
X139321000Y-92696143D01*
X139321000Y-92803286D01*
X139285286Y-92874714D01*
X139249571Y-92910429D01*
X139178143Y-92946143D01*
X138892428Y-92946143D01*
X139749571Y-92874714D02*
X139678143Y-92839000D01*
X139642428Y-92803286D01*
X139606714Y-92731857D01*
X139606714Y-92696143D01*
X139642428Y-92624714D01*
X139678143Y-92589000D01*
X139749571Y-92553286D01*
X139892428Y-92553286D01*
X139963857Y-92589000D01*
X139999571Y-92624714D01*
X140035286Y-92696143D01*
X140035286Y-92731857D01*
X139999571Y-92803286D01*
X139963857Y-92839000D01*
X139892428Y-92874714D01*
X139749571Y-92874714D01*
X139678143Y-92910429D01*
X139642428Y-92946143D01*
X139606714Y-93017571D01*
X139606714Y-93160429D01*
X139642428Y-93231857D01*
X139678143Y-93267571D01*
X139749571Y-93303286D01*
X139892428Y-93303286D01*
X139963857Y-93267571D01*
X139999571Y-93231857D01*
X140035286Y-93160429D01*
X140035286Y-93017571D01*
X139999571Y-92946143D01*
X139963857Y-92910429D01*
X139892428Y-92874714D01*
X130133286Y-93597000D02*
X129776143Y-93847000D01*
X130133286Y-94025572D02*
X129383286Y-94025572D01*
X129383286Y-93739857D01*
X129419000Y-93668429D01*
X129454714Y-93632714D01*
X129526143Y-93597000D01*
X129633286Y-93597000D01*
X129704714Y-93632714D01*
X129740429Y-93668429D01*
X129776143Y-93739857D01*
X129776143Y-94025572D01*
X130133286Y-93239857D02*
X130133286Y-93097000D01*
X130097571Y-93025572D01*
X130061857Y-92989857D01*
X129954714Y-92918429D01*
X129811857Y-92882714D01*
X129526143Y-92882714D01*
X129454714Y-92918429D01*
X129419000Y-92954143D01*
X129383286Y-93025572D01*
X129383286Y-93168429D01*
X129419000Y-93239857D01*
X129454714Y-93275572D01*
X129526143Y-93311286D01*
X129704714Y-93311286D01*
X129776143Y-93275572D01*
X129811857Y-93239857D01*
X129847571Y-93168429D01*
X129847571Y-93025572D01*
X129811857Y-92954143D01*
X129776143Y-92918429D01*
X129704714Y-92882714D01*
X130835857Y-91017286D02*
X130585857Y-90660143D01*
X130407285Y-91017286D02*
X130407285Y-90267286D01*
X130693000Y-90267286D01*
X130764428Y-90303000D01*
X130800143Y-90338714D01*
X130835857Y-90410143D01*
X130835857Y-90517286D01*
X130800143Y-90588714D01*
X130764428Y-90624429D01*
X130693000Y-90660143D01*
X130407285Y-90660143D01*
X131550143Y-91017286D02*
X131121571Y-91017286D01*
X131335857Y-91017286D02*
X131335857Y-90267286D01*
X131264428Y-90374429D01*
X131193000Y-90445857D01*
X131121571Y-90481571D01*
X132014429Y-90267286D02*
X132085857Y-90267286D01*
X132157286Y-90303000D01*
X132193000Y-90338714D01*
X132228714Y-90410143D01*
X132264429Y-90553000D01*
X132264429Y-90731571D01*
X132228714Y-90874429D01*
X132193000Y-90945857D01*
X132157286Y-90981571D01*
X132085857Y-91017286D01*
X132014429Y-91017286D01*
X131943000Y-90981571D01*
X131907286Y-90945857D01*
X131871571Y-90874429D01*
X131835857Y-90731571D01*
X131835857Y-90553000D01*
X131871571Y-90410143D01*
X131907286Y-90338714D01*
X131943000Y-90303000D01*
X132014429Y-90267286D01*
X139636571Y-90775286D02*
X139636571Y-91382429D01*
X139672286Y-91453857D01*
X139708000Y-91489571D01*
X139779429Y-91525286D01*
X139922286Y-91525286D01*
X139993714Y-91489571D01*
X140029429Y-91453857D01*
X140065143Y-91382429D01*
X140065143Y-90775286D01*
X140386571Y-90846714D02*
X140422285Y-90811000D01*
X140493714Y-90775286D01*
X140672285Y-90775286D01*
X140743714Y-90811000D01*
X140779428Y-90846714D01*
X140815143Y-90918143D01*
X140815143Y-90989571D01*
X140779428Y-91096714D01*
X140350857Y-91525286D01*
X140815143Y-91525286D01*
X140337000Y-79261857D02*
X140301286Y-79297571D01*
X140194143Y-79333286D01*
X140122714Y-79333286D01*
X140015571Y-79297571D01*
X139944143Y-79226143D01*
X139908428Y-79154714D01*
X139872714Y-79011857D01*
X139872714Y-78904714D01*
X139908428Y-78761857D01*
X139944143Y-78690429D01*
X140015571Y-78619000D01*
X140122714Y-78583286D01*
X140194143Y-78583286D01*
X140301286Y-78619000D01*
X140337000Y-78654714D01*
X140979857Y-78833286D02*
X140979857Y-79333286D01*
X140801286Y-78547571D02*
X140622714Y-79083286D01*
X141087000Y-79083286D01*
X133812428Y-80603286D02*
X133812428Y-79853286D01*
X133991000Y-79853286D01*
X134098143Y-79889000D01*
X134169571Y-79960429D01*
X134205286Y-80031857D01*
X134241000Y-80174714D01*
X134241000Y-80281857D01*
X134205286Y-80424714D01*
X134169571Y-80496143D01*
X134098143Y-80567571D01*
X133991000Y-80603286D01*
X133812428Y-80603286D01*
X134955286Y-80603286D02*
X134526714Y-80603286D01*
X134741000Y-80603286D02*
X134741000Y-79853286D01*
X134669571Y-79960429D01*
X134598143Y-80031857D01*
X134526714Y-80067571D01*
X127383000Y-85429286D02*
X127025857Y-85429286D01*
X127025857Y-84679286D01*
X128025858Y-85429286D02*
X127597286Y-85429286D01*
X127811572Y-85429286D02*
X127811572Y-84679286D01*
X127740143Y-84786429D01*
X127668715Y-84857857D01*
X127597286Y-84893571D01*
X122364571Y-94077286D02*
X122364571Y-94684429D01*
X122400286Y-94755857D01*
X122436000Y-94791571D01*
X122507429Y-94827286D01*
X122650286Y-94827286D01*
X122721714Y-94791571D01*
X122757429Y-94755857D01*
X122793143Y-94684429D01*
X122793143Y-94077286D01*
X123078857Y-94077286D02*
X123543143Y-94077286D01*
X123293143Y-94363000D01*
X123400285Y-94363000D01*
X123471714Y-94398714D01*
X123507428Y-94434429D01*
X123543143Y-94505857D01*
X123543143Y-94684429D01*
X123507428Y-94755857D01*
X123471714Y-94791571D01*
X123400285Y-94827286D01*
X123186000Y-94827286D01*
X123114571Y-94791571D01*
X123078857Y-94755857D01*
X123253571Y-80869286D02*
X123253571Y-81476429D01*
X123289286Y-81547857D01*
X123325000Y-81583571D01*
X123396429Y-81619286D01*
X123539286Y-81619286D01*
X123610714Y-81583571D01*
X123646429Y-81547857D01*
X123682143Y-81476429D01*
X123682143Y-80869286D01*
X124432143Y-81619286D02*
X124003571Y-81619286D01*
X124217857Y-81619286D02*
X124217857Y-80869286D01*
X124146428Y-80976429D01*
X124075000Y-81047857D01*
X124003571Y-81083571D01*
X142168571Y-84230714D02*
X142097143Y-84195000D01*
X142025714Y-84123571D01*
X141918571Y-84016429D01*
X141847143Y-83980714D01*
X141775714Y-83980714D01*
X141811429Y-84159286D02*
X141740000Y-84123571D01*
X141668571Y-84052143D01*
X141632857Y-83909286D01*
X141632857Y-83659286D01*
X141668571Y-83516429D01*
X141740000Y-83445000D01*
X141811429Y-83409286D01*
X141954286Y-83409286D01*
X142025714Y-83445000D01*
X142097143Y-83516429D01*
X142132857Y-83659286D01*
X142132857Y-83909286D01*
X142097143Y-84052143D01*
X142025714Y-84123571D01*
X141954286Y-84159286D01*
X141811429Y-84159286D01*
X142847143Y-84159286D02*
X142418571Y-84159286D01*
X142632857Y-84159286D02*
X142632857Y-83409286D01*
X142561428Y-83516429D01*
X142490000Y-83587857D01*
X142418571Y-83623571D01*
X120908000Y-86203286D02*
X120908000Y-86739000D01*
X120872286Y-86846143D01*
X120800857Y-86917571D01*
X120693714Y-86953286D01*
X120622286Y-86953286D01*
X121658001Y-86953286D02*
X121229429Y-86953286D01*
X121443715Y-86953286D02*
X121443715Y-86203286D01*
X121372286Y-86310429D01*
X121300858Y-86381857D01*
X121229429Y-86417571D01*
X118114000Y-85060286D02*
X118114000Y-85596000D01*
X118078286Y-85703143D01*
X118006857Y-85774571D01*
X117899714Y-85810286D01*
X117828286Y-85810286D01*
X118435429Y-85131714D02*
X118471143Y-85096000D01*
X118542572Y-85060286D01*
X118721143Y-85060286D01*
X118792572Y-85096000D01*
X118828286Y-85131714D01*
X118864001Y-85203143D01*
X118864001Y-85274571D01*
X118828286Y-85381714D01*
X118399715Y-85810286D01*
X118864001Y-85810286D01*
X146308000Y-81123286D02*
X146308000Y-81659000D01*
X146272286Y-81766143D01*
X146200857Y-81837571D01*
X146093714Y-81873286D01*
X146022286Y-81873286D01*
X146593715Y-81123286D02*
X147058001Y-81123286D01*
X146808001Y-81409000D01*
X146915143Y-81409000D01*
X146986572Y-81444714D01*
X147022286Y-81480429D01*
X147058001Y-81551857D01*
X147058001Y-81730429D01*
X147022286Y-81801857D01*
X146986572Y-81837571D01*
X146915143Y-81873286D01*
X146700858Y-81873286D01*
X146629429Y-81837571D01*
X146593715Y-81801857D01*
X149114000Y-86155571D02*
X149221143Y-86191286D01*
X149399714Y-86191286D01*
X149471143Y-86155571D01*
X149506857Y-86119857D01*
X149542572Y-86048429D01*
X149542572Y-85977000D01*
X149506857Y-85905571D01*
X149471143Y-85869857D01*
X149399714Y-85834143D01*
X149256857Y-85798429D01*
X149185429Y-85762714D01*
X149149714Y-85727000D01*
X149114000Y-85655571D01*
X149114000Y-85584143D01*
X149149714Y-85512714D01*
X149185429Y-85477000D01*
X149256857Y-85441286D01*
X149435429Y-85441286D01*
X149542572Y-85477000D01*
X149792572Y-85441286D02*
X149971143Y-86191286D01*
X150114000Y-85655571D01*
X150256858Y-86191286D01*
X150435429Y-85441286D01*
X151114001Y-86191286D02*
X150685429Y-86191286D01*
X150899715Y-86191286D02*
X150899715Y-85441286D01*
X150828286Y-85548429D01*
X150756858Y-85619857D01*
X150685429Y-85655571D01*
M02*
