G04 (created by PCBNEW (2013-mar-13)-testing) date Thu 17 Oct 2013 10:30:57 PM EDT*
%MOIN*%
G04 Gerber Fmt 3.4, Leading zero omitted, Abs format*
%FSLAX34Y34*%
G01*
G70*
G90*
G04 APERTURE LIST*
%ADD10C,0.005906*%
%ADD11C,0.006890*%
G04 APERTURE END LIST*
G54D10*
G54D11*
X58730Y-38474D02*
X58757Y-38461D01*
X58770Y-38435D01*
X58770Y-38199D01*
X58520Y-38461D02*
X58547Y-38474D01*
X58599Y-38474D01*
X58625Y-38461D01*
X58638Y-38435D01*
X58638Y-38330D01*
X58625Y-38304D01*
X58599Y-38290D01*
X58547Y-38290D01*
X58520Y-38304D01*
X58507Y-38330D01*
X58507Y-38356D01*
X58638Y-38382D01*
X58271Y-38474D02*
X58271Y-38199D01*
X58271Y-38461D02*
X58297Y-38474D01*
X58350Y-38474D01*
X58376Y-38461D01*
X58389Y-38448D01*
X58402Y-38422D01*
X58402Y-38343D01*
X58389Y-38317D01*
X58376Y-38304D01*
X58350Y-38290D01*
X58297Y-38290D01*
X58271Y-38304D01*
X58205Y-38500D02*
X57995Y-38500D01*
X57943Y-38461D02*
X57917Y-38474D01*
X57864Y-38474D01*
X57838Y-38461D01*
X57825Y-38435D01*
X57825Y-38422D01*
X57838Y-38395D01*
X57864Y-38382D01*
X57904Y-38382D01*
X57930Y-38369D01*
X57943Y-38343D01*
X57943Y-38330D01*
X57930Y-38304D01*
X57904Y-38290D01*
X57864Y-38290D01*
X57838Y-38304D01*
X57707Y-38474D02*
X57707Y-38199D01*
X57589Y-38474D02*
X57589Y-38330D01*
X57602Y-38304D01*
X57628Y-38290D01*
X57667Y-38290D01*
X57694Y-38304D01*
X57707Y-38317D01*
X57457Y-38474D02*
X57457Y-38290D01*
X57457Y-38199D02*
X57470Y-38212D01*
X57457Y-38225D01*
X57444Y-38212D01*
X57457Y-38199D01*
X57457Y-38225D01*
X57326Y-38474D02*
X57326Y-38290D01*
X57326Y-38343D02*
X57313Y-38317D01*
X57300Y-38304D01*
X57274Y-38290D01*
X57247Y-38290D01*
X57195Y-38290D02*
X57090Y-38290D01*
X57156Y-38199D02*
X57156Y-38435D01*
X57142Y-38461D01*
X57116Y-38474D01*
X57090Y-38474D01*
X60594Y-38745D02*
X60594Y-38968D01*
X60607Y-38995D01*
X60620Y-39008D01*
X60646Y-39021D01*
X60686Y-39021D01*
X60712Y-39008D01*
X60594Y-38916D02*
X60620Y-38929D01*
X60673Y-38929D01*
X60699Y-38916D01*
X60712Y-38903D01*
X60725Y-38876D01*
X60725Y-38798D01*
X60712Y-38771D01*
X60699Y-38758D01*
X60673Y-38745D01*
X60620Y-38745D01*
X60594Y-38758D01*
X60463Y-38929D02*
X60463Y-38745D01*
X60463Y-38653D02*
X60476Y-38666D01*
X60463Y-38680D01*
X60449Y-38666D01*
X60463Y-38653D01*
X60463Y-38680D01*
X60371Y-38745D02*
X60266Y-38745D01*
X60331Y-38653D02*
X60331Y-38890D01*
X60318Y-38916D01*
X60292Y-38929D01*
X60266Y-38929D01*
X60174Y-38929D02*
X60174Y-38653D01*
X60056Y-38929D02*
X60056Y-38785D01*
X60069Y-38758D01*
X60095Y-38745D01*
X60135Y-38745D01*
X60161Y-38758D01*
X60174Y-38771D01*
X59806Y-38745D02*
X59806Y-38929D01*
X59925Y-38745D02*
X59925Y-38890D01*
X59911Y-38916D01*
X59885Y-38929D01*
X59846Y-38929D01*
X59820Y-38916D01*
X59806Y-38903D01*
X59675Y-38929D02*
X59675Y-38653D01*
X59675Y-38758D02*
X59649Y-38745D01*
X59596Y-38745D01*
X59570Y-38758D01*
X59557Y-38771D01*
X59544Y-38798D01*
X59544Y-38876D01*
X59557Y-38903D01*
X59570Y-38916D01*
X59596Y-38929D01*
X59649Y-38929D01*
X59675Y-38916D01*
X59426Y-38903D02*
X59413Y-38916D01*
X59426Y-38929D01*
X59439Y-38916D01*
X59426Y-38903D01*
X59426Y-38929D01*
X59177Y-38916D02*
X59203Y-38929D01*
X59255Y-38929D01*
X59282Y-38916D01*
X59295Y-38903D01*
X59308Y-38876D01*
X59308Y-38798D01*
X59295Y-38771D01*
X59282Y-38758D01*
X59255Y-38745D01*
X59203Y-38745D01*
X59177Y-38758D01*
X59019Y-38929D02*
X59045Y-38916D01*
X59058Y-38903D01*
X59072Y-38876D01*
X59072Y-38798D01*
X59058Y-38771D01*
X59045Y-38758D01*
X59019Y-38745D01*
X58980Y-38745D01*
X58953Y-38758D01*
X58940Y-38771D01*
X58927Y-38798D01*
X58927Y-38876D01*
X58940Y-38903D01*
X58953Y-38916D01*
X58980Y-38929D01*
X59019Y-38929D01*
X58809Y-38929D02*
X58809Y-38745D01*
X58809Y-38771D02*
X58796Y-38758D01*
X58770Y-38745D01*
X58730Y-38745D01*
X58704Y-38758D01*
X58691Y-38785D01*
X58691Y-38929D01*
X58691Y-38785D02*
X58678Y-38758D01*
X58652Y-38745D01*
X58612Y-38745D01*
X58586Y-38758D01*
X58573Y-38785D01*
X58573Y-38929D01*
X58245Y-38640D02*
X58481Y-38995D01*
X58153Y-38745D02*
X58153Y-38929D01*
X58153Y-38771D02*
X58140Y-38758D01*
X58114Y-38745D01*
X58074Y-38745D01*
X58048Y-38758D01*
X58035Y-38785D01*
X58035Y-38929D01*
X57864Y-38929D02*
X57890Y-38916D01*
X57904Y-38903D01*
X57917Y-38876D01*
X57917Y-38798D01*
X57904Y-38771D01*
X57890Y-38758D01*
X57864Y-38745D01*
X57825Y-38745D01*
X57799Y-38758D01*
X57785Y-38771D01*
X57772Y-38798D01*
X57772Y-38876D01*
X57785Y-38903D01*
X57799Y-38916D01*
X57825Y-38929D01*
X57864Y-38929D01*
X57536Y-38929D02*
X57536Y-38785D01*
X57549Y-38758D01*
X57575Y-38745D01*
X57628Y-38745D01*
X57654Y-38758D01*
X57536Y-38916D02*
X57562Y-38929D01*
X57628Y-38929D01*
X57654Y-38916D01*
X57667Y-38890D01*
X57667Y-38863D01*
X57654Y-38837D01*
X57628Y-38824D01*
X57562Y-38824D01*
X57536Y-38811D01*
X57405Y-38929D02*
X57405Y-38653D01*
X57287Y-38929D02*
X57287Y-38785D01*
X57300Y-38758D01*
X57326Y-38745D01*
X57366Y-38745D01*
X57392Y-38758D01*
X57405Y-38771D01*
X57156Y-38745D02*
X57156Y-39021D01*
X57156Y-38758D02*
X57129Y-38745D01*
X57077Y-38745D01*
X57051Y-38758D01*
X57037Y-38771D01*
X57024Y-38798D01*
X57024Y-38876D01*
X57037Y-38903D01*
X57051Y-38916D01*
X57077Y-38929D01*
X57129Y-38929D01*
X57156Y-38916D01*
X56709Y-38640D02*
X56946Y-38995D01*
X56578Y-38929D02*
X56604Y-38916D01*
X56617Y-38890D01*
X56617Y-38653D01*
X56368Y-38916D02*
X56394Y-38929D01*
X56447Y-38929D01*
X56473Y-38916D01*
X56486Y-38890D01*
X56486Y-38785D01*
X56473Y-38758D01*
X56447Y-38745D01*
X56394Y-38745D01*
X56368Y-38758D01*
X56355Y-38785D01*
X56355Y-38811D01*
X56486Y-38837D01*
X56119Y-38929D02*
X56119Y-38653D01*
X56119Y-38916D02*
X56145Y-38929D01*
X56198Y-38929D01*
X56224Y-38916D01*
X56237Y-38903D01*
X56250Y-38876D01*
X56250Y-38798D01*
X56237Y-38771D01*
X56224Y-38758D01*
X56198Y-38745D01*
X56145Y-38745D01*
X56119Y-38758D01*
X56001Y-38916D02*
X55974Y-38929D01*
X55922Y-38929D01*
X55896Y-38916D01*
X55883Y-38890D01*
X55883Y-38876D01*
X55896Y-38850D01*
X55922Y-38837D01*
X55961Y-38837D01*
X55988Y-38824D01*
X56001Y-38798D01*
X56001Y-38785D01*
X55988Y-38758D01*
X55961Y-38745D01*
X55922Y-38745D01*
X55896Y-38758D01*
X55764Y-38929D02*
X55764Y-38653D01*
X55646Y-38929D02*
X55646Y-38785D01*
X55659Y-38758D01*
X55686Y-38745D01*
X55725Y-38745D01*
X55751Y-38758D01*
X55764Y-38771D01*
X55515Y-38929D02*
X55515Y-38745D01*
X55515Y-38653D02*
X55528Y-38666D01*
X55515Y-38680D01*
X55502Y-38666D01*
X55515Y-38653D01*
X55515Y-38680D01*
X55384Y-38929D02*
X55384Y-38745D01*
X55384Y-38798D02*
X55371Y-38771D01*
X55358Y-38758D01*
X55331Y-38745D01*
X55305Y-38745D01*
X55253Y-38745D02*
X55148Y-38745D01*
X55213Y-38653D02*
X55213Y-38890D01*
X55200Y-38916D01*
X55174Y-38929D01*
X55148Y-38929D01*
X58343Y-39200D02*
X58278Y-39384D01*
X58212Y-39200D01*
X58120Y-39134D02*
X58107Y-39121D01*
X58081Y-39108D01*
X58015Y-39108D01*
X57989Y-39121D01*
X57976Y-39134D01*
X57963Y-39161D01*
X57963Y-39187D01*
X57976Y-39226D01*
X58133Y-39384D01*
X57963Y-39384D01*
X57845Y-39357D02*
X57831Y-39370D01*
X57845Y-39384D01*
X57858Y-39370D01*
X57845Y-39357D01*
X57845Y-39384D01*
X57661Y-39108D02*
X57635Y-39108D01*
X57608Y-39121D01*
X57595Y-39134D01*
X57582Y-39161D01*
X57569Y-39213D01*
X57569Y-39279D01*
X57582Y-39331D01*
X57595Y-39357D01*
X57608Y-39370D01*
X57635Y-39384D01*
X57661Y-39384D01*
X57687Y-39370D01*
X57700Y-39357D01*
X57713Y-39331D01*
X57726Y-39279D01*
X57726Y-39213D01*
X57713Y-39161D01*
X57700Y-39134D01*
X57687Y-39121D01*
X57661Y-39108D01*
X58862Y-39838D02*
X58888Y-39825D01*
X58901Y-39812D01*
X58914Y-39786D01*
X58914Y-39707D01*
X58901Y-39681D01*
X58888Y-39668D01*
X58862Y-39655D01*
X58822Y-39655D01*
X58796Y-39668D01*
X58783Y-39681D01*
X58770Y-39707D01*
X58770Y-39786D01*
X58783Y-39812D01*
X58796Y-39825D01*
X58822Y-39838D01*
X58862Y-39838D01*
X58533Y-39825D02*
X58560Y-39838D01*
X58612Y-39838D01*
X58638Y-39825D01*
X58652Y-39812D01*
X58665Y-39786D01*
X58665Y-39707D01*
X58652Y-39681D01*
X58638Y-39668D01*
X58612Y-39655D01*
X58560Y-39655D01*
X58533Y-39668D01*
X58455Y-39655D02*
X58350Y-39655D01*
X58415Y-39563D02*
X58415Y-39799D01*
X58402Y-39825D01*
X58376Y-39838D01*
X58350Y-39838D01*
X58258Y-39733D02*
X58048Y-39733D01*
X57930Y-39589D02*
X57917Y-39576D01*
X57890Y-39563D01*
X57825Y-39563D01*
X57799Y-39576D01*
X57785Y-39589D01*
X57772Y-39615D01*
X57772Y-39641D01*
X57785Y-39681D01*
X57943Y-39838D01*
X57772Y-39838D01*
X57602Y-39563D02*
X57575Y-39563D01*
X57549Y-39576D01*
X57536Y-39589D01*
X57523Y-39615D01*
X57510Y-39668D01*
X57510Y-39733D01*
X57523Y-39786D01*
X57536Y-39812D01*
X57549Y-39825D01*
X57575Y-39838D01*
X57602Y-39838D01*
X57628Y-39825D01*
X57641Y-39812D01*
X57654Y-39786D01*
X57667Y-39733D01*
X57667Y-39668D01*
X57654Y-39615D01*
X57641Y-39589D01*
X57628Y-39576D01*
X57602Y-39563D01*
X57247Y-39838D02*
X57405Y-39838D01*
X57326Y-39838D02*
X57326Y-39563D01*
X57352Y-39602D01*
X57379Y-39628D01*
X57405Y-39641D01*
X57156Y-39563D02*
X56985Y-39563D01*
X57077Y-39668D01*
X57037Y-39668D01*
X57011Y-39681D01*
X56998Y-39694D01*
X56985Y-39720D01*
X56985Y-39786D01*
X56998Y-39812D01*
X57011Y-39825D01*
X57037Y-39838D01*
X57116Y-39838D01*
X57142Y-39825D01*
X57156Y-39812D01*
M02*
