M48
;DRILL file {Pcbnew (2013-mar-13)-testing} date Thu 17 Oct 2013 10:31:01 PM EDT
;FORMAT={-:-/ absolute / inch / decimal}
FMAT,2
INCH,TZ
T1C0.013
T2C0.047
T3C0.050
%
G90
G05
M72
T1
X5.435Y-4.24
X5.465Y-3.68
X5.5Y-4.135
X5.53Y-4.105
X5.595Y-4.19
X5.63Y-3.845
X5.63Y-4.18
X5.705Y-4.21
X5.71Y-3.74
X5.76Y-4.265
X5.765Y-3.68
X5.815Y-4.08
X5.815Y-4.13
X5.925Y-3.925
X5.99Y-3.925
X6.03Y-4.13
X6.03Y-4.18
T2
X5.4447Y-3.7701
X5.4447Y-4.0299
T3
X6.15Y-3.85
X6.15Y-3.95
X6.15Y-4.105
X6.15Y-4.205
T0
M30
