G04 (created by PCBNEW (2013-jul-14)-product) date Thu 07 Nov 2013 08:56:16 PM EST*
%MOIN*%
G04 Gerber Fmt 3.4, Leading zero omitted, Abs format*
%FSLAX34Y34*%
G01*
G70*
G90*
G04 APERTURE LIST*
%ADD10C,0.005906*%
%ADD11C,0.003100*%
%ADD12C,0.005000*%
%ADD13C,0.004700*%
%ADD14C,0.004500*%
G04 APERTURE END LIST*
G54D10*
G54D11*
X63099Y-38038D02*
G75*
G03X63099Y-38038I-62J0D01*
G74*
G01*
X64000Y-37700D02*
X64000Y-38100D01*
X62975Y-37700D02*
X62975Y-38100D01*
X64000Y-38100D02*
X62975Y-38100D01*
X62975Y-37700D02*
X64000Y-37700D01*
G54D12*
X61150Y-39250D02*
X61150Y-40150D01*
X61150Y-40150D02*
X60650Y-40150D01*
X60650Y-40150D02*
X60650Y-39250D01*
X60650Y-39250D02*
X61150Y-39250D01*
X60350Y-39250D02*
X60350Y-40150D01*
X60350Y-40150D02*
X59850Y-40150D01*
X59850Y-40150D02*
X59850Y-39250D01*
X59850Y-39250D02*
X60350Y-39250D01*
G54D13*
X64451Y-37889D02*
X64437Y-37918D01*
X64408Y-37946D01*
X64365Y-37989D01*
X64351Y-38018D01*
X64351Y-38046D01*
X64422Y-38032D02*
X64408Y-38061D01*
X64379Y-38089D01*
X64322Y-38103D01*
X64222Y-38103D01*
X64165Y-38089D01*
X64137Y-38061D01*
X64122Y-38032D01*
X64122Y-37975D01*
X64137Y-37946D01*
X64165Y-37918D01*
X64222Y-37903D01*
X64322Y-37903D01*
X64379Y-37918D01*
X64408Y-37946D01*
X64422Y-37975D01*
X64422Y-38032D01*
X64422Y-37618D02*
X64422Y-37789D01*
X64422Y-37703D02*
X64122Y-37703D01*
X64165Y-37732D01*
X64194Y-37761D01*
X64208Y-37789D01*
G54D14*
X60990Y-39730D02*
X60895Y-39790D01*
X60990Y-39832D02*
X60790Y-39832D01*
X60790Y-39764D01*
X60800Y-39747D01*
X60809Y-39738D01*
X60828Y-39730D01*
X60857Y-39730D01*
X60876Y-39738D01*
X60885Y-39747D01*
X60895Y-39764D01*
X60895Y-39832D01*
X60790Y-39575D02*
X60790Y-39610D01*
X60800Y-39627D01*
X60809Y-39635D01*
X60838Y-39652D01*
X60876Y-39661D01*
X60952Y-39661D01*
X60971Y-39652D01*
X60980Y-39644D01*
X60990Y-39627D01*
X60990Y-39592D01*
X60980Y-39575D01*
X60971Y-39567D01*
X60952Y-39558D01*
X60904Y-39558D01*
X60885Y-39567D01*
X60876Y-39575D01*
X60866Y-39592D01*
X60866Y-39627D01*
X60876Y-39644D01*
X60885Y-39652D01*
X60904Y-39661D01*
X60190Y-39730D02*
X60095Y-39790D01*
X60190Y-39832D02*
X59990Y-39832D01*
X59990Y-39764D01*
X60000Y-39747D01*
X60009Y-39738D01*
X60028Y-39730D01*
X60057Y-39730D01*
X60076Y-39738D01*
X60085Y-39747D01*
X60095Y-39764D01*
X60095Y-39832D01*
X59990Y-39567D02*
X59990Y-39652D01*
X60085Y-39661D01*
X60076Y-39652D01*
X60066Y-39635D01*
X60066Y-39592D01*
X60076Y-39575D01*
X60085Y-39567D01*
X60104Y-39558D01*
X60152Y-39558D01*
X60171Y-39567D01*
X60180Y-39575D01*
X60190Y-39592D01*
X60190Y-39635D01*
X60180Y-39652D01*
X60171Y-39661D01*
G54D10*
X61740Y-41448D02*
X61531Y-41239D01*
X61581Y-41190D01*
X61621Y-41170D01*
X61660Y-41170D01*
X61690Y-41180D01*
X61740Y-41209D01*
X61770Y-41239D01*
X61800Y-41289D01*
X61809Y-41319D01*
X61809Y-41359D01*
X61790Y-41398D01*
X61740Y-41448D01*
X61750Y-41060D02*
X61750Y-41040D01*
X61760Y-41011D01*
X61809Y-40961D01*
X61839Y-40951D01*
X61859Y-40951D01*
X61889Y-40961D01*
X61909Y-40981D01*
X61929Y-41021D01*
X61929Y-41259D01*
X62058Y-41130D01*
X61551Y-34740D02*
X61760Y-34531D01*
X61809Y-34581D01*
X61829Y-34621D01*
X61829Y-34660D01*
X61819Y-34690D01*
X61790Y-34740D01*
X61760Y-34770D01*
X61710Y-34800D01*
X61680Y-34809D01*
X61640Y-34809D01*
X61601Y-34790D01*
X61551Y-34740D01*
X61949Y-34720D02*
X62078Y-34849D01*
X61929Y-34859D01*
X61959Y-34889D01*
X61969Y-34919D01*
X61969Y-34939D01*
X61959Y-34969D01*
X61909Y-35018D01*
X61879Y-35028D01*
X61859Y-35028D01*
X61829Y-35018D01*
X61770Y-34959D01*
X61760Y-34929D01*
X61760Y-34909D01*
X58840Y-34898D02*
X58631Y-34689D01*
X58681Y-34640D01*
X58721Y-34620D01*
X58760Y-34620D01*
X58790Y-34630D01*
X58840Y-34659D01*
X58870Y-34689D01*
X58900Y-34739D01*
X58909Y-34769D01*
X58909Y-34809D01*
X58890Y-34848D01*
X58840Y-34898D01*
X58999Y-34461D02*
X59138Y-34600D01*
X58870Y-34431D02*
X58969Y-34630D01*
X59098Y-34500D01*
X58851Y-41240D02*
X59060Y-41031D01*
X59109Y-41081D01*
X59129Y-41121D01*
X59129Y-41160D01*
X59119Y-41190D01*
X59090Y-41240D01*
X59060Y-41270D01*
X59010Y-41300D01*
X58980Y-41309D01*
X58940Y-41309D01*
X58901Y-41290D01*
X58851Y-41240D01*
X59368Y-41339D02*
X59269Y-41240D01*
X59159Y-41329D01*
X59179Y-41329D01*
X59209Y-41339D01*
X59259Y-41389D01*
X59269Y-41419D01*
X59269Y-41439D01*
X59259Y-41469D01*
X59209Y-41518D01*
X59179Y-41528D01*
X59159Y-41528D01*
X59129Y-41518D01*
X59080Y-41469D01*
X59070Y-41439D01*
X59070Y-41419D01*
X59753Y-41733D02*
X59753Y-41438D01*
X59753Y-41550D02*
X59782Y-41536D01*
X59838Y-41536D01*
X59866Y-41550D01*
X59880Y-41564D01*
X59894Y-41592D01*
X59894Y-41677D01*
X59880Y-41705D01*
X59866Y-41719D01*
X59838Y-41733D01*
X59782Y-41733D01*
X59753Y-41719D01*
X60021Y-41621D02*
X60246Y-41621D01*
X60133Y-41733D02*
X60133Y-41508D01*
X60753Y-41733D02*
X60753Y-41438D01*
X60753Y-41550D02*
X60782Y-41536D01*
X60838Y-41536D01*
X60866Y-41550D01*
X60880Y-41564D01*
X60894Y-41592D01*
X60894Y-41677D01*
X60880Y-41705D01*
X60866Y-41719D01*
X60838Y-41733D01*
X60782Y-41733D01*
X60753Y-41719D01*
X61021Y-41621D02*
X61246Y-41621D01*
M02*
