M48
;DRILL file {KiCad 4.0.0-rc1-stable} date 11/22/2015 9:19:04 AM
;FORMAT={-:-/ absolute / inch / decimal}
FMAT,2
INCH,TZ
T1C0.013
T2C0.033
%
G90
G05
M72
T1
X4.84Y-3.75
X4.92Y-3.42
X4.93Y-3.31
X4.93Y-3.65
X5.16Y-3.73
X5.27Y-3.695
X5.275Y-3.595
X5.305Y-3.695
X5.37Y-3.365
X5.52Y-3.41
X5.53Y-3.625
X5.54Y-3.73
X5.545Y-3.665
X5.58Y-3.7
X5.6Y-3.335
X5.6Y-3.38
X5.775Y-3.73
X5.78Y-3.27
X5.83Y-3.39
X5.83Y-3.545
X5.88Y-3.595
T2
X4.77Y-3.17
X4.77Y-3.2487
X5.86Y-3.1713
X5.86Y-3.25
T0
M30
