G04 #@! TF.FileFunction,Legend,Bot*
%FSLAX46Y46*%
G04 Gerber Fmt 4.6, Leading zero omitted, Abs format (unit mm)*
G04 Created by KiCad (PCBNEW 4.0.0-rc1-stable) date 11/22/2015 9:16:10 AM*
%MOMM*%
G01*
G04 APERTURE LIST*
%ADD10C,0.150000*%
G04 APERTURE END LIST*
D10*
X122515142Y-84383571D02*
X122372285Y-84431190D01*
X122324666Y-84478810D01*
X122277047Y-84574048D01*
X122277047Y-84716905D01*
X122324666Y-84812143D01*
X122372285Y-84859762D01*
X122467523Y-84907381D01*
X122848476Y-84907381D01*
X122848476Y-83907381D01*
X122515142Y-83907381D01*
X122419904Y-83955000D01*
X122372285Y-84002619D01*
X122324666Y-84097857D01*
X122324666Y-84193095D01*
X122372285Y-84288333D01*
X122419904Y-84335952D01*
X122515142Y-84383571D01*
X122848476Y-84383571D01*
X121896095Y-84621667D02*
X121419904Y-84621667D01*
X121991333Y-84907381D02*
X121658000Y-83907381D01*
X121324666Y-84907381D01*
X121134190Y-83907381D02*
X120562761Y-83907381D01*
X120848476Y-84907381D02*
X120848476Y-83907381D01*
X120229428Y-84526429D02*
X119467523Y-84526429D01*
X122515142Y-78668571D02*
X122372285Y-78716190D01*
X122324666Y-78763810D01*
X122277047Y-78859048D01*
X122277047Y-79001905D01*
X122324666Y-79097143D01*
X122372285Y-79144762D01*
X122467523Y-79192381D01*
X122848476Y-79192381D01*
X122848476Y-78192381D01*
X122515142Y-78192381D01*
X122419904Y-78240000D01*
X122372285Y-78287619D01*
X122324666Y-78382857D01*
X122324666Y-78478095D01*
X122372285Y-78573333D01*
X122419904Y-78620952D01*
X122515142Y-78668571D01*
X122848476Y-78668571D01*
X121896095Y-78906667D02*
X121419904Y-78906667D01*
X121991333Y-79192381D02*
X121658000Y-78192381D01*
X121324666Y-79192381D01*
X121134190Y-78192381D02*
X120562761Y-78192381D01*
X120848476Y-79192381D02*
X120848476Y-78192381D01*
X120229428Y-78811429D02*
X119467523Y-78811429D01*
X119848475Y-79192381D02*
X119848475Y-78430476D01*
X149470904Y-79192381D02*
X149947095Y-79192381D01*
X149947095Y-78192381D01*
X149137571Y-78668571D02*
X148804237Y-78668571D01*
X148661380Y-79192381D02*
X149137571Y-79192381D01*
X149137571Y-78192381D01*
X148661380Y-78192381D01*
X148232809Y-79192381D02*
X148232809Y-78192381D01*
X147994714Y-78192381D01*
X147851856Y-78240000D01*
X147756618Y-78335238D01*
X147708999Y-78430476D01*
X147661380Y-78620952D01*
X147661380Y-78763810D01*
X147708999Y-78954286D01*
X147756618Y-79049524D01*
X147851856Y-79144762D01*
X147994714Y-79192381D01*
X148232809Y-79192381D01*
X147232809Y-78811429D02*
X146470904Y-78811429D01*
X149470904Y-84907381D02*
X149947095Y-84907381D01*
X149947095Y-83907381D01*
X149137571Y-84383571D02*
X148804237Y-84383571D01*
X148661380Y-84907381D02*
X149137571Y-84907381D01*
X149137571Y-83907381D01*
X148661380Y-83907381D01*
X148232809Y-84907381D02*
X148232809Y-83907381D01*
X147994714Y-83907381D01*
X147851856Y-83955000D01*
X147756618Y-84050238D01*
X147708999Y-84145476D01*
X147661380Y-84335952D01*
X147661380Y-84478810D01*
X147708999Y-84669286D01*
X147756618Y-84764524D01*
X147851856Y-84859762D01*
X147994714Y-84907381D01*
X148232809Y-84907381D01*
X147232809Y-84526429D02*
X146470904Y-84526429D01*
X146851856Y-84907381D02*
X146851856Y-84145476D01*
M02*
