G04 (created by PCBNEW (2013-07-07 BZR 4022)-stable) date 11/25/2013 16:11:13*
%MOIN*%
G04 Gerber Fmt 3.4, Leading zero omitted, Abs format*
%FSLAX34Y34*%
G01*
G70*
G90*
G04 APERTURE LIST*
%ADD10C,0.00590551*%
%ADD11R,0.0731X0.0357*%
%ADD12R,0.0751X0.083*%
%ADD13R,0.0948X0.0948*%
%ADD14C,0.083*%
%ADD15R,0.065X0.045*%
%ADD16R,0.0810236X0.043622*%
%ADD17C,0.0869*%
%ADD18R,0.0633X0.0436*%
%ADD19C,0.0987402*%
G04 APERTURE END LIST*
G54D10*
G54D11*
X58250Y-38512D03*
X58250Y-38256D03*
X58250Y-38000D03*
X58250Y-37744D03*
X58250Y-37488D03*
G54D12*
X58171Y-39260D03*
X58171Y-36740D03*
G54D13*
X57197Y-37528D03*
X57197Y-38472D03*
G54D14*
X57197Y-36701D03*
X57197Y-39299D03*
G54D15*
X58900Y-36300D03*
X58900Y-35700D03*
X59700Y-35500D03*
X59700Y-36100D03*
X61900Y-35600D03*
X61900Y-36200D03*
X61750Y-37200D03*
X61750Y-37800D03*
X62700Y-38400D03*
X62700Y-37800D03*
X58500Y-40600D03*
X58500Y-40000D03*
G54D16*
X59500Y-40000D03*
X59500Y-39500D03*
X59500Y-39000D03*
X59500Y-38500D03*
X61625Y-38500D03*
X61625Y-39000D03*
X61625Y-39500D03*
X61625Y-40000D03*
G54D17*
X60000Y-41000D03*
X61000Y-41000D03*
G54D18*
X61000Y-36700D03*
X61000Y-37074D03*
X61000Y-37448D03*
X59898Y-37448D03*
X59898Y-36700D03*
G54D19*
X59700Y-34700D03*
X61300Y-34700D03*
M02*
