G04 (created by PCBNEW (2013-07-07 BZR 4022)-stable) date 11/25/2013 16:11:13*
%MOIN*%
G04 Gerber Fmt 3.4, Leading zero omitted, Abs format*
%FSLAX34Y34*%
G01*
G70*
G90*
G04 APERTURE LIST*
%ADD10C,0.00590551*%
%ADD11C,0.005*%
%ADD12C,0.01*%
%ADD13C,0.00688976*%
%ADD14C,0.0045*%
%ADD15C,0.012*%
G04 APERTURE END LIST*
G54D10*
X63258Y-35658D02*
X63234Y-35642D01*
X63204Y-35644D01*
X63000Y-35762D01*
X63352Y-35847D02*
X63350Y-35818D01*
X63324Y-35772D01*
X63299Y-35756D01*
X63270Y-35758D01*
X63179Y-35810D01*
X63163Y-35835D01*
X63165Y-35864D01*
X63191Y-35909D01*
X63215Y-35926D01*
X63245Y-35924D01*
X63267Y-35911D01*
X63225Y-35784D01*
X63488Y-36056D02*
X63249Y-36194D01*
X63476Y-36063D02*
X63475Y-36033D01*
X63448Y-35988D01*
X63424Y-35972D01*
X63406Y-35967D01*
X63377Y-35969D01*
X63309Y-36008D01*
X63292Y-36033D01*
X63288Y-36051D01*
X63289Y-36080D01*
X63316Y-36125D01*
X63340Y-36142D01*
X63536Y-36165D02*
X63560Y-36181D01*
X63586Y-36227D01*
X63588Y-36256D01*
X63572Y-36280D01*
X63560Y-36287D01*
X63531Y-36289D01*
X63507Y-36273D01*
X63487Y-36239D01*
X63463Y-36222D01*
X63433Y-36224D01*
X63422Y-36231D01*
X63406Y-36255D01*
X63407Y-36284D01*
X63427Y-36319D01*
X63452Y-36335D01*
X63665Y-36363D02*
X63426Y-36501D01*
X63724Y-36465D02*
X63599Y-36538D01*
X63570Y-36539D01*
X63545Y-36523D01*
X63526Y-36489D01*
X63524Y-36460D01*
X63529Y-36442D01*
X63790Y-36579D02*
X63631Y-36671D01*
X63551Y-36717D02*
X63556Y-36699D01*
X63574Y-36704D01*
X63569Y-36722D01*
X63551Y-36717D01*
X63574Y-36704D01*
X63855Y-36693D02*
X63696Y-36785D01*
X63742Y-36758D02*
X63725Y-36783D01*
X63721Y-36801D01*
X63722Y-36830D01*
X63736Y-36853D01*
X63762Y-36898D02*
X63814Y-36989D01*
X63702Y-36978D02*
X63906Y-36860D01*
X63936Y-36858D01*
X63960Y-36874D01*
X63973Y-36897D01*
X59126Y-38519D02*
X59126Y-38322D01*
X59126Y-38350D02*
X59112Y-38336D01*
X59084Y-38322D01*
X59042Y-38322D01*
X59014Y-38336D01*
X59000Y-38364D01*
X59000Y-38519D01*
X59000Y-38364D02*
X58985Y-38336D01*
X58957Y-38322D01*
X58915Y-38322D01*
X58887Y-38336D01*
X58873Y-38364D01*
X58873Y-38519D01*
X59112Y-40007D02*
X58887Y-40007D01*
X58999Y-40119D02*
X58999Y-39894D01*
X62312Y-40007D02*
X62087Y-40007D01*
X62136Y-39619D02*
X62136Y-39324D01*
X62136Y-39605D02*
X62164Y-39619D01*
X62221Y-39619D01*
X62249Y-39605D01*
X62263Y-39591D01*
X62277Y-39563D01*
X62277Y-39478D01*
X62263Y-39450D01*
X62249Y-39436D01*
X62221Y-39422D01*
X62164Y-39422D01*
X62136Y-39436D01*
X62129Y-39105D02*
X62157Y-39119D01*
X62214Y-39119D01*
X62242Y-39105D01*
X62256Y-39091D01*
X62270Y-39063D01*
X62270Y-38978D01*
X62256Y-38950D01*
X62242Y-38936D01*
X62214Y-38922D01*
X62157Y-38922D01*
X62129Y-38936D01*
X63737Y-38423D02*
X63931Y-38535D01*
X63960Y-38537D01*
X63978Y-38532D01*
X64002Y-38516D01*
X64022Y-38482D01*
X64024Y-38452D01*
X63885Y-38509D02*
X63910Y-38493D01*
X63936Y-38447D01*
X63938Y-38418D01*
X63933Y-38400D01*
X63917Y-38375D01*
X63848Y-38336D01*
X63819Y-38334D01*
X63801Y-38339D01*
X63777Y-38355D01*
X63751Y-38401D01*
X63749Y-38430D01*
X63831Y-38629D02*
X63672Y-38537D01*
X63592Y-38491D02*
X63610Y-38486D01*
X63615Y-38504D01*
X63597Y-38509D01*
X63592Y-38491D01*
X63615Y-38504D01*
X63626Y-38617D02*
X63573Y-38708D01*
X63527Y-38605D02*
X63731Y-38723D01*
X63747Y-38747D01*
X63746Y-38777D01*
X63732Y-38799D01*
X63664Y-38866D02*
X63669Y-38884D01*
X63687Y-38879D01*
X63682Y-38861D01*
X63664Y-38866D01*
X63687Y-38879D01*
X63621Y-38993D02*
X63462Y-38901D01*
X63382Y-38855D02*
X63400Y-38850D01*
X63405Y-38868D01*
X63387Y-38873D01*
X63382Y-38855D01*
X63405Y-38868D01*
X63536Y-39140D02*
X63537Y-39111D01*
X63533Y-39093D01*
X63516Y-39069D01*
X63448Y-39029D01*
X63419Y-39028D01*
X63401Y-39032D01*
X63376Y-39049D01*
X63357Y-39083D01*
X63355Y-39112D01*
X63360Y-39130D01*
X63376Y-39154D01*
X63444Y-39194D01*
X63474Y-39196D01*
X63491Y-39191D01*
X63516Y-39175D01*
X63536Y-39140D01*
X63082Y-39348D02*
X63507Y-39321D01*
X63115Y-39580D02*
X63161Y-39500D01*
X63286Y-39572D02*
X63048Y-39435D01*
X62982Y-39548D01*
X63043Y-39705D02*
X62997Y-39784D01*
X63103Y-39891D02*
X63168Y-39777D01*
X62929Y-39639D01*
X62864Y-39753D01*
X62873Y-40000D02*
X62918Y-39921D01*
X63043Y-39993D02*
X62805Y-39855D01*
X62739Y-39969D01*
X62766Y-40106D02*
X62971Y-40224D01*
X63000Y-40225D01*
X63025Y-40209D01*
X63031Y-40198D01*
X62687Y-40060D02*
X62705Y-40055D01*
X62709Y-40073D01*
X62692Y-40078D01*
X62687Y-40060D01*
X62709Y-40073D01*
X62621Y-40173D02*
X62814Y-40285D01*
X62830Y-40309D01*
X62835Y-40327D01*
X62834Y-40357D01*
X62807Y-40402D01*
X62783Y-40418D01*
X62765Y-40423D01*
X62736Y-40421D01*
X62542Y-40310D01*
X62569Y-40446D02*
X62702Y-40584D01*
X62562Y-40564D01*
X62650Y-40675D01*
X62464Y-40628D01*
X63719Y-39345D02*
X63845Y-39494D01*
X63654Y-39459D01*
X63551Y-39505D02*
X63533Y-39510D01*
X63508Y-39526D01*
X63476Y-39583D01*
X63474Y-39612D01*
X63479Y-39630D01*
X63495Y-39655D01*
X63517Y-39668D01*
X63558Y-39676D01*
X63773Y-39619D01*
X63688Y-39766D01*
X63606Y-39856D02*
X63611Y-39873D01*
X63629Y-39869D01*
X63624Y-39851D01*
X63606Y-39856D01*
X63629Y-39869D01*
X63491Y-40107D02*
X63570Y-39971D01*
X63530Y-40039D02*
X63292Y-39901D01*
X63339Y-39898D01*
X63375Y-39889D01*
X63399Y-39872D01*
G54D11*
X59150Y-36450D02*
X59150Y-35550D01*
X59150Y-35550D02*
X58650Y-35550D01*
X58650Y-35550D02*
X58650Y-36450D01*
X58650Y-36450D02*
X59150Y-36450D01*
X59450Y-35350D02*
X59450Y-36250D01*
X59450Y-36250D02*
X59950Y-36250D01*
X59950Y-36250D02*
X59950Y-35350D01*
X59950Y-35350D02*
X59450Y-35350D01*
X61650Y-35450D02*
X61650Y-36350D01*
X61650Y-36350D02*
X62150Y-36350D01*
X62150Y-36350D02*
X62150Y-35450D01*
X62150Y-35450D02*
X61650Y-35450D01*
X61500Y-37050D02*
X61500Y-37950D01*
X61500Y-37950D02*
X62000Y-37950D01*
X62000Y-37950D02*
X62000Y-37050D01*
X62000Y-37050D02*
X61500Y-37050D01*
X62950Y-38550D02*
X62950Y-37650D01*
X62950Y-37650D02*
X62450Y-37650D01*
X62450Y-37650D02*
X62450Y-38550D01*
X62450Y-38550D02*
X62950Y-38550D01*
X58750Y-40750D02*
X58750Y-39850D01*
X58750Y-39850D02*
X58250Y-39850D01*
X58250Y-39850D02*
X58250Y-40750D01*
X58250Y-40750D02*
X58750Y-40750D01*
G54D12*
X61236Y-36346D02*
G75*
G03X61236Y-36346I-39J0D01*
G74*
G01*
G54D13*
X58685Y-37908D02*
X58882Y-37908D01*
X58922Y-37895D01*
X58948Y-37868D01*
X58961Y-37829D01*
X58961Y-37803D01*
X58961Y-38183D02*
X58961Y-38026D01*
X58961Y-38104D02*
X58685Y-38104D01*
X58725Y-38078D01*
X58751Y-38052D01*
X58764Y-38026D01*
G54D14*
X58480Y-35970D02*
X58385Y-35910D01*
X58480Y-35867D02*
X58280Y-35867D01*
X58280Y-35935D01*
X58290Y-35952D01*
X58300Y-35961D01*
X58319Y-35970D01*
X58347Y-35970D01*
X58366Y-35961D01*
X58376Y-35952D01*
X58385Y-35935D01*
X58385Y-35867D01*
X58300Y-36038D02*
X58290Y-36047D01*
X58280Y-36064D01*
X58280Y-36107D01*
X58290Y-36124D01*
X58300Y-36132D01*
X58319Y-36141D01*
X58338Y-36141D01*
X58366Y-36132D01*
X58480Y-36030D01*
X58480Y-36141D01*
X60211Y-35270D02*
X60221Y-35261D01*
X60230Y-35235D01*
X60230Y-35218D01*
X60221Y-35192D01*
X60202Y-35175D01*
X60183Y-35167D01*
X60145Y-35158D01*
X60116Y-35158D01*
X60078Y-35167D01*
X60059Y-35175D01*
X60040Y-35192D01*
X60030Y-35218D01*
X60030Y-35235D01*
X60040Y-35261D01*
X60050Y-35270D01*
X60230Y-35441D02*
X60230Y-35338D01*
X60230Y-35390D02*
X60030Y-35390D01*
X60059Y-35372D01*
X60078Y-35355D01*
X60088Y-35338D01*
X61830Y-36520D02*
X61735Y-36460D01*
X61830Y-36417D02*
X61630Y-36417D01*
X61630Y-36485D01*
X61640Y-36502D01*
X61650Y-36511D01*
X61669Y-36520D01*
X61697Y-36520D01*
X61716Y-36511D01*
X61726Y-36502D01*
X61735Y-36485D01*
X61735Y-36417D01*
X61830Y-36691D02*
X61830Y-36588D01*
X61830Y-36640D02*
X61630Y-36640D01*
X61659Y-36622D01*
X61678Y-36605D01*
X61688Y-36588D01*
X62261Y-37570D02*
X62271Y-37561D01*
X62280Y-37535D01*
X62280Y-37518D01*
X62271Y-37492D01*
X62252Y-37475D01*
X62233Y-37467D01*
X62195Y-37458D01*
X62166Y-37458D01*
X62128Y-37467D01*
X62109Y-37475D01*
X62090Y-37492D01*
X62080Y-37518D01*
X62080Y-37535D01*
X62090Y-37561D01*
X62100Y-37570D01*
X62100Y-37638D02*
X62090Y-37647D01*
X62080Y-37664D01*
X62080Y-37707D01*
X62090Y-37724D01*
X62100Y-37732D01*
X62119Y-37741D01*
X62138Y-37741D01*
X62166Y-37732D01*
X62280Y-37630D01*
X62280Y-37741D01*
X62830Y-37370D02*
X62735Y-37310D01*
X62830Y-37267D02*
X62630Y-37267D01*
X62630Y-37335D01*
X62640Y-37352D01*
X62650Y-37361D01*
X62669Y-37370D01*
X62697Y-37370D01*
X62716Y-37361D01*
X62726Y-37352D01*
X62735Y-37335D01*
X62735Y-37267D01*
X62697Y-37524D02*
X62830Y-37524D01*
X62621Y-37481D02*
X62764Y-37438D01*
X62764Y-37550D01*
X58130Y-40270D02*
X58035Y-40210D01*
X58130Y-40167D02*
X57930Y-40167D01*
X57930Y-40235D01*
X57940Y-40252D01*
X57950Y-40261D01*
X57969Y-40270D01*
X57997Y-40270D01*
X58016Y-40261D01*
X58026Y-40252D01*
X58035Y-40235D01*
X58035Y-40167D01*
X57930Y-40330D02*
X57930Y-40441D01*
X58007Y-40381D01*
X58007Y-40407D01*
X58016Y-40424D01*
X58026Y-40432D01*
X58045Y-40441D01*
X58092Y-40441D01*
X58111Y-40432D01*
X58121Y-40424D01*
X58130Y-40407D01*
X58130Y-40355D01*
X58121Y-40338D01*
X58111Y-40330D01*
G54D13*
X59809Y-37935D02*
X59809Y-38159D01*
X59796Y-38185D01*
X59783Y-38198D01*
X59757Y-38211D01*
X59704Y-38211D01*
X59678Y-38198D01*
X59665Y-38185D01*
X59652Y-38159D01*
X59652Y-37935D01*
X59534Y-37962D02*
X59521Y-37949D01*
X59495Y-37935D01*
X59429Y-37935D01*
X59403Y-37949D01*
X59390Y-37962D01*
X59376Y-37988D01*
X59376Y-38014D01*
X59390Y-38054D01*
X59547Y-38211D01*
X59376Y-38211D01*
G54D15*
X59435Y-40250D02*
X59464Y-40278D01*
X59492Y-40250D01*
X59464Y-40221D01*
X59435Y-40250D01*
X59492Y-40250D01*
G54D10*
X61024Y-37724D02*
X61024Y-37963D01*
X61010Y-37991D01*
X60996Y-38005D01*
X60968Y-38019D01*
X60912Y-38019D01*
X60884Y-38005D01*
X60870Y-37991D01*
X60856Y-37963D01*
X60856Y-37724D01*
X60560Y-38019D02*
X60729Y-38019D01*
X60645Y-38019D02*
X60645Y-37724D01*
X60673Y-37766D01*
X60701Y-37794D01*
X60729Y-37808D01*
M02*
