G04 (created by PCBNEW (2013-mar-13)-testing) date Thu 17 Oct 2013 10:30:57 PM EDT*
%MOIN*%
G04 Gerber Fmt 3.4, Leading zero omitted, Abs format*
%FSLAX34Y34*%
G01*
G70*
G90*
G04 APERTURE LIST*
%ADD10C,0.005906*%
%ADD11R,0.045000X0.025000*%
%ADD12R,0.025000X0.045000*%
%ADD13C,0.066900*%
%ADD14R,0.031500X0.039400*%
%ADD15R,0.063000X0.055100*%
%ADD16R,0.043300X0.023600*%
%ADD17R,0.061024X0.023622*%
%ADD18R,0.023622X0.061024*%
%ADD19R,0.053100X0.015700*%
%ADD20R,0.055100X0.063000*%
%ADD21R,0.074800X0.074800*%
%ADD22C,0.063000*%
%ADD23C,0.020000*%
%ADD24C,0.011800*%
%ADD25C,0.010000*%
G04 APERTURE END LIST*
G54D10*
G54D11*
X56300Y-37500D03*
X56300Y-36900D03*
X56650Y-41350D03*
X56650Y-40750D03*
G54D12*
X55050Y-36800D03*
X55650Y-36800D03*
G54D13*
X61500Y-41050D03*
X61500Y-42050D03*
X61500Y-38500D03*
X61500Y-39500D03*
G54D14*
X59950Y-36167D03*
X60325Y-37033D03*
X59575Y-37033D03*
G54D12*
X55750Y-36100D03*
X56350Y-36100D03*
X58250Y-37400D03*
X57650Y-37400D03*
G54D11*
X55800Y-41550D03*
X55800Y-40950D03*
X61450Y-37100D03*
X61450Y-36500D03*
G54D15*
X60354Y-39886D03*
X57046Y-39886D03*
X60354Y-38114D03*
X57046Y-38114D03*
G54D16*
X57100Y-36100D03*
X57100Y-36474D03*
X57100Y-36848D03*
X58202Y-36848D03*
X58202Y-36100D03*
G54D17*
X57600Y-40800D03*
X57600Y-41300D03*
X57600Y-41800D03*
X57600Y-42300D03*
X59725Y-42300D03*
X59725Y-41800D03*
X59725Y-41300D03*
X59725Y-40800D03*
G54D18*
X56700Y-42400D03*
X56200Y-42400D03*
X55700Y-42400D03*
X55200Y-42400D03*
X54700Y-42400D03*
G54D19*
X55500Y-38488D03*
X55500Y-38744D03*
X55500Y-39000D03*
X55500Y-39256D03*
X55500Y-39512D03*
G54D20*
X55421Y-37740D03*
X55421Y-40260D03*
G54D21*
X54447Y-39472D03*
X54447Y-38528D03*
G54D22*
X54447Y-40299D03*
X54447Y-37701D03*
G54D23*
X55950Y-41900D03*
X55000Y-41350D03*
X59250Y-39250D03*
X59900Y-39250D03*
X58150Y-41300D03*
X55300Y-41050D03*
X57050Y-42100D03*
X60300Y-41800D03*
X56300Y-41800D03*
X60300Y-41300D03*
X54350Y-42400D03*
X57600Y-42650D03*
X57100Y-37400D03*
X58150Y-40800D03*
X57650Y-36800D03*
X54650Y-36800D03*
X56300Y-38450D03*
G54D24*
X55421Y-40260D02*
X55000Y-40681D01*
X55700Y-42150D02*
X55700Y-42400D01*
X55950Y-41900D02*
X55700Y-42150D01*
X55000Y-40681D02*
X55000Y-41350D01*
X59575Y-39925D02*
X59575Y-40225D01*
X59575Y-40225D02*
X59200Y-40600D01*
X59200Y-42300D02*
X59200Y-40600D01*
X59200Y-42300D02*
X59725Y-42300D01*
X59575Y-37033D02*
X59575Y-39925D01*
X60354Y-38114D02*
X60354Y-38796D01*
X58918Y-39250D02*
X58550Y-39618D01*
X59250Y-39250D02*
X58918Y-39250D01*
X60354Y-38796D02*
X59900Y-39250D01*
X58150Y-41300D02*
X58550Y-41300D01*
X58550Y-39618D02*
X57046Y-38114D01*
X58550Y-41300D02*
X58550Y-40700D01*
X58550Y-40700D02*
X58550Y-39618D01*
X55800Y-40950D02*
X55300Y-41050D01*
X58150Y-41300D02*
X57600Y-41300D01*
X59950Y-36167D02*
X61117Y-36167D01*
X61117Y-36167D02*
X61450Y-36500D01*
X61450Y-37100D02*
X61450Y-38450D01*
X61450Y-38450D02*
X61500Y-38500D01*
X56350Y-36100D02*
X57100Y-36100D01*
X55750Y-36100D02*
X55750Y-36700D01*
X55750Y-36700D02*
X55650Y-36800D01*
X58750Y-36648D02*
X58750Y-36350D01*
X58500Y-36100D02*
X58202Y-36100D01*
X58750Y-36350D02*
X58500Y-36100D01*
X58450Y-37400D02*
X58250Y-37400D01*
X58750Y-37100D02*
X58450Y-37400D01*
X58750Y-36648D02*
X58750Y-37100D01*
X59725Y-41800D02*
X60300Y-41800D01*
X56750Y-42400D02*
X56700Y-42400D01*
X57050Y-42100D02*
X56750Y-42400D01*
X59725Y-41300D02*
X60300Y-41300D01*
X56200Y-41900D02*
X56200Y-42400D01*
X56300Y-41800D02*
X56200Y-41900D01*
X57600Y-42300D02*
X57600Y-42650D01*
X54350Y-42400D02*
X54700Y-42400D01*
X57100Y-36848D02*
X57100Y-37400D01*
X55200Y-42400D02*
X55200Y-41850D01*
X55500Y-41550D02*
X55800Y-41550D01*
X55200Y-41850D02*
X55500Y-41550D01*
X55800Y-41550D02*
X56000Y-41350D01*
X56000Y-41350D02*
X56650Y-41350D01*
X56650Y-41350D02*
X56900Y-41100D01*
X57350Y-40800D02*
X57600Y-40800D01*
X57050Y-41100D02*
X57350Y-40800D01*
X56900Y-41100D02*
X57050Y-41100D01*
X58150Y-40800D02*
X57600Y-40800D01*
X61500Y-39500D02*
X61500Y-41050D01*
X58154Y-36800D02*
X58202Y-36848D01*
X57650Y-36800D02*
X58154Y-36800D01*
X56100Y-38250D02*
X56300Y-38450D01*
X54650Y-36800D02*
X55050Y-36800D01*
X56300Y-37500D02*
X56300Y-38050D01*
X55862Y-38488D02*
X55500Y-38488D01*
X56300Y-38050D02*
X56100Y-38250D01*
X56100Y-38250D02*
X55862Y-38488D01*
G54D10*
G36*
X56005Y-41825D02*
X55991Y-41900D01*
X55991Y-41973D01*
X55954Y-42009D01*
X55950Y-42021D01*
X55945Y-42009D01*
X55903Y-41967D01*
X55847Y-41944D01*
X55737Y-41944D01*
X55700Y-41982D01*
X55700Y-42399D01*
X55708Y-42399D01*
X55708Y-42400D01*
X55700Y-42400D01*
X55700Y-42408D01*
X55699Y-42408D01*
X55699Y-42400D01*
X55691Y-42400D01*
X55691Y-42399D01*
X55699Y-42399D01*
X55699Y-41982D01*
X55662Y-41944D01*
X55552Y-41944D01*
X55496Y-41967D01*
X55454Y-42009D01*
X55450Y-42021D01*
X55445Y-42009D01*
X55409Y-41973D01*
X55409Y-41936D01*
X55527Y-41817D01*
X55545Y-41825D01*
X55604Y-41825D01*
X56005Y-41825D01*
X56005Y-41825D01*
G37*
G54D25*
X56005Y-41825D02*
X55991Y-41900D01*
X55991Y-41973D01*
X55954Y-42009D01*
X55950Y-42021D01*
X55945Y-42009D01*
X55903Y-41967D01*
X55847Y-41944D01*
X55737Y-41944D01*
X55700Y-41982D01*
X55700Y-42399D01*
X55708Y-42399D01*
X55708Y-42400D01*
X55700Y-42400D01*
X55700Y-42408D01*
X55699Y-42408D01*
X55699Y-42400D01*
X55691Y-42400D01*
X55691Y-42399D01*
X55699Y-42399D01*
X55699Y-41982D01*
X55662Y-41944D01*
X55552Y-41944D01*
X55496Y-41967D01*
X55454Y-42009D01*
X55450Y-42021D01*
X55445Y-42009D01*
X55409Y-41973D01*
X55409Y-41936D01*
X55527Y-41817D01*
X55545Y-41825D01*
X55604Y-41825D01*
X56005Y-41825D01*
G54D10*
G36*
X62125Y-42725D02*
X61987Y-42725D01*
X61987Y-41972D01*
X61984Y-41963D01*
X61984Y-40954D01*
X61910Y-40775D01*
X61774Y-40639D01*
X61709Y-40612D01*
X61709Y-39937D01*
X61774Y-39910D01*
X61910Y-39774D01*
X61984Y-39596D01*
X61984Y-39404D01*
X61984Y-38404D01*
X61910Y-38225D01*
X61774Y-38089D01*
X61659Y-38041D01*
X61659Y-37375D01*
X61704Y-37375D01*
X61759Y-37352D01*
X61802Y-37309D01*
X61825Y-37254D01*
X61825Y-37195D01*
X61825Y-36945D01*
X61825Y-36654D01*
X61825Y-36595D01*
X61825Y-36345D01*
X61802Y-36290D01*
X61759Y-36247D01*
X61704Y-36225D01*
X61645Y-36225D01*
X61470Y-36225D01*
X61264Y-36019D01*
X61196Y-35973D01*
X61117Y-35958D01*
X60257Y-35958D01*
X60257Y-35940D01*
X60234Y-35885D01*
X60192Y-35842D01*
X60137Y-35820D01*
X60077Y-35820D01*
X59762Y-35820D01*
X59707Y-35842D01*
X59665Y-35885D01*
X59642Y-35940D01*
X59642Y-35999D01*
X59642Y-36393D01*
X59665Y-36448D01*
X59707Y-36491D01*
X59762Y-36514D01*
X59822Y-36514D01*
X60137Y-36514D01*
X60192Y-36491D01*
X60234Y-36448D01*
X60257Y-36393D01*
X60257Y-36376D01*
X61030Y-36376D01*
X61075Y-36420D01*
X61075Y-36654D01*
X61097Y-36709D01*
X61140Y-36752D01*
X61195Y-36775D01*
X61254Y-36775D01*
X61704Y-36775D01*
X61759Y-36752D01*
X61802Y-36709D01*
X61825Y-36654D01*
X61825Y-36945D01*
X61802Y-36890D01*
X61759Y-36847D01*
X61704Y-36825D01*
X61645Y-36825D01*
X61195Y-36825D01*
X61140Y-36847D01*
X61097Y-36890D01*
X61075Y-36945D01*
X61075Y-37004D01*
X61075Y-37254D01*
X61097Y-37309D01*
X61140Y-37352D01*
X61195Y-37375D01*
X61241Y-37375D01*
X61241Y-38082D01*
X61225Y-38089D01*
X61089Y-38225D01*
X61015Y-38403D01*
X61015Y-38595D01*
X61089Y-38774D01*
X61225Y-38910D01*
X61403Y-38984D01*
X61595Y-38984D01*
X61774Y-38910D01*
X61910Y-38774D01*
X61984Y-38596D01*
X61984Y-38404D01*
X61984Y-39404D01*
X61910Y-39225D01*
X61774Y-39089D01*
X61596Y-39015D01*
X61404Y-39015D01*
X61225Y-39089D01*
X61089Y-39225D01*
X61015Y-39403D01*
X61015Y-39595D01*
X61089Y-39774D01*
X61225Y-39910D01*
X61291Y-39937D01*
X61291Y-40612D01*
X61225Y-40639D01*
X61089Y-40775D01*
X61015Y-40953D01*
X61015Y-41145D01*
X61089Y-41324D01*
X61225Y-41460D01*
X61403Y-41534D01*
X61595Y-41534D01*
X61774Y-41460D01*
X61910Y-41324D01*
X61984Y-41146D01*
X61984Y-40954D01*
X61984Y-41963D01*
X61921Y-41791D01*
X61899Y-41759D01*
X61822Y-41727D01*
X61822Y-41727D01*
X61822Y-41727D01*
X61790Y-41650D01*
X61615Y-41569D01*
X61422Y-41562D01*
X61241Y-41628D01*
X61209Y-41650D01*
X61177Y-41727D01*
X61500Y-42049D01*
X61822Y-41727D01*
X61822Y-41727D01*
X61500Y-42050D01*
X61822Y-42372D01*
X61899Y-42340D01*
X61980Y-42165D01*
X61987Y-41972D01*
X61987Y-42725D01*
X61822Y-42725D01*
X61822Y-42372D01*
X61500Y-42050D01*
X61499Y-42050D01*
X61499Y-42050D01*
X61177Y-41727D01*
X61100Y-41759D01*
X61019Y-41934D01*
X61012Y-42127D01*
X61078Y-42308D01*
X61100Y-42340D01*
X61177Y-42372D01*
X61499Y-42050D01*
X61499Y-42050D01*
X61177Y-42372D01*
X61209Y-42449D01*
X61384Y-42530D01*
X61577Y-42537D01*
X61758Y-42471D01*
X61790Y-42449D01*
X61822Y-42372D01*
X61822Y-42725D01*
X60819Y-42725D01*
X60819Y-40191D01*
X60819Y-40131D01*
X60819Y-39923D01*
X60819Y-39848D01*
X60819Y-39640D01*
X60819Y-39580D01*
X60796Y-39525D01*
X60753Y-39483D01*
X60698Y-39460D01*
X60391Y-39460D01*
X60354Y-39498D01*
X60354Y-39885D01*
X60781Y-39885D01*
X60819Y-39848D01*
X60819Y-39923D01*
X60781Y-39886D01*
X60354Y-39886D01*
X60354Y-40274D01*
X60391Y-40311D01*
X60698Y-40311D01*
X60753Y-40288D01*
X60796Y-40246D01*
X60819Y-40191D01*
X60819Y-42725D01*
X57839Y-42725D01*
X57849Y-42699D01*
X57850Y-42600D01*
X57836Y-42568D01*
X57934Y-42568D01*
X57990Y-42545D01*
X58032Y-42503D01*
X58055Y-42447D01*
X58055Y-42388D01*
X58055Y-42152D01*
X58032Y-42096D01*
X57990Y-42054D01*
X57978Y-42050D01*
X57990Y-42045D01*
X58032Y-42003D01*
X58055Y-41947D01*
X58055Y-41888D01*
X58055Y-41652D01*
X58032Y-41596D01*
X57990Y-41554D01*
X57978Y-41550D01*
X57990Y-41545D01*
X58019Y-41516D01*
X58100Y-41549D01*
X58199Y-41550D01*
X58291Y-41512D01*
X58294Y-41509D01*
X58550Y-41509D01*
X58629Y-41493D01*
X58697Y-41447D01*
X58743Y-41379D01*
X58759Y-41300D01*
X58759Y-40700D01*
X58759Y-39704D01*
X59004Y-39459D01*
X59105Y-39459D01*
X59108Y-39461D01*
X59200Y-39499D01*
X59299Y-39500D01*
X59366Y-39472D01*
X59366Y-39925D01*
X59366Y-40138D01*
X59052Y-40452D01*
X59006Y-40520D01*
X58991Y-40600D01*
X58991Y-42300D01*
X59006Y-42379D01*
X59052Y-42447D01*
X59120Y-42493D01*
X59200Y-42509D01*
X59299Y-42509D01*
X59335Y-42545D01*
X59391Y-42568D01*
X59450Y-42568D01*
X60060Y-42568D01*
X60116Y-42545D01*
X60158Y-42503D01*
X60181Y-42447D01*
X60181Y-42388D01*
X60181Y-42152D01*
X60158Y-42096D01*
X60116Y-42054D01*
X60104Y-42050D01*
X60116Y-42045D01*
X60152Y-42009D01*
X60155Y-42009D01*
X60158Y-42011D01*
X60250Y-42049D01*
X60349Y-42050D01*
X60441Y-42012D01*
X60511Y-41941D01*
X60549Y-41849D01*
X60550Y-41750D01*
X60512Y-41658D01*
X60441Y-41588D01*
X60349Y-41550D01*
X60349Y-41550D01*
X60441Y-41512D01*
X60511Y-41441D01*
X60549Y-41349D01*
X60550Y-41250D01*
X60512Y-41158D01*
X60441Y-41088D01*
X60353Y-41051D01*
X60353Y-40274D01*
X60353Y-39886D01*
X59926Y-39886D01*
X59889Y-39923D01*
X59889Y-40131D01*
X59889Y-40191D01*
X59911Y-40246D01*
X59954Y-40288D01*
X60009Y-40311D01*
X60316Y-40311D01*
X60353Y-40274D01*
X60353Y-41051D01*
X60349Y-41050D01*
X60250Y-41049D01*
X60158Y-41087D01*
X60155Y-41091D01*
X60152Y-41091D01*
X60116Y-41054D01*
X60104Y-41050D01*
X60116Y-41045D01*
X60158Y-41003D01*
X60181Y-40947D01*
X60181Y-40837D01*
X60181Y-40762D01*
X60181Y-40652D01*
X60158Y-40596D01*
X60116Y-40554D01*
X60060Y-40531D01*
X60001Y-40531D01*
X59763Y-40531D01*
X59726Y-40569D01*
X59726Y-40799D01*
X60143Y-40799D01*
X60181Y-40762D01*
X60181Y-40837D01*
X60143Y-40800D01*
X59726Y-40800D01*
X59726Y-40808D01*
X59725Y-40808D01*
X59725Y-40800D01*
X59717Y-40800D01*
X59717Y-40799D01*
X59725Y-40799D01*
X59725Y-40569D01*
X59688Y-40531D01*
X59563Y-40531D01*
X59722Y-40372D01*
X59722Y-40372D01*
X59722Y-40372D01*
X59768Y-40304D01*
X59768Y-40304D01*
X59784Y-40225D01*
X59784Y-39925D01*
X59784Y-39472D01*
X59850Y-39499D01*
X59937Y-39500D01*
X59911Y-39525D01*
X59889Y-39580D01*
X59889Y-39640D01*
X59889Y-39848D01*
X59926Y-39885D01*
X60353Y-39885D01*
X60353Y-39498D01*
X60316Y-39460D01*
X60042Y-39460D01*
X60111Y-39391D01*
X60149Y-39299D01*
X60149Y-39295D01*
X60501Y-38943D01*
X60501Y-38943D01*
X60501Y-38943D01*
X60547Y-38875D01*
X60563Y-38796D01*
X60563Y-38796D01*
X60563Y-38795D01*
X60563Y-38539D01*
X60698Y-38539D01*
X60753Y-38516D01*
X60796Y-38474D01*
X60819Y-38419D01*
X60819Y-38359D01*
X60819Y-37808D01*
X60796Y-37753D01*
X60753Y-37711D01*
X60698Y-37688D01*
X60639Y-37688D01*
X60632Y-37688D01*
X60632Y-37259D01*
X60632Y-37200D01*
X60632Y-37070D01*
X60632Y-36995D01*
X60632Y-36865D01*
X60632Y-36806D01*
X60609Y-36751D01*
X60567Y-36708D01*
X60512Y-36686D01*
X60362Y-36686D01*
X60325Y-36723D01*
X60325Y-37032D01*
X60595Y-37032D01*
X60632Y-36995D01*
X60632Y-37070D01*
X60595Y-37033D01*
X60325Y-37033D01*
X60325Y-37342D01*
X60362Y-37380D01*
X60512Y-37380D01*
X60567Y-37357D01*
X60609Y-37314D01*
X60632Y-37259D01*
X60632Y-37688D01*
X60324Y-37688D01*
X60324Y-37342D01*
X60324Y-37033D01*
X60324Y-37032D01*
X60324Y-36723D01*
X60287Y-36686D01*
X60137Y-36686D01*
X60082Y-36708D01*
X60040Y-36751D01*
X60017Y-36806D01*
X60017Y-36865D01*
X60017Y-36995D01*
X60055Y-37032D01*
X60324Y-37032D01*
X60324Y-37033D01*
X60055Y-37033D01*
X60017Y-37070D01*
X60017Y-37200D01*
X60017Y-37259D01*
X60040Y-37314D01*
X60082Y-37357D01*
X60137Y-37380D01*
X60287Y-37380D01*
X60324Y-37342D01*
X60324Y-37688D01*
X60009Y-37688D01*
X59954Y-37711D01*
X59911Y-37753D01*
X59889Y-37808D01*
X59889Y-37868D01*
X59889Y-38419D01*
X59911Y-38474D01*
X59954Y-38516D01*
X60009Y-38539D01*
X60068Y-38539D01*
X60145Y-38539D01*
X60145Y-38709D01*
X59854Y-38999D01*
X59850Y-38999D01*
X59784Y-39027D01*
X59784Y-37371D01*
X59817Y-37357D01*
X59859Y-37314D01*
X59882Y-37259D01*
X59882Y-37200D01*
X59882Y-36806D01*
X59859Y-36751D01*
X59817Y-36708D01*
X59762Y-36686D01*
X59702Y-36686D01*
X59387Y-36686D01*
X59332Y-36708D01*
X59290Y-36751D01*
X59267Y-36806D01*
X59267Y-36865D01*
X59267Y-37259D01*
X59290Y-37314D01*
X59332Y-37357D01*
X59366Y-37371D01*
X59366Y-39027D01*
X59299Y-39000D01*
X59200Y-38999D01*
X59108Y-39037D01*
X59105Y-39041D01*
X58959Y-39041D01*
X58959Y-37100D01*
X58959Y-37099D01*
X58959Y-36648D01*
X58959Y-36350D01*
X58959Y-36350D01*
X58959Y-36350D01*
X58943Y-36270D01*
X58943Y-36270D01*
X58920Y-36236D01*
X58897Y-36202D01*
X58897Y-36202D01*
X58897Y-36202D01*
X58647Y-35952D01*
X58579Y-35906D01*
X58547Y-35900D01*
X58545Y-35897D01*
X58503Y-35854D01*
X58448Y-35832D01*
X58388Y-35832D01*
X57955Y-35832D01*
X57900Y-35854D01*
X57858Y-35897D01*
X57835Y-35952D01*
X57835Y-36011D01*
X57835Y-36247D01*
X57858Y-36302D01*
X57900Y-36345D01*
X57955Y-36368D01*
X58015Y-36368D01*
X58448Y-36368D01*
X58465Y-36360D01*
X58541Y-36436D01*
X58541Y-36640D01*
X58503Y-36602D01*
X58448Y-36580D01*
X58388Y-36580D01*
X57955Y-36580D01*
X57929Y-36591D01*
X57794Y-36591D01*
X57791Y-36588D01*
X57699Y-36550D01*
X57600Y-36549D01*
X57508Y-36587D01*
X57460Y-36635D01*
X57466Y-36621D01*
X57466Y-36511D01*
X57429Y-36474D01*
X57100Y-36474D01*
X57100Y-36482D01*
X57099Y-36482D01*
X57099Y-36474D01*
X56771Y-36474D01*
X56733Y-36511D01*
X56733Y-36621D01*
X56749Y-36661D01*
X56733Y-36700D01*
X56733Y-36759D01*
X56733Y-36995D01*
X56756Y-37050D01*
X56798Y-37093D01*
X56853Y-37116D01*
X56891Y-37116D01*
X56891Y-37255D01*
X56888Y-37258D01*
X56850Y-37350D01*
X56849Y-37449D01*
X56887Y-37541D01*
X56958Y-37611D01*
X57050Y-37649D01*
X57149Y-37650D01*
X57241Y-37612D01*
X57311Y-37541D01*
X57349Y-37449D01*
X57350Y-37350D01*
X57312Y-37258D01*
X57309Y-37255D01*
X57309Y-37116D01*
X57346Y-37116D01*
X57395Y-37095D01*
X57375Y-37145D01*
X57375Y-37204D01*
X57375Y-37362D01*
X57412Y-37399D01*
X57649Y-37399D01*
X57649Y-37391D01*
X57650Y-37391D01*
X57650Y-37399D01*
X57887Y-37399D01*
X57925Y-37362D01*
X57925Y-37204D01*
X57925Y-37145D01*
X57904Y-37094D01*
X57955Y-37116D01*
X57987Y-37116D01*
X57975Y-37145D01*
X57975Y-37204D01*
X57975Y-37654D01*
X57997Y-37709D01*
X58040Y-37752D01*
X58095Y-37775D01*
X58154Y-37775D01*
X58404Y-37775D01*
X58459Y-37752D01*
X58502Y-37709D01*
X58525Y-37654D01*
X58525Y-37595D01*
X58525Y-37594D01*
X58529Y-37593D01*
X58529Y-37593D01*
X58597Y-37547D01*
X58897Y-37247D01*
X58943Y-37179D01*
X58943Y-37179D01*
X58959Y-37100D01*
X58959Y-37100D01*
X58959Y-39041D01*
X58918Y-39041D01*
X58918Y-39040D01*
X58838Y-39056D01*
X58804Y-39079D01*
X58770Y-39102D01*
X58770Y-39102D01*
X58550Y-39322D01*
X57925Y-38697D01*
X57925Y-37654D01*
X57925Y-37595D01*
X57925Y-37437D01*
X57887Y-37400D01*
X57650Y-37400D01*
X57650Y-37737D01*
X57687Y-37775D01*
X57804Y-37775D01*
X57859Y-37752D01*
X57902Y-37709D01*
X57925Y-37654D01*
X57925Y-38697D01*
X57511Y-38283D01*
X57511Y-37808D01*
X57497Y-37775D01*
X57612Y-37775D01*
X57649Y-37737D01*
X57649Y-37400D01*
X57412Y-37400D01*
X57375Y-37437D01*
X57375Y-37595D01*
X57375Y-37654D01*
X57388Y-37688D01*
X57331Y-37688D01*
X56701Y-37688D01*
X56652Y-37708D01*
X56675Y-37654D01*
X56675Y-37595D01*
X56675Y-37345D01*
X56675Y-37054D01*
X56675Y-36937D01*
X56675Y-36862D01*
X56675Y-36745D01*
X56652Y-36690D01*
X56609Y-36647D01*
X56554Y-36625D01*
X56495Y-36625D01*
X56337Y-36625D01*
X56300Y-36662D01*
X56300Y-36899D01*
X56637Y-36899D01*
X56675Y-36862D01*
X56675Y-36937D01*
X56637Y-36900D01*
X56300Y-36900D01*
X56300Y-37137D01*
X56337Y-37175D01*
X56495Y-37175D01*
X56554Y-37175D01*
X56609Y-37152D01*
X56652Y-37109D01*
X56675Y-37054D01*
X56675Y-37345D01*
X56652Y-37290D01*
X56609Y-37247D01*
X56554Y-37225D01*
X56495Y-37225D01*
X56045Y-37225D01*
X55990Y-37247D01*
X55947Y-37290D01*
X55925Y-37345D01*
X55925Y-37404D01*
X55925Y-37654D01*
X55947Y-37709D01*
X55990Y-37752D01*
X56045Y-37775D01*
X56091Y-37775D01*
X56091Y-37963D01*
X55952Y-38102D01*
X55952Y-38102D01*
X55846Y-38207D01*
X55846Y-38084D01*
X55846Y-37777D01*
X55846Y-37702D01*
X55846Y-37395D01*
X55823Y-37340D01*
X55781Y-37297D01*
X55726Y-37275D01*
X55666Y-37275D01*
X55458Y-37275D01*
X55421Y-37312D01*
X55421Y-37739D01*
X55809Y-37739D01*
X55846Y-37702D01*
X55846Y-37777D01*
X55809Y-37740D01*
X55421Y-37740D01*
X55421Y-38167D01*
X55458Y-38205D01*
X55666Y-38205D01*
X55726Y-38205D01*
X55781Y-38182D01*
X55823Y-38139D01*
X55846Y-38084D01*
X55846Y-38207D01*
X55794Y-38259D01*
X55735Y-38259D01*
X55420Y-38259D01*
X55420Y-38167D01*
X55420Y-37740D01*
X55420Y-37739D01*
X55420Y-37312D01*
X55383Y-37275D01*
X55325Y-37275D01*
X55325Y-37054D01*
X55325Y-36995D01*
X55325Y-36545D01*
X55302Y-36490D01*
X55259Y-36447D01*
X55204Y-36425D01*
X55145Y-36425D01*
X54895Y-36425D01*
X54840Y-36447D01*
X54797Y-36490D01*
X54775Y-36545D01*
X54775Y-36581D01*
X54699Y-36550D01*
X54600Y-36549D01*
X54508Y-36587D01*
X54438Y-36658D01*
X54400Y-36750D01*
X54399Y-36849D01*
X54437Y-36941D01*
X54508Y-37011D01*
X54600Y-37049D01*
X54699Y-37050D01*
X54775Y-37018D01*
X54775Y-37054D01*
X54797Y-37109D01*
X54840Y-37152D01*
X54895Y-37175D01*
X54954Y-37175D01*
X55204Y-37175D01*
X55259Y-37152D01*
X55302Y-37109D01*
X55325Y-37054D01*
X55325Y-37275D01*
X55175Y-37275D01*
X55115Y-37275D01*
X55060Y-37297D01*
X55018Y-37340D01*
X54995Y-37395D01*
X54995Y-37702D01*
X55033Y-37739D01*
X55420Y-37739D01*
X55420Y-37740D01*
X55033Y-37740D01*
X54995Y-37777D01*
X54995Y-38084D01*
X55018Y-38139D01*
X55060Y-38182D01*
X55115Y-38205D01*
X55175Y-38205D01*
X55383Y-38205D01*
X55420Y-38167D01*
X55420Y-38259D01*
X55204Y-38259D01*
X55149Y-38282D01*
X55107Y-38324D01*
X55084Y-38379D01*
X55084Y-38439D01*
X55084Y-38596D01*
X55092Y-38616D01*
X55084Y-38635D01*
X55084Y-38695D01*
X55084Y-38852D01*
X55092Y-38872D01*
X55084Y-38891D01*
X55084Y-38951D01*
X55084Y-39108D01*
X55092Y-39128D01*
X55084Y-39147D01*
X55084Y-39207D01*
X55084Y-39364D01*
X55092Y-39384D01*
X55084Y-39403D01*
X55084Y-39474D01*
X55122Y-39511D01*
X55499Y-39511D01*
X55499Y-39503D01*
X55500Y-39503D01*
X55500Y-39511D01*
X55878Y-39511D01*
X55915Y-39474D01*
X55915Y-39403D01*
X55907Y-39383D01*
X55915Y-39364D01*
X55915Y-39304D01*
X55915Y-39147D01*
X55907Y-39127D01*
X55915Y-39108D01*
X55915Y-39048D01*
X55915Y-38891D01*
X55907Y-38871D01*
X55915Y-38852D01*
X55915Y-38792D01*
X55915Y-38686D01*
X55915Y-38686D01*
X55941Y-38681D01*
X55941Y-38681D01*
X56009Y-38635D01*
X56078Y-38567D01*
X56087Y-38591D01*
X56158Y-38661D01*
X56250Y-38699D01*
X56349Y-38700D01*
X56441Y-38662D01*
X56511Y-38591D01*
X56549Y-38499D01*
X56550Y-38400D01*
X56512Y-38308D01*
X56441Y-38238D01*
X56417Y-38228D01*
X56447Y-38197D01*
X56447Y-38197D01*
X56447Y-38197D01*
X56493Y-38129D01*
X56493Y-38129D01*
X56509Y-38050D01*
X56509Y-37775D01*
X56554Y-37775D01*
X56603Y-37754D01*
X56581Y-37808D01*
X56581Y-37868D01*
X56581Y-38419D01*
X56603Y-38474D01*
X56646Y-38516D01*
X56701Y-38539D01*
X56760Y-38539D01*
X57175Y-38539D01*
X58341Y-39704D01*
X58341Y-40637D01*
X58291Y-40588D01*
X58199Y-40550D01*
X58100Y-40549D01*
X58018Y-40583D01*
X57990Y-40554D01*
X57934Y-40531D01*
X57875Y-40531D01*
X57511Y-40531D01*
X57511Y-40191D01*
X57511Y-40131D01*
X57511Y-39923D01*
X57511Y-39848D01*
X57511Y-39640D01*
X57511Y-39580D01*
X57488Y-39525D01*
X57445Y-39483D01*
X57390Y-39460D01*
X57083Y-39460D01*
X57046Y-39498D01*
X57046Y-39885D01*
X57473Y-39885D01*
X57511Y-39848D01*
X57511Y-39923D01*
X57473Y-39886D01*
X57046Y-39886D01*
X57046Y-40274D01*
X57083Y-40311D01*
X57390Y-40311D01*
X57445Y-40288D01*
X57488Y-40246D01*
X57511Y-40191D01*
X57511Y-40531D01*
X57265Y-40531D01*
X57209Y-40554D01*
X57167Y-40596D01*
X57144Y-40652D01*
X57144Y-40709D01*
X57045Y-40808D01*
X57045Y-40274D01*
X57045Y-39886D01*
X57045Y-39885D01*
X57045Y-39498D01*
X57008Y-39460D01*
X56701Y-39460D01*
X56646Y-39483D01*
X56603Y-39525D01*
X56581Y-39580D01*
X56581Y-39640D01*
X56581Y-39848D01*
X56618Y-39885D01*
X57045Y-39885D01*
X57045Y-39886D01*
X56618Y-39886D01*
X56581Y-39923D01*
X56581Y-40131D01*
X56581Y-40191D01*
X56603Y-40246D01*
X56646Y-40288D01*
X56701Y-40311D01*
X57008Y-40311D01*
X57045Y-40274D01*
X57045Y-40808D01*
X57025Y-40829D01*
X57025Y-40787D01*
X57025Y-40712D01*
X57025Y-40595D01*
X57002Y-40540D01*
X56959Y-40497D01*
X56904Y-40475D01*
X56845Y-40475D01*
X56687Y-40475D01*
X56650Y-40512D01*
X56650Y-40749D01*
X56987Y-40749D01*
X57025Y-40712D01*
X57025Y-40787D01*
X56987Y-40750D01*
X56650Y-40750D01*
X56650Y-40987D01*
X56683Y-41020D01*
X56649Y-41054D01*
X56649Y-40987D01*
X56649Y-40750D01*
X56649Y-40749D01*
X56649Y-40512D01*
X56612Y-40475D01*
X56454Y-40475D01*
X56395Y-40475D01*
X56340Y-40497D01*
X56297Y-40540D01*
X56275Y-40595D01*
X56275Y-40712D01*
X56312Y-40749D01*
X56649Y-40749D01*
X56649Y-40750D01*
X56312Y-40750D01*
X56275Y-40787D01*
X56275Y-40904D01*
X56297Y-40959D01*
X56340Y-41002D01*
X56395Y-41025D01*
X56454Y-41025D01*
X56612Y-41025D01*
X56649Y-40987D01*
X56649Y-41054D01*
X56629Y-41075D01*
X56395Y-41075D01*
X56340Y-41097D01*
X56297Y-41140D01*
X56297Y-41141D01*
X56160Y-41141D01*
X56175Y-41104D01*
X56175Y-41045D01*
X56175Y-40795D01*
X56152Y-40740D01*
X56109Y-40697D01*
X56054Y-40675D01*
X55995Y-40675D01*
X55915Y-40675D01*
X55915Y-39620D01*
X55915Y-39549D01*
X55878Y-39512D01*
X55500Y-39512D01*
X55500Y-39703D01*
X55537Y-39740D01*
X55735Y-39740D01*
X55795Y-39740D01*
X55850Y-39717D01*
X55892Y-39675D01*
X55915Y-39620D01*
X55915Y-40675D01*
X55808Y-40675D01*
X55823Y-40659D01*
X55846Y-40604D01*
X55846Y-40297D01*
X55846Y-40222D01*
X55846Y-39915D01*
X55823Y-39860D01*
X55781Y-39817D01*
X55726Y-39795D01*
X55666Y-39795D01*
X55499Y-39795D01*
X55499Y-39703D01*
X55499Y-39512D01*
X55122Y-39512D01*
X55084Y-39549D01*
X55084Y-39620D01*
X55107Y-39675D01*
X55149Y-39717D01*
X55204Y-39740D01*
X55264Y-39740D01*
X55462Y-39740D01*
X55499Y-39703D01*
X55499Y-39795D01*
X55458Y-39795D01*
X55421Y-39832D01*
X55421Y-40259D01*
X55809Y-40259D01*
X55846Y-40222D01*
X55846Y-40297D01*
X55809Y-40260D01*
X55421Y-40260D01*
X55421Y-40687D01*
X55458Y-40725D01*
X55462Y-40725D01*
X55447Y-40740D01*
X55425Y-40795D01*
X55425Y-40811D01*
X55420Y-40812D01*
X55420Y-40687D01*
X55420Y-40260D01*
X55420Y-40259D01*
X55420Y-39832D01*
X55383Y-39795D01*
X55175Y-39795D01*
X55115Y-39795D01*
X55060Y-39817D01*
X55018Y-39860D01*
X54995Y-39915D01*
X54995Y-40222D01*
X55033Y-40259D01*
X55420Y-40259D01*
X55420Y-40260D01*
X55033Y-40260D01*
X54995Y-40297D01*
X54995Y-40604D01*
X55018Y-40659D01*
X55060Y-40702D01*
X55115Y-40725D01*
X55175Y-40725D01*
X55383Y-40725D01*
X55420Y-40687D01*
X55420Y-40812D01*
X55393Y-40818D01*
X55349Y-40800D01*
X55250Y-40799D01*
X55158Y-40837D01*
X55088Y-40908D01*
X55050Y-41000D01*
X55049Y-41099D01*
X55087Y-41191D01*
X55158Y-41261D01*
X55250Y-41299D01*
X55349Y-41300D01*
X55441Y-41262D01*
X55475Y-41228D01*
X55527Y-41217D01*
X55545Y-41225D01*
X55604Y-41225D01*
X55829Y-41225D01*
X55779Y-41275D01*
X55545Y-41275D01*
X55490Y-41297D01*
X55447Y-41340D01*
X55442Y-41352D01*
X55420Y-41356D01*
X55352Y-41402D01*
X55052Y-41702D01*
X55006Y-41770D01*
X54991Y-41850D01*
X54991Y-41973D01*
X54954Y-42009D01*
X54950Y-42021D01*
X54945Y-42009D01*
X54903Y-41967D01*
X54847Y-41944D01*
X54788Y-41944D01*
X54755Y-41944D01*
X54755Y-40607D01*
X54447Y-40299D01*
X54138Y-40607D01*
X54168Y-40682D01*
X54336Y-40760D01*
X54521Y-40767D01*
X54694Y-40703D01*
X54725Y-40682D01*
X54755Y-40607D01*
X54755Y-41944D01*
X54552Y-41944D01*
X54496Y-41967D01*
X54454Y-42009D01*
X54431Y-42065D01*
X54431Y-42124D01*
X54431Y-42163D01*
X54399Y-42150D01*
X54300Y-42149D01*
X54208Y-42187D01*
X54138Y-42258D01*
X54100Y-42350D01*
X54099Y-42449D01*
X54137Y-42541D01*
X54208Y-42611D01*
X54300Y-42649D01*
X54399Y-42650D01*
X54431Y-42636D01*
X54431Y-42725D01*
X54025Y-42725D01*
X54025Y-40498D01*
X54042Y-40546D01*
X54063Y-40577D01*
X54138Y-40607D01*
X54446Y-40299D01*
X54441Y-40293D01*
X54441Y-40293D01*
X54447Y-40298D01*
X54452Y-40293D01*
X54452Y-40293D01*
X54447Y-40299D01*
X54755Y-40607D01*
X54830Y-40577D01*
X54908Y-40409D01*
X54915Y-40224D01*
X54851Y-40051D01*
X54830Y-40020D01*
X54769Y-39996D01*
X54791Y-39996D01*
X54850Y-39996D01*
X54905Y-39973D01*
X54948Y-39930D01*
X54971Y-39875D01*
X54971Y-39509D01*
X54971Y-39434D01*
X54971Y-39068D01*
X54948Y-39013D01*
X54935Y-39000D01*
X54948Y-38986D01*
X54971Y-38931D01*
X54971Y-38565D01*
X54933Y-38528D01*
X54447Y-38528D01*
X54447Y-38985D01*
X54447Y-39014D01*
X54447Y-39471D01*
X54933Y-39471D01*
X54971Y-39434D01*
X54971Y-39509D01*
X54933Y-39472D01*
X54447Y-39472D01*
X54447Y-39480D01*
X54446Y-39480D01*
X54446Y-39472D01*
X54438Y-39472D01*
X54438Y-39471D01*
X54446Y-39471D01*
X54446Y-39014D01*
X54446Y-38985D01*
X54446Y-38528D01*
X54438Y-38528D01*
X54438Y-38527D01*
X54446Y-38527D01*
X54446Y-38519D01*
X54447Y-38519D01*
X54447Y-38527D01*
X54933Y-38527D01*
X54971Y-38490D01*
X54971Y-38124D01*
X54948Y-38069D01*
X54905Y-38026D01*
X54850Y-38004D01*
X54791Y-38004D01*
X54769Y-38004D01*
X54830Y-37979D01*
X54908Y-37811D01*
X54915Y-37626D01*
X54851Y-37453D01*
X54830Y-37422D01*
X54755Y-37392D01*
X54755Y-37392D01*
X54755Y-37392D01*
X54725Y-37317D01*
X54557Y-37239D01*
X54372Y-37232D01*
X54199Y-37296D01*
X54168Y-37317D01*
X54138Y-37392D01*
X54447Y-37700D01*
X54755Y-37392D01*
X54755Y-37392D01*
X54447Y-37701D01*
X54452Y-37706D01*
X54452Y-37706D01*
X54447Y-37701D01*
X54441Y-37706D01*
X54441Y-37706D01*
X54446Y-37701D01*
X54138Y-37392D01*
X54063Y-37422D01*
X54025Y-37505D01*
X54025Y-35725D01*
X55595Y-35725D01*
X55540Y-35747D01*
X55497Y-35790D01*
X55475Y-35845D01*
X55475Y-35904D01*
X55475Y-36354D01*
X55497Y-36409D01*
X55512Y-36425D01*
X55495Y-36425D01*
X55440Y-36447D01*
X55397Y-36490D01*
X55375Y-36545D01*
X55375Y-36604D01*
X55375Y-37054D01*
X55397Y-37109D01*
X55440Y-37152D01*
X55495Y-37175D01*
X55554Y-37175D01*
X55804Y-37175D01*
X55859Y-37152D01*
X55902Y-37109D01*
X55925Y-37054D01*
X55925Y-37054D01*
X55947Y-37109D01*
X55990Y-37152D01*
X56045Y-37175D01*
X56104Y-37175D01*
X56262Y-37175D01*
X56299Y-37137D01*
X56299Y-36900D01*
X55962Y-36900D01*
X55925Y-36937D01*
X55925Y-36862D01*
X55962Y-36899D01*
X56299Y-36899D01*
X56299Y-36662D01*
X56262Y-36625D01*
X56104Y-36625D01*
X56045Y-36625D01*
X55990Y-36647D01*
X55959Y-36678D01*
X55959Y-36452D01*
X55959Y-36452D01*
X56002Y-36409D01*
X56025Y-36354D01*
X56025Y-36295D01*
X56025Y-35845D01*
X56002Y-35790D01*
X55959Y-35747D01*
X55904Y-35725D01*
X56195Y-35725D01*
X56140Y-35747D01*
X56097Y-35790D01*
X56075Y-35845D01*
X56075Y-35904D01*
X56075Y-36354D01*
X56097Y-36409D01*
X56140Y-36452D01*
X56195Y-36475D01*
X56254Y-36475D01*
X56504Y-36475D01*
X56559Y-36452D01*
X56602Y-36409D01*
X56625Y-36354D01*
X56625Y-36309D01*
X56740Y-36309D01*
X56733Y-36326D01*
X56733Y-36436D01*
X56771Y-36473D01*
X57099Y-36473D01*
X57099Y-36465D01*
X57100Y-36465D01*
X57100Y-36473D01*
X57429Y-36473D01*
X57466Y-36436D01*
X57466Y-36326D01*
X57450Y-36286D01*
X57466Y-36247D01*
X57466Y-36188D01*
X57466Y-35952D01*
X57443Y-35897D01*
X57401Y-35854D01*
X57346Y-35832D01*
X57286Y-35832D01*
X56853Y-35832D01*
X56798Y-35854D01*
X56762Y-35891D01*
X56625Y-35891D01*
X56625Y-35845D01*
X56602Y-35790D01*
X56559Y-35747D01*
X56504Y-35725D01*
X62125Y-35725D01*
X62125Y-42725D01*
X62125Y-42725D01*
G37*
G54D25*
X62125Y-42725D02*
X61987Y-42725D01*
X61987Y-41972D01*
X61984Y-41963D01*
X61984Y-40954D01*
X61910Y-40775D01*
X61774Y-40639D01*
X61709Y-40612D01*
X61709Y-39937D01*
X61774Y-39910D01*
X61910Y-39774D01*
X61984Y-39596D01*
X61984Y-39404D01*
X61984Y-38404D01*
X61910Y-38225D01*
X61774Y-38089D01*
X61659Y-38041D01*
X61659Y-37375D01*
X61704Y-37375D01*
X61759Y-37352D01*
X61802Y-37309D01*
X61825Y-37254D01*
X61825Y-37195D01*
X61825Y-36945D01*
X61825Y-36654D01*
X61825Y-36595D01*
X61825Y-36345D01*
X61802Y-36290D01*
X61759Y-36247D01*
X61704Y-36225D01*
X61645Y-36225D01*
X61470Y-36225D01*
X61264Y-36019D01*
X61196Y-35973D01*
X61117Y-35958D01*
X60257Y-35958D01*
X60257Y-35940D01*
X60234Y-35885D01*
X60192Y-35842D01*
X60137Y-35820D01*
X60077Y-35820D01*
X59762Y-35820D01*
X59707Y-35842D01*
X59665Y-35885D01*
X59642Y-35940D01*
X59642Y-35999D01*
X59642Y-36393D01*
X59665Y-36448D01*
X59707Y-36491D01*
X59762Y-36514D01*
X59822Y-36514D01*
X60137Y-36514D01*
X60192Y-36491D01*
X60234Y-36448D01*
X60257Y-36393D01*
X60257Y-36376D01*
X61030Y-36376D01*
X61075Y-36420D01*
X61075Y-36654D01*
X61097Y-36709D01*
X61140Y-36752D01*
X61195Y-36775D01*
X61254Y-36775D01*
X61704Y-36775D01*
X61759Y-36752D01*
X61802Y-36709D01*
X61825Y-36654D01*
X61825Y-36945D01*
X61802Y-36890D01*
X61759Y-36847D01*
X61704Y-36825D01*
X61645Y-36825D01*
X61195Y-36825D01*
X61140Y-36847D01*
X61097Y-36890D01*
X61075Y-36945D01*
X61075Y-37004D01*
X61075Y-37254D01*
X61097Y-37309D01*
X61140Y-37352D01*
X61195Y-37375D01*
X61241Y-37375D01*
X61241Y-38082D01*
X61225Y-38089D01*
X61089Y-38225D01*
X61015Y-38403D01*
X61015Y-38595D01*
X61089Y-38774D01*
X61225Y-38910D01*
X61403Y-38984D01*
X61595Y-38984D01*
X61774Y-38910D01*
X61910Y-38774D01*
X61984Y-38596D01*
X61984Y-38404D01*
X61984Y-39404D01*
X61910Y-39225D01*
X61774Y-39089D01*
X61596Y-39015D01*
X61404Y-39015D01*
X61225Y-39089D01*
X61089Y-39225D01*
X61015Y-39403D01*
X61015Y-39595D01*
X61089Y-39774D01*
X61225Y-39910D01*
X61291Y-39937D01*
X61291Y-40612D01*
X61225Y-40639D01*
X61089Y-40775D01*
X61015Y-40953D01*
X61015Y-41145D01*
X61089Y-41324D01*
X61225Y-41460D01*
X61403Y-41534D01*
X61595Y-41534D01*
X61774Y-41460D01*
X61910Y-41324D01*
X61984Y-41146D01*
X61984Y-40954D01*
X61984Y-41963D01*
X61921Y-41791D01*
X61899Y-41759D01*
X61822Y-41727D01*
X61822Y-41727D01*
X61822Y-41727D01*
X61790Y-41650D01*
X61615Y-41569D01*
X61422Y-41562D01*
X61241Y-41628D01*
X61209Y-41650D01*
X61177Y-41727D01*
X61500Y-42049D01*
X61822Y-41727D01*
X61822Y-41727D01*
X61500Y-42050D01*
X61822Y-42372D01*
X61899Y-42340D01*
X61980Y-42165D01*
X61987Y-41972D01*
X61987Y-42725D01*
X61822Y-42725D01*
X61822Y-42372D01*
X61500Y-42050D01*
X61499Y-42050D01*
X61499Y-42050D01*
X61177Y-41727D01*
X61100Y-41759D01*
X61019Y-41934D01*
X61012Y-42127D01*
X61078Y-42308D01*
X61100Y-42340D01*
X61177Y-42372D01*
X61499Y-42050D01*
X61499Y-42050D01*
X61177Y-42372D01*
X61209Y-42449D01*
X61384Y-42530D01*
X61577Y-42537D01*
X61758Y-42471D01*
X61790Y-42449D01*
X61822Y-42372D01*
X61822Y-42725D01*
X60819Y-42725D01*
X60819Y-40191D01*
X60819Y-40131D01*
X60819Y-39923D01*
X60819Y-39848D01*
X60819Y-39640D01*
X60819Y-39580D01*
X60796Y-39525D01*
X60753Y-39483D01*
X60698Y-39460D01*
X60391Y-39460D01*
X60354Y-39498D01*
X60354Y-39885D01*
X60781Y-39885D01*
X60819Y-39848D01*
X60819Y-39923D01*
X60781Y-39886D01*
X60354Y-39886D01*
X60354Y-40274D01*
X60391Y-40311D01*
X60698Y-40311D01*
X60753Y-40288D01*
X60796Y-40246D01*
X60819Y-40191D01*
X60819Y-42725D01*
X57839Y-42725D01*
X57849Y-42699D01*
X57850Y-42600D01*
X57836Y-42568D01*
X57934Y-42568D01*
X57990Y-42545D01*
X58032Y-42503D01*
X58055Y-42447D01*
X58055Y-42388D01*
X58055Y-42152D01*
X58032Y-42096D01*
X57990Y-42054D01*
X57978Y-42050D01*
X57990Y-42045D01*
X58032Y-42003D01*
X58055Y-41947D01*
X58055Y-41888D01*
X58055Y-41652D01*
X58032Y-41596D01*
X57990Y-41554D01*
X57978Y-41550D01*
X57990Y-41545D01*
X58019Y-41516D01*
X58100Y-41549D01*
X58199Y-41550D01*
X58291Y-41512D01*
X58294Y-41509D01*
X58550Y-41509D01*
X58629Y-41493D01*
X58697Y-41447D01*
X58743Y-41379D01*
X58759Y-41300D01*
X58759Y-40700D01*
X58759Y-39704D01*
X59004Y-39459D01*
X59105Y-39459D01*
X59108Y-39461D01*
X59200Y-39499D01*
X59299Y-39500D01*
X59366Y-39472D01*
X59366Y-39925D01*
X59366Y-40138D01*
X59052Y-40452D01*
X59006Y-40520D01*
X58991Y-40600D01*
X58991Y-42300D01*
X59006Y-42379D01*
X59052Y-42447D01*
X59120Y-42493D01*
X59200Y-42509D01*
X59299Y-42509D01*
X59335Y-42545D01*
X59391Y-42568D01*
X59450Y-42568D01*
X60060Y-42568D01*
X60116Y-42545D01*
X60158Y-42503D01*
X60181Y-42447D01*
X60181Y-42388D01*
X60181Y-42152D01*
X60158Y-42096D01*
X60116Y-42054D01*
X60104Y-42050D01*
X60116Y-42045D01*
X60152Y-42009D01*
X60155Y-42009D01*
X60158Y-42011D01*
X60250Y-42049D01*
X60349Y-42050D01*
X60441Y-42012D01*
X60511Y-41941D01*
X60549Y-41849D01*
X60550Y-41750D01*
X60512Y-41658D01*
X60441Y-41588D01*
X60349Y-41550D01*
X60349Y-41550D01*
X60441Y-41512D01*
X60511Y-41441D01*
X60549Y-41349D01*
X60550Y-41250D01*
X60512Y-41158D01*
X60441Y-41088D01*
X60353Y-41051D01*
X60353Y-40274D01*
X60353Y-39886D01*
X59926Y-39886D01*
X59889Y-39923D01*
X59889Y-40131D01*
X59889Y-40191D01*
X59911Y-40246D01*
X59954Y-40288D01*
X60009Y-40311D01*
X60316Y-40311D01*
X60353Y-40274D01*
X60353Y-41051D01*
X60349Y-41050D01*
X60250Y-41049D01*
X60158Y-41087D01*
X60155Y-41091D01*
X60152Y-41091D01*
X60116Y-41054D01*
X60104Y-41050D01*
X60116Y-41045D01*
X60158Y-41003D01*
X60181Y-40947D01*
X60181Y-40837D01*
X60181Y-40762D01*
X60181Y-40652D01*
X60158Y-40596D01*
X60116Y-40554D01*
X60060Y-40531D01*
X60001Y-40531D01*
X59763Y-40531D01*
X59726Y-40569D01*
X59726Y-40799D01*
X60143Y-40799D01*
X60181Y-40762D01*
X60181Y-40837D01*
X60143Y-40800D01*
X59726Y-40800D01*
X59726Y-40808D01*
X59725Y-40808D01*
X59725Y-40800D01*
X59717Y-40800D01*
X59717Y-40799D01*
X59725Y-40799D01*
X59725Y-40569D01*
X59688Y-40531D01*
X59563Y-40531D01*
X59722Y-40372D01*
X59722Y-40372D01*
X59722Y-40372D01*
X59768Y-40304D01*
X59768Y-40304D01*
X59784Y-40225D01*
X59784Y-39925D01*
X59784Y-39472D01*
X59850Y-39499D01*
X59937Y-39500D01*
X59911Y-39525D01*
X59889Y-39580D01*
X59889Y-39640D01*
X59889Y-39848D01*
X59926Y-39885D01*
X60353Y-39885D01*
X60353Y-39498D01*
X60316Y-39460D01*
X60042Y-39460D01*
X60111Y-39391D01*
X60149Y-39299D01*
X60149Y-39295D01*
X60501Y-38943D01*
X60501Y-38943D01*
X60501Y-38943D01*
X60547Y-38875D01*
X60563Y-38796D01*
X60563Y-38796D01*
X60563Y-38795D01*
X60563Y-38539D01*
X60698Y-38539D01*
X60753Y-38516D01*
X60796Y-38474D01*
X60819Y-38419D01*
X60819Y-38359D01*
X60819Y-37808D01*
X60796Y-37753D01*
X60753Y-37711D01*
X60698Y-37688D01*
X60639Y-37688D01*
X60632Y-37688D01*
X60632Y-37259D01*
X60632Y-37200D01*
X60632Y-37070D01*
X60632Y-36995D01*
X60632Y-36865D01*
X60632Y-36806D01*
X60609Y-36751D01*
X60567Y-36708D01*
X60512Y-36686D01*
X60362Y-36686D01*
X60325Y-36723D01*
X60325Y-37032D01*
X60595Y-37032D01*
X60632Y-36995D01*
X60632Y-37070D01*
X60595Y-37033D01*
X60325Y-37033D01*
X60325Y-37342D01*
X60362Y-37380D01*
X60512Y-37380D01*
X60567Y-37357D01*
X60609Y-37314D01*
X60632Y-37259D01*
X60632Y-37688D01*
X60324Y-37688D01*
X60324Y-37342D01*
X60324Y-37033D01*
X60324Y-37032D01*
X60324Y-36723D01*
X60287Y-36686D01*
X60137Y-36686D01*
X60082Y-36708D01*
X60040Y-36751D01*
X60017Y-36806D01*
X60017Y-36865D01*
X60017Y-36995D01*
X60055Y-37032D01*
X60324Y-37032D01*
X60324Y-37033D01*
X60055Y-37033D01*
X60017Y-37070D01*
X60017Y-37200D01*
X60017Y-37259D01*
X60040Y-37314D01*
X60082Y-37357D01*
X60137Y-37380D01*
X60287Y-37380D01*
X60324Y-37342D01*
X60324Y-37688D01*
X60009Y-37688D01*
X59954Y-37711D01*
X59911Y-37753D01*
X59889Y-37808D01*
X59889Y-37868D01*
X59889Y-38419D01*
X59911Y-38474D01*
X59954Y-38516D01*
X60009Y-38539D01*
X60068Y-38539D01*
X60145Y-38539D01*
X60145Y-38709D01*
X59854Y-38999D01*
X59850Y-38999D01*
X59784Y-39027D01*
X59784Y-37371D01*
X59817Y-37357D01*
X59859Y-37314D01*
X59882Y-37259D01*
X59882Y-37200D01*
X59882Y-36806D01*
X59859Y-36751D01*
X59817Y-36708D01*
X59762Y-36686D01*
X59702Y-36686D01*
X59387Y-36686D01*
X59332Y-36708D01*
X59290Y-36751D01*
X59267Y-36806D01*
X59267Y-36865D01*
X59267Y-37259D01*
X59290Y-37314D01*
X59332Y-37357D01*
X59366Y-37371D01*
X59366Y-39027D01*
X59299Y-39000D01*
X59200Y-38999D01*
X59108Y-39037D01*
X59105Y-39041D01*
X58959Y-39041D01*
X58959Y-37100D01*
X58959Y-37099D01*
X58959Y-36648D01*
X58959Y-36350D01*
X58959Y-36350D01*
X58959Y-36350D01*
X58943Y-36270D01*
X58943Y-36270D01*
X58920Y-36236D01*
X58897Y-36202D01*
X58897Y-36202D01*
X58897Y-36202D01*
X58647Y-35952D01*
X58579Y-35906D01*
X58547Y-35900D01*
X58545Y-35897D01*
X58503Y-35854D01*
X58448Y-35832D01*
X58388Y-35832D01*
X57955Y-35832D01*
X57900Y-35854D01*
X57858Y-35897D01*
X57835Y-35952D01*
X57835Y-36011D01*
X57835Y-36247D01*
X57858Y-36302D01*
X57900Y-36345D01*
X57955Y-36368D01*
X58015Y-36368D01*
X58448Y-36368D01*
X58465Y-36360D01*
X58541Y-36436D01*
X58541Y-36640D01*
X58503Y-36602D01*
X58448Y-36580D01*
X58388Y-36580D01*
X57955Y-36580D01*
X57929Y-36591D01*
X57794Y-36591D01*
X57791Y-36588D01*
X57699Y-36550D01*
X57600Y-36549D01*
X57508Y-36587D01*
X57460Y-36635D01*
X57466Y-36621D01*
X57466Y-36511D01*
X57429Y-36474D01*
X57100Y-36474D01*
X57100Y-36482D01*
X57099Y-36482D01*
X57099Y-36474D01*
X56771Y-36474D01*
X56733Y-36511D01*
X56733Y-36621D01*
X56749Y-36661D01*
X56733Y-36700D01*
X56733Y-36759D01*
X56733Y-36995D01*
X56756Y-37050D01*
X56798Y-37093D01*
X56853Y-37116D01*
X56891Y-37116D01*
X56891Y-37255D01*
X56888Y-37258D01*
X56850Y-37350D01*
X56849Y-37449D01*
X56887Y-37541D01*
X56958Y-37611D01*
X57050Y-37649D01*
X57149Y-37650D01*
X57241Y-37612D01*
X57311Y-37541D01*
X57349Y-37449D01*
X57350Y-37350D01*
X57312Y-37258D01*
X57309Y-37255D01*
X57309Y-37116D01*
X57346Y-37116D01*
X57395Y-37095D01*
X57375Y-37145D01*
X57375Y-37204D01*
X57375Y-37362D01*
X57412Y-37399D01*
X57649Y-37399D01*
X57649Y-37391D01*
X57650Y-37391D01*
X57650Y-37399D01*
X57887Y-37399D01*
X57925Y-37362D01*
X57925Y-37204D01*
X57925Y-37145D01*
X57904Y-37094D01*
X57955Y-37116D01*
X57987Y-37116D01*
X57975Y-37145D01*
X57975Y-37204D01*
X57975Y-37654D01*
X57997Y-37709D01*
X58040Y-37752D01*
X58095Y-37775D01*
X58154Y-37775D01*
X58404Y-37775D01*
X58459Y-37752D01*
X58502Y-37709D01*
X58525Y-37654D01*
X58525Y-37595D01*
X58525Y-37594D01*
X58529Y-37593D01*
X58529Y-37593D01*
X58597Y-37547D01*
X58897Y-37247D01*
X58943Y-37179D01*
X58943Y-37179D01*
X58959Y-37100D01*
X58959Y-37100D01*
X58959Y-39041D01*
X58918Y-39041D01*
X58918Y-39040D01*
X58838Y-39056D01*
X58804Y-39079D01*
X58770Y-39102D01*
X58770Y-39102D01*
X58550Y-39322D01*
X57925Y-38697D01*
X57925Y-37654D01*
X57925Y-37595D01*
X57925Y-37437D01*
X57887Y-37400D01*
X57650Y-37400D01*
X57650Y-37737D01*
X57687Y-37775D01*
X57804Y-37775D01*
X57859Y-37752D01*
X57902Y-37709D01*
X57925Y-37654D01*
X57925Y-38697D01*
X57511Y-38283D01*
X57511Y-37808D01*
X57497Y-37775D01*
X57612Y-37775D01*
X57649Y-37737D01*
X57649Y-37400D01*
X57412Y-37400D01*
X57375Y-37437D01*
X57375Y-37595D01*
X57375Y-37654D01*
X57388Y-37688D01*
X57331Y-37688D01*
X56701Y-37688D01*
X56652Y-37708D01*
X56675Y-37654D01*
X56675Y-37595D01*
X56675Y-37345D01*
X56675Y-37054D01*
X56675Y-36937D01*
X56675Y-36862D01*
X56675Y-36745D01*
X56652Y-36690D01*
X56609Y-36647D01*
X56554Y-36625D01*
X56495Y-36625D01*
X56337Y-36625D01*
X56300Y-36662D01*
X56300Y-36899D01*
X56637Y-36899D01*
X56675Y-36862D01*
X56675Y-36937D01*
X56637Y-36900D01*
X56300Y-36900D01*
X56300Y-37137D01*
X56337Y-37175D01*
X56495Y-37175D01*
X56554Y-37175D01*
X56609Y-37152D01*
X56652Y-37109D01*
X56675Y-37054D01*
X56675Y-37345D01*
X56652Y-37290D01*
X56609Y-37247D01*
X56554Y-37225D01*
X56495Y-37225D01*
X56045Y-37225D01*
X55990Y-37247D01*
X55947Y-37290D01*
X55925Y-37345D01*
X55925Y-37404D01*
X55925Y-37654D01*
X55947Y-37709D01*
X55990Y-37752D01*
X56045Y-37775D01*
X56091Y-37775D01*
X56091Y-37963D01*
X55952Y-38102D01*
X55952Y-38102D01*
X55846Y-38207D01*
X55846Y-38084D01*
X55846Y-37777D01*
X55846Y-37702D01*
X55846Y-37395D01*
X55823Y-37340D01*
X55781Y-37297D01*
X55726Y-37275D01*
X55666Y-37275D01*
X55458Y-37275D01*
X55421Y-37312D01*
X55421Y-37739D01*
X55809Y-37739D01*
X55846Y-37702D01*
X55846Y-37777D01*
X55809Y-37740D01*
X55421Y-37740D01*
X55421Y-38167D01*
X55458Y-38205D01*
X55666Y-38205D01*
X55726Y-38205D01*
X55781Y-38182D01*
X55823Y-38139D01*
X55846Y-38084D01*
X55846Y-38207D01*
X55794Y-38259D01*
X55735Y-38259D01*
X55420Y-38259D01*
X55420Y-38167D01*
X55420Y-37740D01*
X55420Y-37739D01*
X55420Y-37312D01*
X55383Y-37275D01*
X55325Y-37275D01*
X55325Y-37054D01*
X55325Y-36995D01*
X55325Y-36545D01*
X55302Y-36490D01*
X55259Y-36447D01*
X55204Y-36425D01*
X55145Y-36425D01*
X54895Y-36425D01*
X54840Y-36447D01*
X54797Y-36490D01*
X54775Y-36545D01*
X54775Y-36581D01*
X54699Y-36550D01*
X54600Y-36549D01*
X54508Y-36587D01*
X54438Y-36658D01*
X54400Y-36750D01*
X54399Y-36849D01*
X54437Y-36941D01*
X54508Y-37011D01*
X54600Y-37049D01*
X54699Y-37050D01*
X54775Y-37018D01*
X54775Y-37054D01*
X54797Y-37109D01*
X54840Y-37152D01*
X54895Y-37175D01*
X54954Y-37175D01*
X55204Y-37175D01*
X55259Y-37152D01*
X55302Y-37109D01*
X55325Y-37054D01*
X55325Y-37275D01*
X55175Y-37275D01*
X55115Y-37275D01*
X55060Y-37297D01*
X55018Y-37340D01*
X54995Y-37395D01*
X54995Y-37702D01*
X55033Y-37739D01*
X55420Y-37739D01*
X55420Y-37740D01*
X55033Y-37740D01*
X54995Y-37777D01*
X54995Y-38084D01*
X55018Y-38139D01*
X55060Y-38182D01*
X55115Y-38205D01*
X55175Y-38205D01*
X55383Y-38205D01*
X55420Y-38167D01*
X55420Y-38259D01*
X55204Y-38259D01*
X55149Y-38282D01*
X55107Y-38324D01*
X55084Y-38379D01*
X55084Y-38439D01*
X55084Y-38596D01*
X55092Y-38616D01*
X55084Y-38635D01*
X55084Y-38695D01*
X55084Y-38852D01*
X55092Y-38872D01*
X55084Y-38891D01*
X55084Y-38951D01*
X55084Y-39108D01*
X55092Y-39128D01*
X55084Y-39147D01*
X55084Y-39207D01*
X55084Y-39364D01*
X55092Y-39384D01*
X55084Y-39403D01*
X55084Y-39474D01*
X55122Y-39511D01*
X55499Y-39511D01*
X55499Y-39503D01*
X55500Y-39503D01*
X55500Y-39511D01*
X55878Y-39511D01*
X55915Y-39474D01*
X55915Y-39403D01*
X55907Y-39383D01*
X55915Y-39364D01*
X55915Y-39304D01*
X55915Y-39147D01*
X55907Y-39127D01*
X55915Y-39108D01*
X55915Y-39048D01*
X55915Y-38891D01*
X55907Y-38871D01*
X55915Y-38852D01*
X55915Y-38792D01*
X55915Y-38686D01*
X55915Y-38686D01*
X55941Y-38681D01*
X55941Y-38681D01*
X56009Y-38635D01*
X56078Y-38567D01*
X56087Y-38591D01*
X56158Y-38661D01*
X56250Y-38699D01*
X56349Y-38700D01*
X56441Y-38662D01*
X56511Y-38591D01*
X56549Y-38499D01*
X56550Y-38400D01*
X56512Y-38308D01*
X56441Y-38238D01*
X56417Y-38228D01*
X56447Y-38197D01*
X56447Y-38197D01*
X56447Y-38197D01*
X56493Y-38129D01*
X56493Y-38129D01*
X56509Y-38050D01*
X56509Y-37775D01*
X56554Y-37775D01*
X56603Y-37754D01*
X56581Y-37808D01*
X56581Y-37868D01*
X56581Y-38419D01*
X56603Y-38474D01*
X56646Y-38516D01*
X56701Y-38539D01*
X56760Y-38539D01*
X57175Y-38539D01*
X58341Y-39704D01*
X58341Y-40637D01*
X58291Y-40588D01*
X58199Y-40550D01*
X58100Y-40549D01*
X58018Y-40583D01*
X57990Y-40554D01*
X57934Y-40531D01*
X57875Y-40531D01*
X57511Y-40531D01*
X57511Y-40191D01*
X57511Y-40131D01*
X57511Y-39923D01*
X57511Y-39848D01*
X57511Y-39640D01*
X57511Y-39580D01*
X57488Y-39525D01*
X57445Y-39483D01*
X57390Y-39460D01*
X57083Y-39460D01*
X57046Y-39498D01*
X57046Y-39885D01*
X57473Y-39885D01*
X57511Y-39848D01*
X57511Y-39923D01*
X57473Y-39886D01*
X57046Y-39886D01*
X57046Y-40274D01*
X57083Y-40311D01*
X57390Y-40311D01*
X57445Y-40288D01*
X57488Y-40246D01*
X57511Y-40191D01*
X57511Y-40531D01*
X57265Y-40531D01*
X57209Y-40554D01*
X57167Y-40596D01*
X57144Y-40652D01*
X57144Y-40709D01*
X57045Y-40808D01*
X57045Y-40274D01*
X57045Y-39886D01*
X57045Y-39885D01*
X57045Y-39498D01*
X57008Y-39460D01*
X56701Y-39460D01*
X56646Y-39483D01*
X56603Y-39525D01*
X56581Y-39580D01*
X56581Y-39640D01*
X56581Y-39848D01*
X56618Y-39885D01*
X57045Y-39885D01*
X57045Y-39886D01*
X56618Y-39886D01*
X56581Y-39923D01*
X56581Y-40131D01*
X56581Y-40191D01*
X56603Y-40246D01*
X56646Y-40288D01*
X56701Y-40311D01*
X57008Y-40311D01*
X57045Y-40274D01*
X57045Y-40808D01*
X57025Y-40829D01*
X57025Y-40787D01*
X57025Y-40712D01*
X57025Y-40595D01*
X57002Y-40540D01*
X56959Y-40497D01*
X56904Y-40475D01*
X56845Y-40475D01*
X56687Y-40475D01*
X56650Y-40512D01*
X56650Y-40749D01*
X56987Y-40749D01*
X57025Y-40712D01*
X57025Y-40787D01*
X56987Y-40750D01*
X56650Y-40750D01*
X56650Y-40987D01*
X56683Y-41020D01*
X56649Y-41054D01*
X56649Y-40987D01*
X56649Y-40750D01*
X56649Y-40749D01*
X56649Y-40512D01*
X56612Y-40475D01*
X56454Y-40475D01*
X56395Y-40475D01*
X56340Y-40497D01*
X56297Y-40540D01*
X56275Y-40595D01*
X56275Y-40712D01*
X56312Y-40749D01*
X56649Y-40749D01*
X56649Y-40750D01*
X56312Y-40750D01*
X56275Y-40787D01*
X56275Y-40904D01*
X56297Y-40959D01*
X56340Y-41002D01*
X56395Y-41025D01*
X56454Y-41025D01*
X56612Y-41025D01*
X56649Y-40987D01*
X56649Y-41054D01*
X56629Y-41075D01*
X56395Y-41075D01*
X56340Y-41097D01*
X56297Y-41140D01*
X56297Y-41141D01*
X56160Y-41141D01*
X56175Y-41104D01*
X56175Y-41045D01*
X56175Y-40795D01*
X56152Y-40740D01*
X56109Y-40697D01*
X56054Y-40675D01*
X55995Y-40675D01*
X55915Y-40675D01*
X55915Y-39620D01*
X55915Y-39549D01*
X55878Y-39512D01*
X55500Y-39512D01*
X55500Y-39703D01*
X55537Y-39740D01*
X55735Y-39740D01*
X55795Y-39740D01*
X55850Y-39717D01*
X55892Y-39675D01*
X55915Y-39620D01*
X55915Y-40675D01*
X55808Y-40675D01*
X55823Y-40659D01*
X55846Y-40604D01*
X55846Y-40297D01*
X55846Y-40222D01*
X55846Y-39915D01*
X55823Y-39860D01*
X55781Y-39817D01*
X55726Y-39795D01*
X55666Y-39795D01*
X55499Y-39795D01*
X55499Y-39703D01*
X55499Y-39512D01*
X55122Y-39512D01*
X55084Y-39549D01*
X55084Y-39620D01*
X55107Y-39675D01*
X55149Y-39717D01*
X55204Y-39740D01*
X55264Y-39740D01*
X55462Y-39740D01*
X55499Y-39703D01*
X55499Y-39795D01*
X55458Y-39795D01*
X55421Y-39832D01*
X55421Y-40259D01*
X55809Y-40259D01*
X55846Y-40222D01*
X55846Y-40297D01*
X55809Y-40260D01*
X55421Y-40260D01*
X55421Y-40687D01*
X55458Y-40725D01*
X55462Y-40725D01*
X55447Y-40740D01*
X55425Y-40795D01*
X55425Y-40811D01*
X55420Y-40812D01*
X55420Y-40687D01*
X55420Y-40260D01*
X55420Y-40259D01*
X55420Y-39832D01*
X55383Y-39795D01*
X55175Y-39795D01*
X55115Y-39795D01*
X55060Y-39817D01*
X55018Y-39860D01*
X54995Y-39915D01*
X54995Y-40222D01*
X55033Y-40259D01*
X55420Y-40259D01*
X55420Y-40260D01*
X55033Y-40260D01*
X54995Y-40297D01*
X54995Y-40604D01*
X55018Y-40659D01*
X55060Y-40702D01*
X55115Y-40725D01*
X55175Y-40725D01*
X55383Y-40725D01*
X55420Y-40687D01*
X55420Y-40812D01*
X55393Y-40818D01*
X55349Y-40800D01*
X55250Y-40799D01*
X55158Y-40837D01*
X55088Y-40908D01*
X55050Y-41000D01*
X55049Y-41099D01*
X55087Y-41191D01*
X55158Y-41261D01*
X55250Y-41299D01*
X55349Y-41300D01*
X55441Y-41262D01*
X55475Y-41228D01*
X55527Y-41217D01*
X55545Y-41225D01*
X55604Y-41225D01*
X55829Y-41225D01*
X55779Y-41275D01*
X55545Y-41275D01*
X55490Y-41297D01*
X55447Y-41340D01*
X55442Y-41352D01*
X55420Y-41356D01*
X55352Y-41402D01*
X55052Y-41702D01*
X55006Y-41770D01*
X54991Y-41850D01*
X54991Y-41973D01*
X54954Y-42009D01*
X54950Y-42021D01*
X54945Y-42009D01*
X54903Y-41967D01*
X54847Y-41944D01*
X54788Y-41944D01*
X54755Y-41944D01*
X54755Y-40607D01*
X54447Y-40299D01*
X54138Y-40607D01*
X54168Y-40682D01*
X54336Y-40760D01*
X54521Y-40767D01*
X54694Y-40703D01*
X54725Y-40682D01*
X54755Y-40607D01*
X54755Y-41944D01*
X54552Y-41944D01*
X54496Y-41967D01*
X54454Y-42009D01*
X54431Y-42065D01*
X54431Y-42124D01*
X54431Y-42163D01*
X54399Y-42150D01*
X54300Y-42149D01*
X54208Y-42187D01*
X54138Y-42258D01*
X54100Y-42350D01*
X54099Y-42449D01*
X54137Y-42541D01*
X54208Y-42611D01*
X54300Y-42649D01*
X54399Y-42650D01*
X54431Y-42636D01*
X54431Y-42725D01*
X54025Y-42725D01*
X54025Y-40498D01*
X54042Y-40546D01*
X54063Y-40577D01*
X54138Y-40607D01*
X54446Y-40299D01*
X54441Y-40293D01*
X54441Y-40293D01*
X54447Y-40298D01*
X54452Y-40293D01*
X54452Y-40293D01*
X54447Y-40299D01*
X54755Y-40607D01*
X54830Y-40577D01*
X54908Y-40409D01*
X54915Y-40224D01*
X54851Y-40051D01*
X54830Y-40020D01*
X54769Y-39996D01*
X54791Y-39996D01*
X54850Y-39996D01*
X54905Y-39973D01*
X54948Y-39930D01*
X54971Y-39875D01*
X54971Y-39509D01*
X54971Y-39434D01*
X54971Y-39068D01*
X54948Y-39013D01*
X54935Y-39000D01*
X54948Y-38986D01*
X54971Y-38931D01*
X54971Y-38565D01*
X54933Y-38528D01*
X54447Y-38528D01*
X54447Y-38985D01*
X54447Y-39014D01*
X54447Y-39471D01*
X54933Y-39471D01*
X54971Y-39434D01*
X54971Y-39509D01*
X54933Y-39472D01*
X54447Y-39472D01*
X54447Y-39480D01*
X54446Y-39480D01*
X54446Y-39472D01*
X54438Y-39472D01*
X54438Y-39471D01*
X54446Y-39471D01*
X54446Y-39014D01*
X54446Y-38985D01*
X54446Y-38528D01*
X54438Y-38528D01*
X54438Y-38527D01*
X54446Y-38527D01*
X54446Y-38519D01*
X54447Y-38519D01*
X54447Y-38527D01*
X54933Y-38527D01*
X54971Y-38490D01*
X54971Y-38124D01*
X54948Y-38069D01*
X54905Y-38026D01*
X54850Y-38004D01*
X54791Y-38004D01*
X54769Y-38004D01*
X54830Y-37979D01*
X54908Y-37811D01*
X54915Y-37626D01*
X54851Y-37453D01*
X54830Y-37422D01*
X54755Y-37392D01*
X54755Y-37392D01*
X54755Y-37392D01*
X54725Y-37317D01*
X54557Y-37239D01*
X54372Y-37232D01*
X54199Y-37296D01*
X54168Y-37317D01*
X54138Y-37392D01*
X54447Y-37700D01*
X54755Y-37392D01*
X54755Y-37392D01*
X54447Y-37701D01*
X54452Y-37706D01*
X54452Y-37706D01*
X54447Y-37701D01*
X54441Y-37706D01*
X54441Y-37706D01*
X54446Y-37701D01*
X54138Y-37392D01*
X54063Y-37422D01*
X54025Y-37505D01*
X54025Y-35725D01*
X55595Y-35725D01*
X55540Y-35747D01*
X55497Y-35790D01*
X55475Y-35845D01*
X55475Y-35904D01*
X55475Y-36354D01*
X55497Y-36409D01*
X55512Y-36425D01*
X55495Y-36425D01*
X55440Y-36447D01*
X55397Y-36490D01*
X55375Y-36545D01*
X55375Y-36604D01*
X55375Y-37054D01*
X55397Y-37109D01*
X55440Y-37152D01*
X55495Y-37175D01*
X55554Y-37175D01*
X55804Y-37175D01*
X55859Y-37152D01*
X55902Y-37109D01*
X55925Y-37054D01*
X55925Y-37054D01*
X55947Y-37109D01*
X55990Y-37152D01*
X56045Y-37175D01*
X56104Y-37175D01*
X56262Y-37175D01*
X56299Y-37137D01*
X56299Y-36900D01*
X55962Y-36900D01*
X55925Y-36937D01*
X55925Y-36862D01*
X55962Y-36899D01*
X56299Y-36899D01*
X56299Y-36662D01*
X56262Y-36625D01*
X56104Y-36625D01*
X56045Y-36625D01*
X55990Y-36647D01*
X55959Y-36678D01*
X55959Y-36452D01*
X55959Y-36452D01*
X56002Y-36409D01*
X56025Y-36354D01*
X56025Y-36295D01*
X56025Y-35845D01*
X56002Y-35790D01*
X55959Y-35747D01*
X55904Y-35725D01*
X56195Y-35725D01*
X56140Y-35747D01*
X56097Y-35790D01*
X56075Y-35845D01*
X56075Y-35904D01*
X56075Y-36354D01*
X56097Y-36409D01*
X56140Y-36452D01*
X56195Y-36475D01*
X56254Y-36475D01*
X56504Y-36475D01*
X56559Y-36452D01*
X56602Y-36409D01*
X56625Y-36354D01*
X56625Y-36309D01*
X56740Y-36309D01*
X56733Y-36326D01*
X56733Y-36436D01*
X56771Y-36473D01*
X57099Y-36473D01*
X57099Y-36465D01*
X57100Y-36465D01*
X57100Y-36473D01*
X57429Y-36473D01*
X57466Y-36436D01*
X57466Y-36326D01*
X57450Y-36286D01*
X57466Y-36247D01*
X57466Y-36188D01*
X57466Y-35952D01*
X57443Y-35897D01*
X57401Y-35854D01*
X57346Y-35832D01*
X57286Y-35832D01*
X56853Y-35832D01*
X56798Y-35854D01*
X56762Y-35891D01*
X56625Y-35891D01*
X56625Y-35845D01*
X56602Y-35790D01*
X56559Y-35747D01*
X56504Y-35725D01*
X62125Y-35725D01*
X62125Y-42725D01*
M02*
