G04 (created by PCBNEW (2013-07-07 BZR 4022)-stable) date 11/7/2013 9:25:50 PM*
%MOIN*%
G04 Gerber Fmt 3.4, Leading zero omitted, Abs format*
%FSLAX34Y34*%
G01*
G70*
G90*
G04 APERTURE LIST*
%ADD10C,0.00590551*%
%ADD11R,0.0531X0.0157*%
%ADD12R,0.0551X0.063*%
%ADD13R,0.0748X0.0748*%
%ADD14C,0.063*%
%ADD15R,0.045X0.025*%
%ADD16R,0.0610236X0.023622*%
%ADD17C,0.0669*%
%ADD18R,0.0433X0.0236*%
%ADD19C,0.0787402*%
%ADD20C,0.02*%
%ADD21C,0.0118*%
%ADD22C,0.0061*%
%ADD23C,0.01*%
G04 APERTURE END LIST*
G54D10*
G54D11*
X58250Y-38512D03*
X58250Y-38256D03*
X58250Y-38000D03*
X58250Y-37744D03*
X58250Y-37488D03*
G54D12*
X58171Y-39260D03*
X58171Y-36740D03*
G54D13*
X57197Y-37528D03*
X57197Y-38472D03*
G54D14*
X57197Y-36701D03*
X57197Y-39299D03*
G54D15*
X58900Y-36300D03*
X58900Y-35700D03*
X59700Y-35500D03*
X59700Y-36100D03*
X60700Y-36100D03*
X60700Y-35500D03*
X61900Y-35600D03*
X61900Y-36200D03*
X61750Y-37200D03*
X61750Y-37800D03*
X62700Y-38400D03*
X62700Y-37800D03*
X58500Y-40600D03*
X58500Y-40000D03*
G54D16*
X59500Y-40000D03*
X59500Y-39500D03*
X59500Y-39000D03*
X59500Y-38500D03*
X61625Y-38500D03*
X61625Y-39000D03*
X61625Y-39500D03*
X61625Y-40000D03*
G54D17*
X60000Y-41000D03*
X61000Y-41000D03*
G54D18*
X61000Y-36700D03*
X61000Y-37074D03*
X61000Y-37448D03*
X59898Y-37448D03*
X59898Y-36700D03*
G54D19*
X59700Y-34700D03*
X61300Y-34700D03*
G54D20*
X61300Y-38100D03*
X60500Y-37300D03*
X61075Y-38500D03*
X62233Y-38333D03*
X63100Y-37500D03*
X58900Y-39400D03*
X63500Y-36925D03*
X62700Y-38825D03*
X60100Y-39025D03*
X61950Y-34950D03*
G54D21*
X61750Y-37800D02*
X61600Y-37800D01*
X61600Y-37800D02*
X61300Y-38100D01*
X61000Y-37074D02*
X60726Y-37074D01*
X60726Y-37074D02*
X60500Y-37300D01*
X61000Y-41000D02*
X61625Y-40374D01*
X61625Y-40374D02*
X61625Y-40000D01*
X61900Y-36200D02*
X61500Y-36200D01*
X61500Y-36200D02*
X61000Y-36700D01*
X61075Y-38500D02*
X61625Y-38500D01*
X62066Y-38500D02*
X61625Y-38500D01*
X62233Y-38333D02*
X62066Y-38500D01*
X61900Y-35600D02*
X61800Y-35500D01*
X61800Y-35500D02*
X60700Y-35500D01*
X58900Y-36300D02*
X59300Y-36700D01*
X59300Y-36700D02*
X59898Y-36700D01*
X62800Y-37800D02*
X62700Y-37800D01*
X63100Y-37500D02*
X62800Y-37800D01*
G54D22*
X58500Y-40000D02*
X58900Y-39600D01*
X58900Y-39600D02*
X58900Y-39400D01*
X59500Y-39500D02*
X59400Y-39400D01*
X59400Y-39400D02*
X58900Y-39400D01*
G54D21*
X63025Y-38400D02*
X62700Y-38400D01*
X63500Y-37925D02*
X63025Y-38400D01*
X63500Y-36925D02*
X63500Y-37925D01*
X62700Y-38825D02*
X62700Y-38400D01*
X59925Y-38500D02*
X59500Y-38500D01*
X60100Y-38675D02*
X59925Y-38500D01*
X60100Y-39025D02*
X60100Y-38675D01*
X58500Y-40600D02*
X58900Y-40600D01*
X58900Y-40600D02*
X59500Y-40000D01*
X60000Y-41000D02*
X60000Y-40500D01*
X60000Y-40500D02*
X59500Y-40000D01*
X60000Y-41000D02*
X60525Y-40475D01*
X60525Y-37923D02*
X60525Y-40475D01*
X60525Y-37923D02*
X61000Y-37448D01*
X62450Y-36500D02*
X61750Y-37200D01*
X62450Y-35450D02*
X62450Y-36500D01*
X61950Y-34950D02*
X62450Y-35450D01*
X61750Y-37200D02*
X61502Y-37448D01*
X61502Y-37448D02*
X61000Y-37448D01*
X59898Y-37448D02*
X59652Y-37448D01*
X58788Y-38512D02*
X58250Y-38512D01*
X58800Y-38500D02*
X58788Y-38512D01*
X58800Y-38300D02*
X58800Y-38500D01*
X59652Y-37448D02*
X58800Y-38300D01*
X60700Y-36100D02*
X60100Y-35500D01*
X60100Y-35500D02*
X59700Y-35500D01*
X59898Y-37448D02*
X60400Y-36946D01*
X60400Y-36400D02*
X60700Y-36100D01*
X60400Y-36946D02*
X60400Y-36400D01*
G54D10*
G36*
X62241Y-35978D02*
X62210Y-35947D01*
X62154Y-35925D01*
X62095Y-35924D01*
X61645Y-35924D01*
X61590Y-35947D01*
X61547Y-35989D01*
X61547Y-35991D01*
X61500Y-35991D01*
X61420Y-36006D01*
X61352Y-36052D01*
X60972Y-36431D01*
X60753Y-36431D01*
X60698Y-36454D01*
X60656Y-36496D01*
X60633Y-36552D01*
X60633Y-36611D01*
X60633Y-36847D01*
X60649Y-36887D01*
X60633Y-36926D01*
X60633Y-37036D01*
X60671Y-37073D01*
X60999Y-37073D01*
X60999Y-37065D01*
X61000Y-37065D01*
X61000Y-37073D01*
X61329Y-37073D01*
X61366Y-37036D01*
X61366Y-36926D01*
X61350Y-36886D01*
X61366Y-36847D01*
X61366Y-36788D01*
X61366Y-36629D01*
X61566Y-36428D01*
X61589Y-36452D01*
X61645Y-36474D01*
X61704Y-36475D01*
X62154Y-36475D01*
X62196Y-36457D01*
X61729Y-36924D01*
X61495Y-36924D01*
X61440Y-36947D01*
X61397Y-36989D01*
X61375Y-37045D01*
X61374Y-37104D01*
X61374Y-37239D01*
X61359Y-37239D01*
X61366Y-37221D01*
X61366Y-37111D01*
X61329Y-37074D01*
X61000Y-37074D01*
X61000Y-37082D01*
X60999Y-37082D01*
X60999Y-37074D01*
X60671Y-37074D01*
X60633Y-37111D01*
X60633Y-37221D01*
X60649Y-37261D01*
X60633Y-37300D01*
X60633Y-37359D01*
X60633Y-37518D01*
X60377Y-37775D01*
X60331Y-37843D01*
X60316Y-37923D01*
X60316Y-38893D01*
X60312Y-38883D01*
X60309Y-38880D01*
X60309Y-38675D01*
X60308Y-38674D01*
X60309Y-38674D01*
X60305Y-38659D01*
X60293Y-38595D01*
X60293Y-38595D01*
X60247Y-38527D01*
X60247Y-38527D01*
X60072Y-38352D01*
X60004Y-38306D01*
X59926Y-38291D01*
X59890Y-38254D01*
X59835Y-38231D01*
X59775Y-38231D01*
X59165Y-38231D01*
X59162Y-38232D01*
X59679Y-37715D01*
X59711Y-37716D01*
X60144Y-37716D01*
X60199Y-37693D01*
X60241Y-37651D01*
X60264Y-37595D01*
X60264Y-37536D01*
X60264Y-37377D01*
X60547Y-37093D01*
X60547Y-37093D01*
X60547Y-37093D01*
X60593Y-37025D01*
X60593Y-37025D01*
X60609Y-36946D01*
X60609Y-36486D01*
X60720Y-36375D01*
X60954Y-36375D01*
X61009Y-36352D01*
X61052Y-36310D01*
X61074Y-36254D01*
X61075Y-36195D01*
X61075Y-35945D01*
X61052Y-35890D01*
X61010Y-35847D01*
X60954Y-35825D01*
X60895Y-35824D01*
X60720Y-35824D01*
X60670Y-35775D01*
X60954Y-35775D01*
X61009Y-35752D01*
X61052Y-35710D01*
X61052Y-35709D01*
X61524Y-35709D01*
X61524Y-35754D01*
X61547Y-35809D01*
X61589Y-35852D01*
X61645Y-35874D01*
X61704Y-35875D01*
X62154Y-35875D01*
X62209Y-35852D01*
X62241Y-35821D01*
X62241Y-35978D01*
X62241Y-35978D01*
G37*
G54D23*
X62241Y-35978D02*
X62210Y-35947D01*
X62154Y-35925D01*
X62095Y-35924D01*
X61645Y-35924D01*
X61590Y-35947D01*
X61547Y-35989D01*
X61547Y-35991D01*
X61500Y-35991D01*
X61420Y-36006D01*
X61352Y-36052D01*
X60972Y-36431D01*
X60753Y-36431D01*
X60698Y-36454D01*
X60656Y-36496D01*
X60633Y-36552D01*
X60633Y-36611D01*
X60633Y-36847D01*
X60649Y-36887D01*
X60633Y-36926D01*
X60633Y-37036D01*
X60671Y-37073D01*
X60999Y-37073D01*
X60999Y-37065D01*
X61000Y-37065D01*
X61000Y-37073D01*
X61329Y-37073D01*
X61366Y-37036D01*
X61366Y-36926D01*
X61350Y-36886D01*
X61366Y-36847D01*
X61366Y-36788D01*
X61366Y-36629D01*
X61566Y-36428D01*
X61589Y-36452D01*
X61645Y-36474D01*
X61704Y-36475D01*
X62154Y-36475D01*
X62196Y-36457D01*
X61729Y-36924D01*
X61495Y-36924D01*
X61440Y-36947D01*
X61397Y-36989D01*
X61375Y-37045D01*
X61374Y-37104D01*
X61374Y-37239D01*
X61359Y-37239D01*
X61366Y-37221D01*
X61366Y-37111D01*
X61329Y-37074D01*
X61000Y-37074D01*
X61000Y-37082D01*
X60999Y-37082D01*
X60999Y-37074D01*
X60671Y-37074D01*
X60633Y-37111D01*
X60633Y-37221D01*
X60649Y-37261D01*
X60633Y-37300D01*
X60633Y-37359D01*
X60633Y-37518D01*
X60377Y-37775D01*
X60331Y-37843D01*
X60316Y-37923D01*
X60316Y-38893D01*
X60312Y-38883D01*
X60309Y-38880D01*
X60309Y-38675D01*
X60308Y-38674D01*
X60309Y-38674D01*
X60305Y-38659D01*
X60293Y-38595D01*
X60293Y-38595D01*
X60247Y-38527D01*
X60247Y-38527D01*
X60072Y-38352D01*
X60004Y-38306D01*
X59926Y-38291D01*
X59890Y-38254D01*
X59835Y-38231D01*
X59775Y-38231D01*
X59165Y-38231D01*
X59162Y-38232D01*
X59679Y-37715D01*
X59711Y-37716D01*
X60144Y-37716D01*
X60199Y-37693D01*
X60241Y-37651D01*
X60264Y-37595D01*
X60264Y-37536D01*
X60264Y-37377D01*
X60547Y-37093D01*
X60547Y-37093D01*
X60547Y-37093D01*
X60593Y-37025D01*
X60593Y-37025D01*
X60609Y-36946D01*
X60609Y-36486D01*
X60720Y-36375D01*
X60954Y-36375D01*
X61009Y-36352D01*
X61052Y-36310D01*
X61074Y-36254D01*
X61075Y-36195D01*
X61075Y-35945D01*
X61052Y-35890D01*
X61010Y-35847D01*
X60954Y-35825D01*
X60895Y-35824D01*
X60720Y-35824D01*
X60670Y-35775D01*
X60954Y-35775D01*
X61009Y-35752D01*
X61052Y-35710D01*
X61052Y-35709D01*
X61524Y-35709D01*
X61524Y-35754D01*
X61547Y-35809D01*
X61589Y-35852D01*
X61645Y-35874D01*
X61704Y-35875D01*
X62154Y-35875D01*
X62209Y-35852D01*
X62241Y-35821D01*
X62241Y-35978D01*
G54D10*
G36*
X64301Y-38473D02*
X63833Y-39889D01*
X63750Y-39986D01*
X63750Y-36875D01*
X63712Y-36783D01*
X63641Y-36713D01*
X63549Y-36675D01*
X63450Y-36674D01*
X63358Y-36712D01*
X63288Y-36783D01*
X63250Y-36875D01*
X63249Y-36974D01*
X63287Y-37066D01*
X63291Y-37069D01*
X63291Y-37337D01*
X63241Y-37288D01*
X63149Y-37250D01*
X63050Y-37249D01*
X62958Y-37287D01*
X62888Y-37358D01*
X62850Y-37450D01*
X62850Y-37454D01*
X62779Y-37524D01*
X62445Y-37524D01*
X62390Y-37547D01*
X62347Y-37589D01*
X62325Y-37645D01*
X62324Y-37704D01*
X62324Y-37954D01*
X62347Y-38009D01*
X62389Y-38052D01*
X62445Y-38074D01*
X62504Y-38075D01*
X62954Y-38075D01*
X63009Y-38052D01*
X63052Y-38010D01*
X63074Y-37954D01*
X63075Y-37895D01*
X63075Y-37820D01*
X63145Y-37750D01*
X63149Y-37750D01*
X63241Y-37712D01*
X63291Y-37662D01*
X63291Y-37838D01*
X62989Y-38139D01*
X62954Y-38125D01*
X62895Y-38124D01*
X62445Y-38124D01*
X62398Y-38144D01*
X62374Y-38121D01*
X62282Y-38083D01*
X62183Y-38082D01*
X62125Y-38107D01*
X62125Y-37954D01*
X62125Y-37645D01*
X62102Y-37590D01*
X62060Y-37547D01*
X62004Y-37525D01*
X61945Y-37524D01*
X61787Y-37525D01*
X61750Y-37562D01*
X61750Y-37799D01*
X62087Y-37799D01*
X62125Y-37762D01*
X62125Y-37645D01*
X62125Y-37954D01*
X62125Y-37837D01*
X62087Y-37800D01*
X61750Y-37800D01*
X61750Y-38037D01*
X61787Y-38075D01*
X61945Y-38075D01*
X62004Y-38074D01*
X62060Y-38052D01*
X62102Y-38009D01*
X62125Y-37954D01*
X62125Y-38107D01*
X62091Y-38120D01*
X62021Y-38191D01*
X61997Y-38247D01*
X61961Y-38231D01*
X61901Y-38231D01*
X61749Y-38231D01*
X61749Y-38037D01*
X61749Y-37800D01*
X61412Y-37800D01*
X61375Y-37837D01*
X61374Y-37954D01*
X61397Y-38009D01*
X61439Y-38052D01*
X61495Y-38074D01*
X61554Y-38075D01*
X61712Y-38075D01*
X61749Y-38037D01*
X61749Y-38231D01*
X61291Y-38231D01*
X61236Y-38254D01*
X61206Y-38283D01*
X61124Y-38250D01*
X61025Y-38249D01*
X60933Y-38287D01*
X60863Y-38358D01*
X60825Y-38450D01*
X60824Y-38549D01*
X60862Y-38641D01*
X60933Y-38711D01*
X61025Y-38749D01*
X61124Y-38750D01*
X61206Y-38716D01*
X61235Y-38745D01*
X61247Y-38749D01*
X61236Y-38754D01*
X61193Y-38796D01*
X61170Y-38851D01*
X61170Y-38911D01*
X61170Y-39147D01*
X61193Y-39202D01*
X61235Y-39245D01*
X61247Y-39249D01*
X61236Y-39254D01*
X61193Y-39296D01*
X61170Y-39351D01*
X61170Y-39411D01*
X61170Y-39647D01*
X61193Y-39702D01*
X61235Y-39745D01*
X61247Y-39750D01*
X61235Y-39754D01*
X61193Y-39797D01*
X61170Y-39852D01*
X61170Y-39962D01*
X61208Y-39999D01*
X61625Y-39999D01*
X61625Y-39991D01*
X61626Y-39991D01*
X61626Y-39999D01*
X62043Y-39999D01*
X62081Y-39962D01*
X62081Y-39852D01*
X62058Y-39797D01*
X62016Y-39754D01*
X62004Y-39750D01*
X62015Y-39745D01*
X62058Y-39703D01*
X62081Y-39648D01*
X62081Y-39588D01*
X62081Y-39352D01*
X62058Y-39297D01*
X62016Y-39254D01*
X62004Y-39250D01*
X62015Y-39245D01*
X62058Y-39203D01*
X62081Y-39148D01*
X62081Y-39088D01*
X62081Y-38852D01*
X62058Y-38797D01*
X62016Y-38754D01*
X62004Y-38750D01*
X62015Y-38745D01*
X62052Y-38709D01*
X62066Y-38709D01*
X62145Y-38693D01*
X62145Y-38693D01*
X62213Y-38647D01*
X62278Y-38583D01*
X62282Y-38583D01*
X62328Y-38563D01*
X62347Y-38609D01*
X62389Y-38652D01*
X62445Y-38674D01*
X62491Y-38675D01*
X62491Y-38680D01*
X62488Y-38683D01*
X62450Y-38775D01*
X62449Y-38874D01*
X62487Y-38966D01*
X62558Y-39036D01*
X62650Y-39074D01*
X62749Y-39075D01*
X62841Y-39037D01*
X62911Y-38966D01*
X62949Y-38874D01*
X62950Y-38775D01*
X62912Y-38683D01*
X62909Y-38680D01*
X62909Y-38675D01*
X62954Y-38675D01*
X63009Y-38652D01*
X63052Y-38610D01*
X63055Y-38603D01*
X63104Y-38593D01*
X63104Y-38593D01*
X63172Y-38547D01*
X63647Y-38072D01*
X63647Y-38072D01*
X63647Y-38072D01*
X63693Y-38004D01*
X63693Y-38004D01*
X63709Y-37925D01*
X63709Y-37069D01*
X63711Y-37066D01*
X63749Y-36974D01*
X63750Y-36875D01*
X63750Y-39986D01*
X62856Y-41021D01*
X62081Y-41411D01*
X62081Y-40147D01*
X62081Y-40037D01*
X62043Y-40000D01*
X61626Y-40000D01*
X61626Y-40230D01*
X61663Y-40268D01*
X61901Y-40268D01*
X61961Y-40268D01*
X62016Y-40245D01*
X62058Y-40202D01*
X62081Y-40147D01*
X62081Y-41411D01*
X61625Y-41640D01*
X61625Y-40230D01*
X61625Y-40000D01*
X61208Y-40000D01*
X61170Y-40037D01*
X61170Y-40147D01*
X61193Y-40202D01*
X61235Y-40245D01*
X61290Y-40268D01*
X61350Y-40268D01*
X61588Y-40268D01*
X61625Y-40230D01*
X61625Y-41640D01*
X61520Y-41693D01*
X61487Y-41696D01*
X61487Y-40922D01*
X61421Y-40741D01*
X61399Y-40709D01*
X61322Y-40677D01*
X61322Y-40677D01*
X61322Y-40677D01*
X61290Y-40600D01*
X61115Y-40519D01*
X60922Y-40512D01*
X60741Y-40578D01*
X60709Y-40600D01*
X60677Y-40677D01*
X61000Y-40999D01*
X61322Y-40677D01*
X61322Y-40677D01*
X61000Y-41000D01*
X61322Y-41322D01*
X61399Y-41290D01*
X61480Y-41115D01*
X61487Y-40922D01*
X61487Y-41696D01*
X61322Y-41708D01*
X61322Y-41322D01*
X61000Y-41000D01*
X60999Y-41000D01*
X60999Y-41000D01*
X60677Y-40677D01*
X60600Y-40709D01*
X60519Y-40884D01*
X60512Y-41077D01*
X60578Y-41258D01*
X60600Y-41290D01*
X60677Y-41322D01*
X60999Y-41000D01*
X60999Y-41000D01*
X60677Y-41322D01*
X60709Y-41399D01*
X60884Y-41480D01*
X61077Y-41487D01*
X61258Y-41421D01*
X61290Y-41399D01*
X61322Y-41322D01*
X61322Y-41708D01*
X60029Y-41803D01*
X58610Y-41333D01*
X57478Y-40356D01*
X57180Y-39763D01*
X57271Y-39767D01*
X57444Y-39703D01*
X57475Y-39682D01*
X57505Y-39607D01*
X57197Y-39299D01*
X57191Y-39304D01*
X57191Y-39304D01*
X57196Y-39299D01*
X57191Y-39293D01*
X57191Y-39293D01*
X57197Y-39298D01*
X57202Y-39293D01*
X57202Y-39293D01*
X57197Y-39299D01*
X57505Y-39607D01*
X57580Y-39577D01*
X57658Y-39409D01*
X57665Y-39224D01*
X57601Y-39051D01*
X57580Y-39020D01*
X57519Y-38996D01*
X57541Y-38996D01*
X57600Y-38995D01*
X57656Y-38973D01*
X57698Y-38930D01*
X57721Y-38875D01*
X57721Y-38068D01*
X57698Y-38013D01*
X57685Y-38000D01*
X57698Y-37986D01*
X57721Y-37931D01*
X57721Y-37565D01*
X57683Y-37528D01*
X57197Y-37528D01*
X57197Y-37985D01*
X57197Y-38014D01*
X57197Y-38471D01*
X57683Y-38471D01*
X57721Y-38434D01*
X57721Y-38068D01*
X57721Y-38875D01*
X57721Y-38509D01*
X57683Y-38472D01*
X57197Y-38472D01*
X57197Y-38480D01*
X57196Y-38480D01*
X57196Y-38472D01*
X57188Y-38472D01*
X57188Y-38471D01*
X57196Y-38471D01*
X57196Y-38014D01*
X57196Y-37985D01*
X57196Y-37528D01*
X57188Y-37528D01*
X57188Y-37527D01*
X57196Y-37527D01*
X57196Y-37519D01*
X57197Y-37519D01*
X57197Y-37527D01*
X57683Y-37527D01*
X57721Y-37490D01*
X57721Y-37124D01*
X57698Y-37069D01*
X57656Y-37026D01*
X57600Y-37004D01*
X57541Y-37003D01*
X57519Y-37003D01*
X57580Y-36979D01*
X57658Y-36811D01*
X57665Y-36626D01*
X57601Y-36453D01*
X57580Y-36422D01*
X57505Y-36392D01*
X57197Y-36701D01*
X57202Y-36706D01*
X57202Y-36706D01*
X57197Y-36701D01*
X57191Y-36706D01*
X57191Y-36706D01*
X57196Y-36701D01*
X57191Y-36695D01*
X57191Y-36695D01*
X57197Y-36700D01*
X57505Y-36392D01*
X57475Y-36317D01*
X57307Y-36239D01*
X57127Y-36232D01*
X57167Y-36110D01*
X58144Y-34979D01*
X59222Y-34436D01*
X59160Y-34570D01*
X59152Y-34786D01*
X59227Y-34989D01*
X59251Y-35025D01*
X59334Y-35065D01*
X59699Y-34700D01*
X59694Y-34694D01*
X59694Y-34694D01*
X59700Y-34699D01*
X60065Y-34334D01*
X60033Y-34267D01*
X60970Y-34198D01*
X61032Y-34219D01*
X61010Y-34227D01*
X60974Y-34251D01*
X60934Y-34334D01*
X61300Y-34699D01*
X61305Y-34694D01*
X61305Y-34694D01*
X61300Y-34700D01*
X61665Y-35065D01*
X61717Y-35040D01*
X61737Y-35091D01*
X61808Y-35161D01*
X61900Y-35199D01*
X61904Y-35199D01*
X62029Y-35324D01*
X61907Y-35324D01*
X61879Y-35306D01*
X61800Y-35291D01*
X61665Y-35291D01*
X61665Y-35065D01*
X61300Y-34700D01*
X61299Y-34700D01*
X61299Y-34700D01*
X60934Y-34334D01*
X60851Y-34374D01*
X60760Y-34570D01*
X60752Y-34786D01*
X60827Y-34989D01*
X60851Y-35025D01*
X60934Y-35065D01*
X61299Y-34700D01*
X61299Y-34700D01*
X60934Y-35065D01*
X60974Y-35148D01*
X61170Y-35239D01*
X61386Y-35247D01*
X61589Y-35172D01*
X61625Y-35148D01*
X61665Y-35065D01*
X61665Y-35291D01*
X61052Y-35291D01*
X61052Y-35290D01*
X61010Y-35247D01*
X60954Y-35225D01*
X60895Y-35224D01*
X60445Y-35224D01*
X60390Y-35247D01*
X60347Y-35289D01*
X60325Y-35345D01*
X60324Y-35404D01*
X60324Y-35429D01*
X60247Y-35352D01*
X60247Y-35352D01*
X60247Y-34613D01*
X60172Y-34410D01*
X60148Y-34374D01*
X60065Y-34334D01*
X59700Y-34700D01*
X60065Y-35065D01*
X60148Y-35025D01*
X60239Y-34829D01*
X60247Y-34613D01*
X60247Y-35352D01*
X60179Y-35306D01*
X60100Y-35291D01*
X60052Y-35291D01*
X60052Y-35290D01*
X60010Y-35247D01*
X59954Y-35225D01*
X59895Y-35224D01*
X59847Y-35224D01*
X59989Y-35172D01*
X60025Y-35148D01*
X60065Y-35065D01*
X59700Y-34700D01*
X59334Y-35065D01*
X59374Y-35148D01*
X59540Y-35224D01*
X59445Y-35224D01*
X59390Y-35247D01*
X59347Y-35289D01*
X59325Y-35345D01*
X59324Y-35404D01*
X59324Y-35654D01*
X59347Y-35709D01*
X59389Y-35752D01*
X59445Y-35774D01*
X59504Y-35775D01*
X59954Y-35775D01*
X60009Y-35752D01*
X60033Y-35728D01*
X60324Y-36020D01*
X60324Y-36179D01*
X60252Y-36252D01*
X60206Y-36320D01*
X60191Y-36400D01*
X60191Y-36451D01*
X60144Y-36432D01*
X60084Y-36431D01*
X60075Y-36431D01*
X60075Y-36254D01*
X60075Y-35945D01*
X60052Y-35890D01*
X60010Y-35847D01*
X59954Y-35825D01*
X59895Y-35824D01*
X59737Y-35825D01*
X59700Y-35862D01*
X59700Y-36099D01*
X60037Y-36099D01*
X60075Y-36062D01*
X60075Y-35945D01*
X60075Y-36254D01*
X60075Y-36137D01*
X60037Y-36100D01*
X59700Y-36100D01*
X59700Y-36337D01*
X59737Y-36375D01*
X59895Y-36375D01*
X59954Y-36374D01*
X60010Y-36352D01*
X60052Y-36309D01*
X60075Y-36254D01*
X60075Y-36431D01*
X59699Y-36431D01*
X59699Y-36337D01*
X59699Y-36100D01*
X59699Y-36099D01*
X59699Y-35862D01*
X59662Y-35825D01*
X59504Y-35824D01*
X59445Y-35825D01*
X59389Y-35847D01*
X59347Y-35890D01*
X59324Y-35945D01*
X59325Y-36062D01*
X59362Y-36099D01*
X59699Y-36099D01*
X59699Y-36100D01*
X59362Y-36100D01*
X59325Y-36137D01*
X59324Y-36254D01*
X59347Y-36309D01*
X59389Y-36352D01*
X59445Y-36374D01*
X59504Y-36375D01*
X59662Y-36375D01*
X59699Y-36337D01*
X59699Y-36431D01*
X59651Y-36431D01*
X59596Y-36454D01*
X59560Y-36491D01*
X59386Y-36491D01*
X59275Y-36379D01*
X59275Y-36145D01*
X59275Y-35854D01*
X59275Y-35545D01*
X59252Y-35490D01*
X59210Y-35447D01*
X59154Y-35425D01*
X59095Y-35424D01*
X58937Y-35425D01*
X58900Y-35462D01*
X58900Y-35699D01*
X59237Y-35699D01*
X59275Y-35662D01*
X59275Y-35545D01*
X59275Y-35854D01*
X59275Y-35737D01*
X59237Y-35700D01*
X58900Y-35700D01*
X58900Y-35937D01*
X58937Y-35975D01*
X59095Y-35975D01*
X59154Y-35974D01*
X59210Y-35952D01*
X59252Y-35909D01*
X59275Y-35854D01*
X59275Y-36145D01*
X59252Y-36090D01*
X59210Y-36047D01*
X59154Y-36025D01*
X59095Y-36024D01*
X58899Y-36024D01*
X58899Y-35937D01*
X58899Y-35700D01*
X58899Y-35699D01*
X58899Y-35462D01*
X58862Y-35425D01*
X58704Y-35424D01*
X58645Y-35425D01*
X58589Y-35447D01*
X58547Y-35490D01*
X58524Y-35545D01*
X58525Y-35662D01*
X58562Y-35699D01*
X58899Y-35699D01*
X58899Y-35700D01*
X58562Y-35700D01*
X58525Y-35737D01*
X58524Y-35854D01*
X58547Y-35909D01*
X58589Y-35952D01*
X58645Y-35974D01*
X58704Y-35975D01*
X58862Y-35975D01*
X58899Y-35937D01*
X58899Y-36024D01*
X58645Y-36024D01*
X58590Y-36047D01*
X58547Y-36089D01*
X58525Y-36145D01*
X58524Y-36204D01*
X58524Y-36295D01*
X58476Y-36275D01*
X58416Y-36274D01*
X58208Y-36275D01*
X58171Y-36312D01*
X58171Y-36739D01*
X58559Y-36739D01*
X58596Y-36702D01*
X58596Y-36554D01*
X58645Y-36574D01*
X58704Y-36575D01*
X58879Y-36575D01*
X59152Y-36847D01*
X59152Y-36847D01*
X59220Y-36893D01*
X59220Y-36893D01*
X59284Y-36905D01*
X59299Y-36909D01*
X59299Y-36908D01*
X59300Y-36909D01*
X59560Y-36909D01*
X59596Y-36945D01*
X59651Y-36967D01*
X59711Y-36968D01*
X60082Y-36968D01*
X59870Y-37179D01*
X59651Y-37179D01*
X59596Y-37202D01*
X59554Y-37244D01*
X59541Y-37275D01*
X59504Y-37300D01*
X58662Y-38141D01*
X58657Y-38128D01*
X58665Y-38108D01*
X58665Y-38048D01*
X58665Y-37891D01*
X58657Y-37872D01*
X58665Y-37852D01*
X58665Y-37792D01*
X58665Y-37635D01*
X58657Y-37616D01*
X58665Y-37596D01*
X58665Y-37379D01*
X58642Y-37324D01*
X58600Y-37282D01*
X58596Y-37280D01*
X58596Y-37084D01*
X58596Y-36777D01*
X58559Y-36740D01*
X58171Y-36740D01*
X58171Y-37167D01*
X58208Y-37205D01*
X58416Y-37205D01*
X58476Y-37204D01*
X58531Y-37182D01*
X58573Y-37139D01*
X58596Y-37084D01*
X58596Y-37280D01*
X58545Y-37259D01*
X58485Y-37259D01*
X58287Y-37259D01*
X58250Y-37297D01*
X58250Y-37487D01*
X58628Y-37487D01*
X58665Y-37450D01*
X58665Y-37379D01*
X58665Y-37596D01*
X58665Y-37525D01*
X58628Y-37488D01*
X58250Y-37488D01*
X58250Y-37496D01*
X58249Y-37496D01*
X58249Y-37488D01*
X58249Y-37487D01*
X58249Y-37297D01*
X58212Y-37259D01*
X58170Y-37259D01*
X58170Y-37167D01*
X58170Y-36740D01*
X58170Y-36739D01*
X58170Y-36312D01*
X58133Y-36275D01*
X57925Y-36274D01*
X57865Y-36275D01*
X57810Y-36297D01*
X57768Y-36340D01*
X57745Y-36395D01*
X57745Y-36702D01*
X57783Y-36739D01*
X58170Y-36739D01*
X58170Y-36740D01*
X57783Y-36740D01*
X57745Y-36777D01*
X57745Y-37084D01*
X57768Y-37139D01*
X57810Y-37182D01*
X57865Y-37204D01*
X57925Y-37205D01*
X58133Y-37205D01*
X58170Y-37167D01*
X58170Y-37259D01*
X58014Y-37259D01*
X57954Y-37259D01*
X57899Y-37282D01*
X57857Y-37324D01*
X57834Y-37379D01*
X57834Y-37450D01*
X57872Y-37487D01*
X58249Y-37487D01*
X58249Y-37488D01*
X57872Y-37488D01*
X57834Y-37525D01*
X57834Y-37596D01*
X57842Y-37615D01*
X57834Y-37635D01*
X57834Y-37695D01*
X57834Y-37852D01*
X57842Y-37871D01*
X57834Y-37891D01*
X57834Y-37951D01*
X57834Y-38108D01*
X57842Y-38127D01*
X57834Y-38147D01*
X57834Y-38207D01*
X57834Y-38364D01*
X57842Y-38383D01*
X57834Y-38403D01*
X57834Y-38463D01*
X57834Y-38620D01*
X57857Y-38675D01*
X57899Y-38717D01*
X57954Y-38740D01*
X58014Y-38740D01*
X58545Y-38740D01*
X58592Y-38721D01*
X58788Y-38721D01*
X58867Y-38705D01*
X58867Y-38705D01*
X58935Y-38659D01*
X58947Y-38647D01*
X58993Y-38579D01*
X58993Y-38579D01*
X59009Y-38500D01*
X59009Y-38386D01*
X59045Y-38349D01*
X59044Y-38351D01*
X59044Y-38411D01*
X59044Y-38647D01*
X59067Y-38702D01*
X59109Y-38745D01*
X59121Y-38749D01*
X59110Y-38754D01*
X59067Y-38796D01*
X59044Y-38851D01*
X59044Y-38911D01*
X59044Y-39147D01*
X59067Y-39202D01*
X59084Y-39219D01*
X59073Y-39219D01*
X59041Y-39188D01*
X58949Y-39150D01*
X58850Y-39149D01*
X58758Y-39187D01*
X58688Y-39258D01*
X58650Y-39350D01*
X58649Y-39449D01*
X58687Y-39541D01*
X58695Y-39549D01*
X58519Y-39724D01*
X58476Y-39724D01*
X58531Y-39702D01*
X58573Y-39659D01*
X58596Y-39604D01*
X58596Y-38915D01*
X58573Y-38860D01*
X58531Y-38817D01*
X58476Y-38795D01*
X58416Y-38794D01*
X58208Y-38795D01*
X58171Y-38832D01*
X58171Y-39259D01*
X58559Y-39259D01*
X58596Y-39222D01*
X58596Y-38915D01*
X58596Y-39604D01*
X58596Y-39297D01*
X58559Y-39260D01*
X58171Y-39260D01*
X58171Y-39687D01*
X58208Y-39725D01*
X58245Y-39725D01*
X58190Y-39747D01*
X58170Y-39767D01*
X58170Y-39687D01*
X58170Y-39260D01*
X58170Y-39259D01*
X58170Y-38832D01*
X58133Y-38795D01*
X57925Y-38794D01*
X57865Y-38795D01*
X57810Y-38817D01*
X57768Y-38860D01*
X57745Y-38915D01*
X57745Y-39222D01*
X57783Y-39259D01*
X58170Y-39259D01*
X58170Y-39260D01*
X57783Y-39260D01*
X57745Y-39297D01*
X57745Y-39604D01*
X57768Y-39659D01*
X57810Y-39702D01*
X57865Y-39724D01*
X57925Y-39725D01*
X58133Y-39725D01*
X58170Y-39687D01*
X58170Y-39767D01*
X58147Y-39789D01*
X58125Y-39845D01*
X58124Y-39904D01*
X58124Y-40154D01*
X58147Y-40209D01*
X58189Y-40252D01*
X58245Y-40274D01*
X58304Y-40275D01*
X58754Y-40275D01*
X58809Y-40252D01*
X58852Y-40210D01*
X58874Y-40154D01*
X58875Y-40095D01*
X58875Y-39880D01*
X59027Y-39727D01*
X59027Y-39727D01*
X59043Y-39704D01*
X59058Y-39681D01*
X59067Y-39702D01*
X59109Y-39745D01*
X59121Y-39749D01*
X59110Y-39754D01*
X59067Y-39796D01*
X59044Y-39851D01*
X59044Y-39911D01*
X59044Y-40147D01*
X59048Y-40156D01*
X58833Y-40371D01*
X58810Y-40347D01*
X58754Y-40325D01*
X58695Y-40324D01*
X58245Y-40324D01*
X58190Y-40347D01*
X58147Y-40389D01*
X58125Y-40445D01*
X58124Y-40504D01*
X58124Y-40754D01*
X58147Y-40809D01*
X58189Y-40852D01*
X58245Y-40874D01*
X58304Y-40875D01*
X58754Y-40875D01*
X58809Y-40852D01*
X58852Y-40810D01*
X58852Y-40809D01*
X58900Y-40809D01*
X58979Y-40793D01*
X58979Y-40793D01*
X59047Y-40747D01*
X59499Y-40295D01*
X59773Y-40569D01*
X59725Y-40589D01*
X59589Y-40725D01*
X59515Y-40903D01*
X59515Y-41095D01*
X59589Y-41274D01*
X59725Y-41410D01*
X59903Y-41484D01*
X60095Y-41484D01*
X60274Y-41410D01*
X60410Y-41274D01*
X60484Y-41096D01*
X60484Y-40904D01*
X60457Y-40838D01*
X60672Y-40622D01*
X60672Y-40622D01*
X60672Y-40622D01*
X60718Y-40554D01*
X60718Y-40554D01*
X60730Y-40490D01*
X60734Y-40475D01*
X60733Y-40475D01*
X60734Y-40475D01*
X60734Y-38009D01*
X61027Y-37716D01*
X61246Y-37716D01*
X61301Y-37693D01*
X61337Y-37657D01*
X61374Y-37657D01*
X61375Y-37762D01*
X61412Y-37799D01*
X61749Y-37799D01*
X61749Y-37562D01*
X61716Y-37529D01*
X61770Y-37475D01*
X62004Y-37475D01*
X62059Y-37452D01*
X62102Y-37410D01*
X62124Y-37354D01*
X62125Y-37295D01*
X62125Y-37120D01*
X62597Y-36647D01*
X62597Y-36647D01*
X62597Y-36647D01*
X62643Y-36579D01*
X62643Y-36579D01*
X62655Y-36515D01*
X62659Y-36500D01*
X62658Y-36500D01*
X62659Y-36500D01*
X62659Y-35450D01*
X62643Y-35370D01*
X62643Y-35370D01*
X62597Y-35302D01*
X62200Y-34904D01*
X62200Y-34900D01*
X62162Y-34808D01*
X62091Y-34738D01*
X61999Y-34700D01*
X61900Y-34699D01*
X61843Y-34723D01*
X61847Y-34613D01*
X61795Y-34471D01*
X62389Y-34667D01*
X63520Y-35644D01*
X64192Y-36979D01*
X64301Y-38473D01*
X64301Y-38473D01*
G37*
G54D23*
X64301Y-38473D02*
X63833Y-39889D01*
X63750Y-39986D01*
X63750Y-36875D01*
X63712Y-36783D01*
X63641Y-36713D01*
X63549Y-36675D01*
X63450Y-36674D01*
X63358Y-36712D01*
X63288Y-36783D01*
X63250Y-36875D01*
X63249Y-36974D01*
X63287Y-37066D01*
X63291Y-37069D01*
X63291Y-37337D01*
X63241Y-37288D01*
X63149Y-37250D01*
X63050Y-37249D01*
X62958Y-37287D01*
X62888Y-37358D01*
X62850Y-37450D01*
X62850Y-37454D01*
X62779Y-37524D01*
X62445Y-37524D01*
X62390Y-37547D01*
X62347Y-37589D01*
X62325Y-37645D01*
X62324Y-37704D01*
X62324Y-37954D01*
X62347Y-38009D01*
X62389Y-38052D01*
X62445Y-38074D01*
X62504Y-38075D01*
X62954Y-38075D01*
X63009Y-38052D01*
X63052Y-38010D01*
X63074Y-37954D01*
X63075Y-37895D01*
X63075Y-37820D01*
X63145Y-37750D01*
X63149Y-37750D01*
X63241Y-37712D01*
X63291Y-37662D01*
X63291Y-37838D01*
X62989Y-38139D01*
X62954Y-38125D01*
X62895Y-38124D01*
X62445Y-38124D01*
X62398Y-38144D01*
X62374Y-38121D01*
X62282Y-38083D01*
X62183Y-38082D01*
X62125Y-38107D01*
X62125Y-37954D01*
X62125Y-37645D01*
X62102Y-37590D01*
X62060Y-37547D01*
X62004Y-37525D01*
X61945Y-37524D01*
X61787Y-37525D01*
X61750Y-37562D01*
X61750Y-37799D01*
X62087Y-37799D01*
X62125Y-37762D01*
X62125Y-37645D01*
X62125Y-37954D01*
X62125Y-37837D01*
X62087Y-37800D01*
X61750Y-37800D01*
X61750Y-38037D01*
X61787Y-38075D01*
X61945Y-38075D01*
X62004Y-38074D01*
X62060Y-38052D01*
X62102Y-38009D01*
X62125Y-37954D01*
X62125Y-38107D01*
X62091Y-38120D01*
X62021Y-38191D01*
X61997Y-38247D01*
X61961Y-38231D01*
X61901Y-38231D01*
X61749Y-38231D01*
X61749Y-38037D01*
X61749Y-37800D01*
X61412Y-37800D01*
X61375Y-37837D01*
X61374Y-37954D01*
X61397Y-38009D01*
X61439Y-38052D01*
X61495Y-38074D01*
X61554Y-38075D01*
X61712Y-38075D01*
X61749Y-38037D01*
X61749Y-38231D01*
X61291Y-38231D01*
X61236Y-38254D01*
X61206Y-38283D01*
X61124Y-38250D01*
X61025Y-38249D01*
X60933Y-38287D01*
X60863Y-38358D01*
X60825Y-38450D01*
X60824Y-38549D01*
X60862Y-38641D01*
X60933Y-38711D01*
X61025Y-38749D01*
X61124Y-38750D01*
X61206Y-38716D01*
X61235Y-38745D01*
X61247Y-38749D01*
X61236Y-38754D01*
X61193Y-38796D01*
X61170Y-38851D01*
X61170Y-38911D01*
X61170Y-39147D01*
X61193Y-39202D01*
X61235Y-39245D01*
X61247Y-39249D01*
X61236Y-39254D01*
X61193Y-39296D01*
X61170Y-39351D01*
X61170Y-39411D01*
X61170Y-39647D01*
X61193Y-39702D01*
X61235Y-39745D01*
X61247Y-39750D01*
X61235Y-39754D01*
X61193Y-39797D01*
X61170Y-39852D01*
X61170Y-39962D01*
X61208Y-39999D01*
X61625Y-39999D01*
X61625Y-39991D01*
X61626Y-39991D01*
X61626Y-39999D01*
X62043Y-39999D01*
X62081Y-39962D01*
X62081Y-39852D01*
X62058Y-39797D01*
X62016Y-39754D01*
X62004Y-39750D01*
X62015Y-39745D01*
X62058Y-39703D01*
X62081Y-39648D01*
X62081Y-39588D01*
X62081Y-39352D01*
X62058Y-39297D01*
X62016Y-39254D01*
X62004Y-39250D01*
X62015Y-39245D01*
X62058Y-39203D01*
X62081Y-39148D01*
X62081Y-39088D01*
X62081Y-38852D01*
X62058Y-38797D01*
X62016Y-38754D01*
X62004Y-38750D01*
X62015Y-38745D01*
X62052Y-38709D01*
X62066Y-38709D01*
X62145Y-38693D01*
X62145Y-38693D01*
X62213Y-38647D01*
X62278Y-38583D01*
X62282Y-38583D01*
X62328Y-38563D01*
X62347Y-38609D01*
X62389Y-38652D01*
X62445Y-38674D01*
X62491Y-38675D01*
X62491Y-38680D01*
X62488Y-38683D01*
X62450Y-38775D01*
X62449Y-38874D01*
X62487Y-38966D01*
X62558Y-39036D01*
X62650Y-39074D01*
X62749Y-39075D01*
X62841Y-39037D01*
X62911Y-38966D01*
X62949Y-38874D01*
X62950Y-38775D01*
X62912Y-38683D01*
X62909Y-38680D01*
X62909Y-38675D01*
X62954Y-38675D01*
X63009Y-38652D01*
X63052Y-38610D01*
X63055Y-38603D01*
X63104Y-38593D01*
X63104Y-38593D01*
X63172Y-38547D01*
X63647Y-38072D01*
X63647Y-38072D01*
X63647Y-38072D01*
X63693Y-38004D01*
X63693Y-38004D01*
X63709Y-37925D01*
X63709Y-37069D01*
X63711Y-37066D01*
X63749Y-36974D01*
X63750Y-36875D01*
X63750Y-39986D01*
X62856Y-41021D01*
X62081Y-41411D01*
X62081Y-40147D01*
X62081Y-40037D01*
X62043Y-40000D01*
X61626Y-40000D01*
X61626Y-40230D01*
X61663Y-40268D01*
X61901Y-40268D01*
X61961Y-40268D01*
X62016Y-40245D01*
X62058Y-40202D01*
X62081Y-40147D01*
X62081Y-41411D01*
X61625Y-41640D01*
X61625Y-40230D01*
X61625Y-40000D01*
X61208Y-40000D01*
X61170Y-40037D01*
X61170Y-40147D01*
X61193Y-40202D01*
X61235Y-40245D01*
X61290Y-40268D01*
X61350Y-40268D01*
X61588Y-40268D01*
X61625Y-40230D01*
X61625Y-41640D01*
X61520Y-41693D01*
X61487Y-41696D01*
X61487Y-40922D01*
X61421Y-40741D01*
X61399Y-40709D01*
X61322Y-40677D01*
X61322Y-40677D01*
X61322Y-40677D01*
X61290Y-40600D01*
X61115Y-40519D01*
X60922Y-40512D01*
X60741Y-40578D01*
X60709Y-40600D01*
X60677Y-40677D01*
X61000Y-40999D01*
X61322Y-40677D01*
X61322Y-40677D01*
X61000Y-41000D01*
X61322Y-41322D01*
X61399Y-41290D01*
X61480Y-41115D01*
X61487Y-40922D01*
X61487Y-41696D01*
X61322Y-41708D01*
X61322Y-41322D01*
X61000Y-41000D01*
X60999Y-41000D01*
X60999Y-41000D01*
X60677Y-40677D01*
X60600Y-40709D01*
X60519Y-40884D01*
X60512Y-41077D01*
X60578Y-41258D01*
X60600Y-41290D01*
X60677Y-41322D01*
X60999Y-41000D01*
X60999Y-41000D01*
X60677Y-41322D01*
X60709Y-41399D01*
X60884Y-41480D01*
X61077Y-41487D01*
X61258Y-41421D01*
X61290Y-41399D01*
X61322Y-41322D01*
X61322Y-41708D01*
X60029Y-41803D01*
X58610Y-41333D01*
X57478Y-40356D01*
X57180Y-39763D01*
X57271Y-39767D01*
X57444Y-39703D01*
X57475Y-39682D01*
X57505Y-39607D01*
X57197Y-39299D01*
X57191Y-39304D01*
X57191Y-39304D01*
X57196Y-39299D01*
X57191Y-39293D01*
X57191Y-39293D01*
X57197Y-39298D01*
X57202Y-39293D01*
X57202Y-39293D01*
X57197Y-39299D01*
X57505Y-39607D01*
X57580Y-39577D01*
X57658Y-39409D01*
X57665Y-39224D01*
X57601Y-39051D01*
X57580Y-39020D01*
X57519Y-38996D01*
X57541Y-38996D01*
X57600Y-38995D01*
X57656Y-38973D01*
X57698Y-38930D01*
X57721Y-38875D01*
X57721Y-38068D01*
X57698Y-38013D01*
X57685Y-38000D01*
X57698Y-37986D01*
X57721Y-37931D01*
X57721Y-37565D01*
X57683Y-37528D01*
X57197Y-37528D01*
X57197Y-37985D01*
X57197Y-38014D01*
X57197Y-38471D01*
X57683Y-38471D01*
X57721Y-38434D01*
X57721Y-38068D01*
X57721Y-38875D01*
X57721Y-38509D01*
X57683Y-38472D01*
X57197Y-38472D01*
X57197Y-38480D01*
X57196Y-38480D01*
X57196Y-38472D01*
X57188Y-38472D01*
X57188Y-38471D01*
X57196Y-38471D01*
X57196Y-38014D01*
X57196Y-37985D01*
X57196Y-37528D01*
X57188Y-37528D01*
X57188Y-37527D01*
X57196Y-37527D01*
X57196Y-37519D01*
X57197Y-37519D01*
X57197Y-37527D01*
X57683Y-37527D01*
X57721Y-37490D01*
X57721Y-37124D01*
X57698Y-37069D01*
X57656Y-37026D01*
X57600Y-37004D01*
X57541Y-37003D01*
X57519Y-37003D01*
X57580Y-36979D01*
X57658Y-36811D01*
X57665Y-36626D01*
X57601Y-36453D01*
X57580Y-36422D01*
X57505Y-36392D01*
X57197Y-36701D01*
X57202Y-36706D01*
X57202Y-36706D01*
X57197Y-36701D01*
X57191Y-36706D01*
X57191Y-36706D01*
X57196Y-36701D01*
X57191Y-36695D01*
X57191Y-36695D01*
X57197Y-36700D01*
X57505Y-36392D01*
X57475Y-36317D01*
X57307Y-36239D01*
X57127Y-36232D01*
X57167Y-36110D01*
X58144Y-34979D01*
X59222Y-34436D01*
X59160Y-34570D01*
X59152Y-34786D01*
X59227Y-34989D01*
X59251Y-35025D01*
X59334Y-35065D01*
X59699Y-34700D01*
X59694Y-34694D01*
X59694Y-34694D01*
X59700Y-34699D01*
X60065Y-34334D01*
X60033Y-34267D01*
X60970Y-34198D01*
X61032Y-34219D01*
X61010Y-34227D01*
X60974Y-34251D01*
X60934Y-34334D01*
X61300Y-34699D01*
X61305Y-34694D01*
X61305Y-34694D01*
X61300Y-34700D01*
X61665Y-35065D01*
X61717Y-35040D01*
X61737Y-35091D01*
X61808Y-35161D01*
X61900Y-35199D01*
X61904Y-35199D01*
X62029Y-35324D01*
X61907Y-35324D01*
X61879Y-35306D01*
X61800Y-35291D01*
X61665Y-35291D01*
X61665Y-35065D01*
X61300Y-34700D01*
X61299Y-34700D01*
X61299Y-34700D01*
X60934Y-34334D01*
X60851Y-34374D01*
X60760Y-34570D01*
X60752Y-34786D01*
X60827Y-34989D01*
X60851Y-35025D01*
X60934Y-35065D01*
X61299Y-34700D01*
X61299Y-34700D01*
X60934Y-35065D01*
X60974Y-35148D01*
X61170Y-35239D01*
X61386Y-35247D01*
X61589Y-35172D01*
X61625Y-35148D01*
X61665Y-35065D01*
X61665Y-35291D01*
X61052Y-35291D01*
X61052Y-35290D01*
X61010Y-35247D01*
X60954Y-35225D01*
X60895Y-35224D01*
X60445Y-35224D01*
X60390Y-35247D01*
X60347Y-35289D01*
X60325Y-35345D01*
X60324Y-35404D01*
X60324Y-35429D01*
X60247Y-35352D01*
X60247Y-35352D01*
X60247Y-34613D01*
X60172Y-34410D01*
X60148Y-34374D01*
X60065Y-34334D01*
X59700Y-34700D01*
X60065Y-35065D01*
X60148Y-35025D01*
X60239Y-34829D01*
X60247Y-34613D01*
X60247Y-35352D01*
X60179Y-35306D01*
X60100Y-35291D01*
X60052Y-35291D01*
X60052Y-35290D01*
X60010Y-35247D01*
X59954Y-35225D01*
X59895Y-35224D01*
X59847Y-35224D01*
X59989Y-35172D01*
X60025Y-35148D01*
X60065Y-35065D01*
X59700Y-34700D01*
X59334Y-35065D01*
X59374Y-35148D01*
X59540Y-35224D01*
X59445Y-35224D01*
X59390Y-35247D01*
X59347Y-35289D01*
X59325Y-35345D01*
X59324Y-35404D01*
X59324Y-35654D01*
X59347Y-35709D01*
X59389Y-35752D01*
X59445Y-35774D01*
X59504Y-35775D01*
X59954Y-35775D01*
X60009Y-35752D01*
X60033Y-35728D01*
X60324Y-36020D01*
X60324Y-36179D01*
X60252Y-36252D01*
X60206Y-36320D01*
X60191Y-36400D01*
X60191Y-36451D01*
X60144Y-36432D01*
X60084Y-36431D01*
X60075Y-36431D01*
X60075Y-36254D01*
X60075Y-35945D01*
X60052Y-35890D01*
X60010Y-35847D01*
X59954Y-35825D01*
X59895Y-35824D01*
X59737Y-35825D01*
X59700Y-35862D01*
X59700Y-36099D01*
X60037Y-36099D01*
X60075Y-36062D01*
X60075Y-35945D01*
X60075Y-36254D01*
X60075Y-36137D01*
X60037Y-36100D01*
X59700Y-36100D01*
X59700Y-36337D01*
X59737Y-36375D01*
X59895Y-36375D01*
X59954Y-36374D01*
X60010Y-36352D01*
X60052Y-36309D01*
X60075Y-36254D01*
X60075Y-36431D01*
X59699Y-36431D01*
X59699Y-36337D01*
X59699Y-36100D01*
X59699Y-36099D01*
X59699Y-35862D01*
X59662Y-35825D01*
X59504Y-35824D01*
X59445Y-35825D01*
X59389Y-35847D01*
X59347Y-35890D01*
X59324Y-35945D01*
X59325Y-36062D01*
X59362Y-36099D01*
X59699Y-36099D01*
X59699Y-36100D01*
X59362Y-36100D01*
X59325Y-36137D01*
X59324Y-36254D01*
X59347Y-36309D01*
X59389Y-36352D01*
X59445Y-36374D01*
X59504Y-36375D01*
X59662Y-36375D01*
X59699Y-36337D01*
X59699Y-36431D01*
X59651Y-36431D01*
X59596Y-36454D01*
X59560Y-36491D01*
X59386Y-36491D01*
X59275Y-36379D01*
X59275Y-36145D01*
X59275Y-35854D01*
X59275Y-35545D01*
X59252Y-35490D01*
X59210Y-35447D01*
X59154Y-35425D01*
X59095Y-35424D01*
X58937Y-35425D01*
X58900Y-35462D01*
X58900Y-35699D01*
X59237Y-35699D01*
X59275Y-35662D01*
X59275Y-35545D01*
X59275Y-35854D01*
X59275Y-35737D01*
X59237Y-35700D01*
X58900Y-35700D01*
X58900Y-35937D01*
X58937Y-35975D01*
X59095Y-35975D01*
X59154Y-35974D01*
X59210Y-35952D01*
X59252Y-35909D01*
X59275Y-35854D01*
X59275Y-36145D01*
X59252Y-36090D01*
X59210Y-36047D01*
X59154Y-36025D01*
X59095Y-36024D01*
X58899Y-36024D01*
X58899Y-35937D01*
X58899Y-35700D01*
X58899Y-35699D01*
X58899Y-35462D01*
X58862Y-35425D01*
X58704Y-35424D01*
X58645Y-35425D01*
X58589Y-35447D01*
X58547Y-35490D01*
X58524Y-35545D01*
X58525Y-35662D01*
X58562Y-35699D01*
X58899Y-35699D01*
X58899Y-35700D01*
X58562Y-35700D01*
X58525Y-35737D01*
X58524Y-35854D01*
X58547Y-35909D01*
X58589Y-35952D01*
X58645Y-35974D01*
X58704Y-35975D01*
X58862Y-35975D01*
X58899Y-35937D01*
X58899Y-36024D01*
X58645Y-36024D01*
X58590Y-36047D01*
X58547Y-36089D01*
X58525Y-36145D01*
X58524Y-36204D01*
X58524Y-36295D01*
X58476Y-36275D01*
X58416Y-36274D01*
X58208Y-36275D01*
X58171Y-36312D01*
X58171Y-36739D01*
X58559Y-36739D01*
X58596Y-36702D01*
X58596Y-36554D01*
X58645Y-36574D01*
X58704Y-36575D01*
X58879Y-36575D01*
X59152Y-36847D01*
X59152Y-36847D01*
X59220Y-36893D01*
X59220Y-36893D01*
X59284Y-36905D01*
X59299Y-36909D01*
X59299Y-36908D01*
X59300Y-36909D01*
X59560Y-36909D01*
X59596Y-36945D01*
X59651Y-36967D01*
X59711Y-36968D01*
X60082Y-36968D01*
X59870Y-37179D01*
X59651Y-37179D01*
X59596Y-37202D01*
X59554Y-37244D01*
X59541Y-37275D01*
X59504Y-37300D01*
X58662Y-38141D01*
X58657Y-38128D01*
X58665Y-38108D01*
X58665Y-38048D01*
X58665Y-37891D01*
X58657Y-37872D01*
X58665Y-37852D01*
X58665Y-37792D01*
X58665Y-37635D01*
X58657Y-37616D01*
X58665Y-37596D01*
X58665Y-37379D01*
X58642Y-37324D01*
X58600Y-37282D01*
X58596Y-37280D01*
X58596Y-37084D01*
X58596Y-36777D01*
X58559Y-36740D01*
X58171Y-36740D01*
X58171Y-37167D01*
X58208Y-37205D01*
X58416Y-37205D01*
X58476Y-37204D01*
X58531Y-37182D01*
X58573Y-37139D01*
X58596Y-37084D01*
X58596Y-37280D01*
X58545Y-37259D01*
X58485Y-37259D01*
X58287Y-37259D01*
X58250Y-37297D01*
X58250Y-37487D01*
X58628Y-37487D01*
X58665Y-37450D01*
X58665Y-37379D01*
X58665Y-37596D01*
X58665Y-37525D01*
X58628Y-37488D01*
X58250Y-37488D01*
X58250Y-37496D01*
X58249Y-37496D01*
X58249Y-37488D01*
X58249Y-37487D01*
X58249Y-37297D01*
X58212Y-37259D01*
X58170Y-37259D01*
X58170Y-37167D01*
X58170Y-36740D01*
X58170Y-36739D01*
X58170Y-36312D01*
X58133Y-36275D01*
X57925Y-36274D01*
X57865Y-36275D01*
X57810Y-36297D01*
X57768Y-36340D01*
X57745Y-36395D01*
X57745Y-36702D01*
X57783Y-36739D01*
X58170Y-36739D01*
X58170Y-36740D01*
X57783Y-36740D01*
X57745Y-36777D01*
X57745Y-37084D01*
X57768Y-37139D01*
X57810Y-37182D01*
X57865Y-37204D01*
X57925Y-37205D01*
X58133Y-37205D01*
X58170Y-37167D01*
X58170Y-37259D01*
X58014Y-37259D01*
X57954Y-37259D01*
X57899Y-37282D01*
X57857Y-37324D01*
X57834Y-37379D01*
X57834Y-37450D01*
X57872Y-37487D01*
X58249Y-37487D01*
X58249Y-37488D01*
X57872Y-37488D01*
X57834Y-37525D01*
X57834Y-37596D01*
X57842Y-37615D01*
X57834Y-37635D01*
X57834Y-37695D01*
X57834Y-37852D01*
X57842Y-37871D01*
X57834Y-37891D01*
X57834Y-37951D01*
X57834Y-38108D01*
X57842Y-38127D01*
X57834Y-38147D01*
X57834Y-38207D01*
X57834Y-38364D01*
X57842Y-38383D01*
X57834Y-38403D01*
X57834Y-38463D01*
X57834Y-38620D01*
X57857Y-38675D01*
X57899Y-38717D01*
X57954Y-38740D01*
X58014Y-38740D01*
X58545Y-38740D01*
X58592Y-38721D01*
X58788Y-38721D01*
X58867Y-38705D01*
X58867Y-38705D01*
X58935Y-38659D01*
X58947Y-38647D01*
X58993Y-38579D01*
X58993Y-38579D01*
X59009Y-38500D01*
X59009Y-38386D01*
X59045Y-38349D01*
X59044Y-38351D01*
X59044Y-38411D01*
X59044Y-38647D01*
X59067Y-38702D01*
X59109Y-38745D01*
X59121Y-38749D01*
X59110Y-38754D01*
X59067Y-38796D01*
X59044Y-38851D01*
X59044Y-38911D01*
X59044Y-39147D01*
X59067Y-39202D01*
X59084Y-39219D01*
X59073Y-39219D01*
X59041Y-39188D01*
X58949Y-39150D01*
X58850Y-39149D01*
X58758Y-39187D01*
X58688Y-39258D01*
X58650Y-39350D01*
X58649Y-39449D01*
X58687Y-39541D01*
X58695Y-39549D01*
X58519Y-39724D01*
X58476Y-39724D01*
X58531Y-39702D01*
X58573Y-39659D01*
X58596Y-39604D01*
X58596Y-38915D01*
X58573Y-38860D01*
X58531Y-38817D01*
X58476Y-38795D01*
X58416Y-38794D01*
X58208Y-38795D01*
X58171Y-38832D01*
X58171Y-39259D01*
X58559Y-39259D01*
X58596Y-39222D01*
X58596Y-38915D01*
X58596Y-39604D01*
X58596Y-39297D01*
X58559Y-39260D01*
X58171Y-39260D01*
X58171Y-39687D01*
X58208Y-39725D01*
X58245Y-39725D01*
X58190Y-39747D01*
X58170Y-39767D01*
X58170Y-39687D01*
X58170Y-39260D01*
X58170Y-39259D01*
X58170Y-38832D01*
X58133Y-38795D01*
X57925Y-38794D01*
X57865Y-38795D01*
X57810Y-38817D01*
X57768Y-38860D01*
X57745Y-38915D01*
X57745Y-39222D01*
X57783Y-39259D01*
X58170Y-39259D01*
X58170Y-39260D01*
X57783Y-39260D01*
X57745Y-39297D01*
X57745Y-39604D01*
X57768Y-39659D01*
X57810Y-39702D01*
X57865Y-39724D01*
X57925Y-39725D01*
X58133Y-39725D01*
X58170Y-39687D01*
X58170Y-39767D01*
X58147Y-39789D01*
X58125Y-39845D01*
X58124Y-39904D01*
X58124Y-40154D01*
X58147Y-40209D01*
X58189Y-40252D01*
X58245Y-40274D01*
X58304Y-40275D01*
X58754Y-40275D01*
X58809Y-40252D01*
X58852Y-40210D01*
X58874Y-40154D01*
X58875Y-40095D01*
X58875Y-39880D01*
X59027Y-39727D01*
X59027Y-39727D01*
X59043Y-39704D01*
X59058Y-39681D01*
X59067Y-39702D01*
X59109Y-39745D01*
X59121Y-39749D01*
X59110Y-39754D01*
X59067Y-39796D01*
X59044Y-39851D01*
X59044Y-39911D01*
X59044Y-40147D01*
X59048Y-40156D01*
X58833Y-40371D01*
X58810Y-40347D01*
X58754Y-40325D01*
X58695Y-40324D01*
X58245Y-40324D01*
X58190Y-40347D01*
X58147Y-40389D01*
X58125Y-40445D01*
X58124Y-40504D01*
X58124Y-40754D01*
X58147Y-40809D01*
X58189Y-40852D01*
X58245Y-40874D01*
X58304Y-40875D01*
X58754Y-40875D01*
X58809Y-40852D01*
X58852Y-40810D01*
X58852Y-40809D01*
X58900Y-40809D01*
X58979Y-40793D01*
X58979Y-40793D01*
X59047Y-40747D01*
X59499Y-40295D01*
X59773Y-40569D01*
X59725Y-40589D01*
X59589Y-40725D01*
X59515Y-40903D01*
X59515Y-41095D01*
X59589Y-41274D01*
X59725Y-41410D01*
X59903Y-41484D01*
X60095Y-41484D01*
X60274Y-41410D01*
X60410Y-41274D01*
X60484Y-41096D01*
X60484Y-40904D01*
X60457Y-40838D01*
X60672Y-40622D01*
X60672Y-40622D01*
X60672Y-40622D01*
X60718Y-40554D01*
X60718Y-40554D01*
X60730Y-40490D01*
X60734Y-40475D01*
X60733Y-40475D01*
X60734Y-40475D01*
X60734Y-38009D01*
X61027Y-37716D01*
X61246Y-37716D01*
X61301Y-37693D01*
X61337Y-37657D01*
X61374Y-37657D01*
X61375Y-37762D01*
X61412Y-37799D01*
X61749Y-37799D01*
X61749Y-37562D01*
X61716Y-37529D01*
X61770Y-37475D01*
X62004Y-37475D01*
X62059Y-37452D01*
X62102Y-37410D01*
X62124Y-37354D01*
X62125Y-37295D01*
X62125Y-37120D01*
X62597Y-36647D01*
X62597Y-36647D01*
X62597Y-36647D01*
X62643Y-36579D01*
X62643Y-36579D01*
X62655Y-36515D01*
X62659Y-36500D01*
X62658Y-36500D01*
X62659Y-36500D01*
X62659Y-35450D01*
X62643Y-35370D01*
X62643Y-35370D01*
X62597Y-35302D01*
X62200Y-34904D01*
X62200Y-34900D01*
X62162Y-34808D01*
X62091Y-34738D01*
X61999Y-34700D01*
X61900Y-34699D01*
X61843Y-34723D01*
X61847Y-34613D01*
X61795Y-34471D01*
X62389Y-34667D01*
X63520Y-35644D01*
X64192Y-36979D01*
X64301Y-38473D01*
M02*
