G04 (created by PCBNEW (2013-07-07 BZR 4022)-stable) date 10/23/2013 11:40:07 AM*
%MOIN*%
G04 Gerber Fmt 3.4, Leading zero omitted, Abs format*
%FSLAX34Y34*%
G01*
G70*
G90*
G04 APERTURE LIST*
%ADD10C,0.00590551*%
%ADD11C,0.0669*%
%ADD12C,0.063*%
%ADD13C,0.02*%
%ADD14C,0.0118*%
%ADD15C,0.01*%
G04 APERTURE END LIST*
G54D10*
G54D11*
X61500Y-41050D03*
X61500Y-42050D03*
X61500Y-38500D03*
X61500Y-39500D03*
G54D12*
X54447Y-40299D03*
X54447Y-37701D03*
G54D13*
X55950Y-41900D03*
X55175Y-41350D03*
X59250Y-39250D03*
X59900Y-39250D03*
X58150Y-41300D03*
X55300Y-41050D03*
X57050Y-42100D03*
X60300Y-41800D03*
X56300Y-41800D03*
X60300Y-41300D03*
X54350Y-42400D03*
X57600Y-42650D03*
X57100Y-37400D03*
X58150Y-40800D03*
X57650Y-36800D03*
X54650Y-36800D03*
X56300Y-38450D03*
G54D14*
X55400Y-41350D02*
X55175Y-41350D01*
X55400Y-41350D02*
X55950Y-41900D01*
X59900Y-39250D02*
X59250Y-39250D01*
X57900Y-41050D02*
X58150Y-41300D01*
X55300Y-41050D02*
X57900Y-41050D01*
X60000Y-42100D02*
X57050Y-42100D01*
X60300Y-41800D02*
X60000Y-42100D01*
X59800Y-41800D02*
X56300Y-41800D01*
X60300Y-41300D02*
X59800Y-41800D01*
X54600Y-42650D02*
X54350Y-42400D01*
X57600Y-42650D02*
X54600Y-42650D01*
X57100Y-39750D02*
X58150Y-40800D01*
X57100Y-37400D02*
X57100Y-39750D01*
X61250Y-40800D02*
X58150Y-40800D01*
X61500Y-41050D02*
X61250Y-40800D01*
X54650Y-36800D02*
X57650Y-36800D01*
X56300Y-38450D02*
X54650Y-36800D01*
G54D10*
G36*
X62125Y-42725D02*
X61987Y-42725D01*
X61987Y-41972D01*
X61984Y-41963D01*
X61984Y-40954D01*
X61984Y-39404D01*
X61984Y-38404D01*
X61910Y-38225D01*
X61774Y-38089D01*
X61596Y-38015D01*
X61404Y-38015D01*
X61225Y-38089D01*
X61089Y-38225D01*
X61015Y-38403D01*
X61015Y-38595D01*
X61089Y-38774D01*
X61225Y-38910D01*
X61403Y-38984D01*
X61595Y-38984D01*
X61774Y-38910D01*
X61910Y-38774D01*
X61984Y-38596D01*
X61984Y-38404D01*
X61984Y-39404D01*
X61910Y-39225D01*
X61774Y-39089D01*
X61596Y-39015D01*
X61404Y-39015D01*
X61225Y-39089D01*
X61089Y-39225D01*
X61015Y-39403D01*
X61015Y-39595D01*
X61089Y-39774D01*
X61225Y-39910D01*
X61403Y-39984D01*
X61595Y-39984D01*
X61774Y-39910D01*
X61910Y-39774D01*
X61984Y-39596D01*
X61984Y-39404D01*
X61984Y-40954D01*
X61910Y-40775D01*
X61774Y-40639D01*
X61596Y-40565D01*
X61404Y-40565D01*
X61312Y-40603D01*
X61250Y-40591D01*
X60150Y-40591D01*
X60150Y-39200D01*
X60112Y-39108D01*
X60041Y-39038D01*
X59949Y-39000D01*
X59850Y-38999D01*
X59758Y-39037D01*
X59755Y-39041D01*
X59394Y-39041D01*
X59391Y-39038D01*
X59299Y-39000D01*
X59200Y-38999D01*
X59108Y-39037D01*
X59038Y-39108D01*
X59000Y-39200D01*
X58999Y-39299D01*
X59037Y-39391D01*
X59108Y-39461D01*
X59200Y-39499D01*
X59299Y-39500D01*
X59391Y-39462D01*
X59394Y-39459D01*
X59755Y-39459D01*
X59758Y-39461D01*
X59850Y-39499D01*
X59949Y-39500D01*
X60041Y-39462D01*
X60111Y-39391D01*
X60149Y-39299D01*
X60150Y-39200D01*
X60150Y-40591D01*
X58294Y-40591D01*
X58291Y-40588D01*
X58199Y-40550D01*
X58195Y-40550D01*
X57900Y-40254D01*
X57900Y-36750D01*
X57862Y-36658D01*
X57791Y-36588D01*
X57699Y-36550D01*
X57600Y-36549D01*
X57508Y-36587D01*
X57505Y-36591D01*
X54794Y-36591D01*
X54791Y-36588D01*
X54699Y-36550D01*
X54600Y-36549D01*
X54508Y-36587D01*
X54438Y-36658D01*
X54400Y-36750D01*
X54399Y-36849D01*
X54437Y-36941D01*
X54508Y-37011D01*
X54600Y-37049D01*
X54604Y-37049D01*
X56049Y-38495D01*
X56049Y-38499D01*
X56087Y-38591D01*
X56158Y-38661D01*
X56250Y-38699D01*
X56349Y-38700D01*
X56441Y-38662D01*
X56511Y-38591D01*
X56549Y-38499D01*
X56550Y-38400D01*
X56512Y-38308D01*
X56441Y-38238D01*
X56349Y-38200D01*
X56345Y-38200D01*
X55154Y-37009D01*
X57505Y-37009D01*
X57508Y-37011D01*
X57600Y-37049D01*
X57699Y-37050D01*
X57791Y-37012D01*
X57861Y-36941D01*
X57899Y-36849D01*
X57900Y-36750D01*
X57900Y-40254D01*
X57309Y-39663D01*
X57309Y-37544D01*
X57311Y-37541D01*
X57349Y-37449D01*
X57350Y-37350D01*
X57312Y-37258D01*
X57241Y-37188D01*
X57149Y-37150D01*
X57050Y-37149D01*
X56958Y-37187D01*
X56888Y-37258D01*
X56850Y-37350D01*
X56849Y-37449D01*
X56887Y-37541D01*
X56891Y-37544D01*
X56891Y-39750D01*
X56906Y-39829D01*
X56952Y-39897D01*
X57895Y-40841D01*
X55444Y-40841D01*
X55441Y-40838D01*
X55349Y-40800D01*
X55250Y-40799D01*
X55158Y-40837D01*
X55088Y-40908D01*
X55050Y-41000D01*
X55049Y-41099D01*
X55087Y-41191D01*
X55158Y-41261D01*
X55250Y-41299D01*
X55349Y-41300D01*
X55441Y-41262D01*
X55444Y-41259D01*
X57813Y-41259D01*
X57899Y-41345D01*
X57899Y-41349D01*
X57937Y-41441D01*
X58008Y-41511D01*
X58100Y-41549D01*
X58199Y-41550D01*
X58291Y-41512D01*
X58361Y-41441D01*
X58399Y-41349D01*
X58400Y-41250D01*
X58362Y-41158D01*
X58291Y-41088D01*
X58199Y-41050D01*
X58199Y-41050D01*
X58291Y-41012D01*
X58294Y-41009D01*
X61015Y-41009D01*
X61015Y-41145D01*
X61089Y-41324D01*
X61225Y-41460D01*
X61403Y-41534D01*
X61595Y-41534D01*
X61774Y-41460D01*
X61910Y-41324D01*
X61984Y-41146D01*
X61984Y-40954D01*
X61984Y-41963D01*
X61921Y-41791D01*
X61899Y-41759D01*
X61822Y-41727D01*
X61822Y-41727D01*
X61822Y-41727D01*
X61790Y-41650D01*
X61615Y-41569D01*
X61422Y-41562D01*
X61241Y-41628D01*
X61209Y-41650D01*
X61177Y-41727D01*
X61500Y-42049D01*
X61822Y-41727D01*
X61822Y-41727D01*
X61500Y-42050D01*
X61822Y-42372D01*
X61899Y-42340D01*
X61980Y-42165D01*
X61987Y-41972D01*
X61987Y-42725D01*
X61822Y-42725D01*
X61822Y-42372D01*
X61500Y-42050D01*
X61499Y-42050D01*
X61499Y-42050D01*
X61177Y-41727D01*
X61100Y-41759D01*
X61019Y-41934D01*
X61012Y-42127D01*
X61078Y-42308D01*
X61100Y-42340D01*
X61177Y-42372D01*
X61499Y-42050D01*
X61499Y-42050D01*
X61177Y-42372D01*
X61209Y-42449D01*
X61384Y-42530D01*
X61577Y-42537D01*
X61758Y-42471D01*
X61790Y-42449D01*
X61822Y-42372D01*
X61822Y-42725D01*
X60550Y-42725D01*
X60550Y-41750D01*
X60512Y-41658D01*
X60441Y-41588D01*
X60349Y-41550D01*
X60349Y-41550D01*
X60441Y-41512D01*
X60511Y-41441D01*
X60549Y-41349D01*
X60550Y-41250D01*
X60512Y-41158D01*
X60441Y-41088D01*
X60349Y-41050D01*
X60250Y-41049D01*
X60158Y-41087D01*
X60088Y-41158D01*
X60050Y-41250D01*
X60050Y-41254D01*
X59713Y-41591D01*
X56444Y-41591D01*
X56441Y-41588D01*
X56349Y-41550D01*
X56250Y-41549D01*
X56158Y-41587D01*
X56088Y-41658D01*
X56050Y-41750D01*
X56049Y-41849D01*
X56087Y-41941D01*
X56158Y-42011D01*
X56250Y-42049D01*
X56349Y-42050D01*
X56441Y-42012D01*
X56444Y-42009D01*
X56817Y-42009D01*
X56800Y-42050D01*
X56799Y-42149D01*
X56837Y-42241D01*
X56908Y-42311D01*
X57000Y-42349D01*
X57099Y-42350D01*
X57191Y-42312D01*
X57194Y-42309D01*
X60000Y-42309D01*
X60079Y-42293D01*
X60079Y-42293D01*
X60147Y-42247D01*
X60345Y-42050D01*
X60349Y-42050D01*
X60441Y-42012D01*
X60511Y-41941D01*
X60549Y-41849D01*
X60550Y-41750D01*
X60550Y-42725D01*
X57839Y-42725D01*
X57849Y-42699D01*
X57850Y-42600D01*
X57812Y-42508D01*
X57741Y-42438D01*
X57649Y-42400D01*
X57550Y-42399D01*
X57458Y-42437D01*
X57455Y-42441D01*
X54915Y-42441D01*
X54915Y-40224D01*
X54915Y-37626D01*
X54851Y-37453D01*
X54830Y-37422D01*
X54755Y-37392D01*
X54755Y-37392D01*
X54755Y-37392D01*
X54725Y-37317D01*
X54557Y-37239D01*
X54372Y-37232D01*
X54199Y-37296D01*
X54168Y-37317D01*
X54138Y-37392D01*
X54447Y-37700D01*
X54755Y-37392D01*
X54755Y-37392D01*
X54447Y-37701D01*
X54755Y-38009D01*
X54830Y-37979D01*
X54908Y-37811D01*
X54915Y-37626D01*
X54915Y-40224D01*
X54851Y-40051D01*
X54830Y-40020D01*
X54755Y-39990D01*
X54755Y-39990D01*
X54755Y-39990D01*
X54755Y-38009D01*
X54447Y-37701D01*
X54138Y-38009D01*
X54168Y-38084D01*
X54336Y-38162D01*
X54521Y-38169D01*
X54694Y-38105D01*
X54725Y-38084D01*
X54755Y-38009D01*
X54755Y-39990D01*
X54725Y-39915D01*
X54557Y-39837D01*
X54372Y-39830D01*
X54199Y-39894D01*
X54168Y-39915D01*
X54138Y-39990D01*
X54447Y-40298D01*
X54755Y-39990D01*
X54755Y-39990D01*
X54447Y-40299D01*
X54755Y-40607D01*
X54830Y-40577D01*
X54908Y-40409D01*
X54915Y-40224D01*
X54915Y-42441D01*
X54755Y-42441D01*
X54755Y-40607D01*
X54447Y-40299D01*
X54138Y-40607D01*
X54168Y-40682D01*
X54336Y-40760D01*
X54521Y-40767D01*
X54694Y-40703D01*
X54725Y-40682D01*
X54755Y-40607D01*
X54755Y-42441D01*
X54686Y-42441D01*
X54600Y-42354D01*
X54600Y-42350D01*
X54562Y-42258D01*
X54491Y-42188D01*
X54399Y-42150D01*
X54300Y-42149D01*
X54208Y-42187D01*
X54138Y-42258D01*
X54100Y-42350D01*
X54099Y-42449D01*
X54137Y-42541D01*
X54208Y-42611D01*
X54300Y-42649D01*
X54304Y-42649D01*
X54379Y-42725D01*
X54025Y-42725D01*
X54025Y-40498D01*
X54042Y-40546D01*
X54063Y-40577D01*
X54138Y-40607D01*
X54446Y-40299D01*
X54138Y-39990D01*
X54063Y-40020D01*
X54025Y-40103D01*
X54025Y-37900D01*
X54042Y-37948D01*
X54063Y-37979D01*
X54138Y-38009D01*
X54446Y-37701D01*
X54138Y-37392D01*
X54063Y-37422D01*
X54025Y-37505D01*
X54025Y-35725D01*
X62125Y-35725D01*
X62125Y-42725D01*
X62125Y-42725D01*
G37*
G54D15*
X62125Y-42725D02*
X61987Y-42725D01*
X61987Y-41972D01*
X61984Y-41963D01*
X61984Y-40954D01*
X61984Y-39404D01*
X61984Y-38404D01*
X61910Y-38225D01*
X61774Y-38089D01*
X61596Y-38015D01*
X61404Y-38015D01*
X61225Y-38089D01*
X61089Y-38225D01*
X61015Y-38403D01*
X61015Y-38595D01*
X61089Y-38774D01*
X61225Y-38910D01*
X61403Y-38984D01*
X61595Y-38984D01*
X61774Y-38910D01*
X61910Y-38774D01*
X61984Y-38596D01*
X61984Y-38404D01*
X61984Y-39404D01*
X61910Y-39225D01*
X61774Y-39089D01*
X61596Y-39015D01*
X61404Y-39015D01*
X61225Y-39089D01*
X61089Y-39225D01*
X61015Y-39403D01*
X61015Y-39595D01*
X61089Y-39774D01*
X61225Y-39910D01*
X61403Y-39984D01*
X61595Y-39984D01*
X61774Y-39910D01*
X61910Y-39774D01*
X61984Y-39596D01*
X61984Y-39404D01*
X61984Y-40954D01*
X61910Y-40775D01*
X61774Y-40639D01*
X61596Y-40565D01*
X61404Y-40565D01*
X61312Y-40603D01*
X61250Y-40591D01*
X60150Y-40591D01*
X60150Y-39200D01*
X60112Y-39108D01*
X60041Y-39038D01*
X59949Y-39000D01*
X59850Y-38999D01*
X59758Y-39037D01*
X59755Y-39041D01*
X59394Y-39041D01*
X59391Y-39038D01*
X59299Y-39000D01*
X59200Y-38999D01*
X59108Y-39037D01*
X59038Y-39108D01*
X59000Y-39200D01*
X58999Y-39299D01*
X59037Y-39391D01*
X59108Y-39461D01*
X59200Y-39499D01*
X59299Y-39500D01*
X59391Y-39462D01*
X59394Y-39459D01*
X59755Y-39459D01*
X59758Y-39461D01*
X59850Y-39499D01*
X59949Y-39500D01*
X60041Y-39462D01*
X60111Y-39391D01*
X60149Y-39299D01*
X60150Y-39200D01*
X60150Y-40591D01*
X58294Y-40591D01*
X58291Y-40588D01*
X58199Y-40550D01*
X58195Y-40550D01*
X57900Y-40254D01*
X57900Y-36750D01*
X57862Y-36658D01*
X57791Y-36588D01*
X57699Y-36550D01*
X57600Y-36549D01*
X57508Y-36587D01*
X57505Y-36591D01*
X54794Y-36591D01*
X54791Y-36588D01*
X54699Y-36550D01*
X54600Y-36549D01*
X54508Y-36587D01*
X54438Y-36658D01*
X54400Y-36750D01*
X54399Y-36849D01*
X54437Y-36941D01*
X54508Y-37011D01*
X54600Y-37049D01*
X54604Y-37049D01*
X56049Y-38495D01*
X56049Y-38499D01*
X56087Y-38591D01*
X56158Y-38661D01*
X56250Y-38699D01*
X56349Y-38700D01*
X56441Y-38662D01*
X56511Y-38591D01*
X56549Y-38499D01*
X56550Y-38400D01*
X56512Y-38308D01*
X56441Y-38238D01*
X56349Y-38200D01*
X56345Y-38200D01*
X55154Y-37009D01*
X57505Y-37009D01*
X57508Y-37011D01*
X57600Y-37049D01*
X57699Y-37050D01*
X57791Y-37012D01*
X57861Y-36941D01*
X57899Y-36849D01*
X57900Y-36750D01*
X57900Y-40254D01*
X57309Y-39663D01*
X57309Y-37544D01*
X57311Y-37541D01*
X57349Y-37449D01*
X57350Y-37350D01*
X57312Y-37258D01*
X57241Y-37188D01*
X57149Y-37150D01*
X57050Y-37149D01*
X56958Y-37187D01*
X56888Y-37258D01*
X56850Y-37350D01*
X56849Y-37449D01*
X56887Y-37541D01*
X56891Y-37544D01*
X56891Y-39750D01*
X56906Y-39829D01*
X56952Y-39897D01*
X57895Y-40841D01*
X55444Y-40841D01*
X55441Y-40838D01*
X55349Y-40800D01*
X55250Y-40799D01*
X55158Y-40837D01*
X55088Y-40908D01*
X55050Y-41000D01*
X55049Y-41099D01*
X55087Y-41191D01*
X55158Y-41261D01*
X55250Y-41299D01*
X55349Y-41300D01*
X55441Y-41262D01*
X55444Y-41259D01*
X57813Y-41259D01*
X57899Y-41345D01*
X57899Y-41349D01*
X57937Y-41441D01*
X58008Y-41511D01*
X58100Y-41549D01*
X58199Y-41550D01*
X58291Y-41512D01*
X58361Y-41441D01*
X58399Y-41349D01*
X58400Y-41250D01*
X58362Y-41158D01*
X58291Y-41088D01*
X58199Y-41050D01*
X58199Y-41050D01*
X58291Y-41012D01*
X58294Y-41009D01*
X61015Y-41009D01*
X61015Y-41145D01*
X61089Y-41324D01*
X61225Y-41460D01*
X61403Y-41534D01*
X61595Y-41534D01*
X61774Y-41460D01*
X61910Y-41324D01*
X61984Y-41146D01*
X61984Y-40954D01*
X61984Y-41963D01*
X61921Y-41791D01*
X61899Y-41759D01*
X61822Y-41727D01*
X61822Y-41727D01*
X61822Y-41727D01*
X61790Y-41650D01*
X61615Y-41569D01*
X61422Y-41562D01*
X61241Y-41628D01*
X61209Y-41650D01*
X61177Y-41727D01*
X61500Y-42049D01*
X61822Y-41727D01*
X61822Y-41727D01*
X61500Y-42050D01*
X61822Y-42372D01*
X61899Y-42340D01*
X61980Y-42165D01*
X61987Y-41972D01*
X61987Y-42725D01*
X61822Y-42725D01*
X61822Y-42372D01*
X61500Y-42050D01*
X61499Y-42050D01*
X61499Y-42050D01*
X61177Y-41727D01*
X61100Y-41759D01*
X61019Y-41934D01*
X61012Y-42127D01*
X61078Y-42308D01*
X61100Y-42340D01*
X61177Y-42372D01*
X61499Y-42050D01*
X61499Y-42050D01*
X61177Y-42372D01*
X61209Y-42449D01*
X61384Y-42530D01*
X61577Y-42537D01*
X61758Y-42471D01*
X61790Y-42449D01*
X61822Y-42372D01*
X61822Y-42725D01*
X60550Y-42725D01*
X60550Y-41750D01*
X60512Y-41658D01*
X60441Y-41588D01*
X60349Y-41550D01*
X60349Y-41550D01*
X60441Y-41512D01*
X60511Y-41441D01*
X60549Y-41349D01*
X60550Y-41250D01*
X60512Y-41158D01*
X60441Y-41088D01*
X60349Y-41050D01*
X60250Y-41049D01*
X60158Y-41087D01*
X60088Y-41158D01*
X60050Y-41250D01*
X60050Y-41254D01*
X59713Y-41591D01*
X56444Y-41591D01*
X56441Y-41588D01*
X56349Y-41550D01*
X56250Y-41549D01*
X56158Y-41587D01*
X56088Y-41658D01*
X56050Y-41750D01*
X56049Y-41849D01*
X56087Y-41941D01*
X56158Y-42011D01*
X56250Y-42049D01*
X56349Y-42050D01*
X56441Y-42012D01*
X56444Y-42009D01*
X56817Y-42009D01*
X56800Y-42050D01*
X56799Y-42149D01*
X56837Y-42241D01*
X56908Y-42311D01*
X57000Y-42349D01*
X57099Y-42350D01*
X57191Y-42312D01*
X57194Y-42309D01*
X60000Y-42309D01*
X60079Y-42293D01*
X60079Y-42293D01*
X60147Y-42247D01*
X60345Y-42050D01*
X60349Y-42050D01*
X60441Y-42012D01*
X60511Y-41941D01*
X60549Y-41849D01*
X60550Y-41750D01*
X60550Y-42725D01*
X57839Y-42725D01*
X57849Y-42699D01*
X57850Y-42600D01*
X57812Y-42508D01*
X57741Y-42438D01*
X57649Y-42400D01*
X57550Y-42399D01*
X57458Y-42437D01*
X57455Y-42441D01*
X54915Y-42441D01*
X54915Y-40224D01*
X54915Y-37626D01*
X54851Y-37453D01*
X54830Y-37422D01*
X54755Y-37392D01*
X54755Y-37392D01*
X54755Y-37392D01*
X54725Y-37317D01*
X54557Y-37239D01*
X54372Y-37232D01*
X54199Y-37296D01*
X54168Y-37317D01*
X54138Y-37392D01*
X54447Y-37700D01*
X54755Y-37392D01*
X54755Y-37392D01*
X54447Y-37701D01*
X54755Y-38009D01*
X54830Y-37979D01*
X54908Y-37811D01*
X54915Y-37626D01*
X54915Y-40224D01*
X54851Y-40051D01*
X54830Y-40020D01*
X54755Y-39990D01*
X54755Y-39990D01*
X54755Y-39990D01*
X54755Y-38009D01*
X54447Y-37701D01*
X54138Y-38009D01*
X54168Y-38084D01*
X54336Y-38162D01*
X54521Y-38169D01*
X54694Y-38105D01*
X54725Y-38084D01*
X54755Y-38009D01*
X54755Y-39990D01*
X54725Y-39915D01*
X54557Y-39837D01*
X54372Y-39830D01*
X54199Y-39894D01*
X54168Y-39915D01*
X54138Y-39990D01*
X54447Y-40298D01*
X54755Y-39990D01*
X54755Y-39990D01*
X54447Y-40299D01*
X54755Y-40607D01*
X54830Y-40577D01*
X54908Y-40409D01*
X54915Y-40224D01*
X54915Y-42441D01*
X54755Y-42441D01*
X54755Y-40607D01*
X54447Y-40299D01*
X54138Y-40607D01*
X54168Y-40682D01*
X54336Y-40760D01*
X54521Y-40767D01*
X54694Y-40703D01*
X54725Y-40682D01*
X54755Y-40607D01*
X54755Y-42441D01*
X54686Y-42441D01*
X54600Y-42354D01*
X54600Y-42350D01*
X54562Y-42258D01*
X54491Y-42188D01*
X54399Y-42150D01*
X54300Y-42149D01*
X54208Y-42187D01*
X54138Y-42258D01*
X54100Y-42350D01*
X54099Y-42449D01*
X54137Y-42541D01*
X54208Y-42611D01*
X54300Y-42649D01*
X54304Y-42649D01*
X54379Y-42725D01*
X54025Y-42725D01*
X54025Y-40498D01*
X54042Y-40546D01*
X54063Y-40577D01*
X54138Y-40607D01*
X54446Y-40299D01*
X54138Y-39990D01*
X54063Y-40020D01*
X54025Y-40103D01*
X54025Y-37900D01*
X54042Y-37948D01*
X54063Y-37979D01*
X54138Y-38009D01*
X54446Y-37701D01*
X54138Y-37392D01*
X54063Y-37422D01*
X54025Y-37505D01*
X54025Y-35725D01*
X62125Y-35725D01*
X62125Y-42725D01*
M02*
