G04 (created by PCBNEW (2013-jul-14)-product) date Thu 07 Nov 2013 08:56:16 PM EST*
%MOIN*%
G04 Gerber Fmt 3.4, Leading zero omitted, Abs format*
%FSLAX34Y34*%
G01*
G70*
G90*
G04 APERTURE LIST*
%ADD10C,0.005906*%
%ADD11R,0.073100X0.035700*%
%ADD12R,0.075100X0.083000*%
%ADD13R,0.094800X0.094800*%
%ADD14C,0.083000*%
%ADD15R,0.065000X0.045000*%
%ADD16R,0.081024X0.043622*%
%ADD17C,0.086900*%
%ADD18R,0.063300X0.043600*%
%ADD19C,0.098740*%
G04 APERTURE END LIST*
G54D10*
G54D11*
X58250Y-38512D03*
X58250Y-38256D03*
X58250Y-38000D03*
X58250Y-37744D03*
X58250Y-37488D03*
G54D12*
X58171Y-39260D03*
X58171Y-36740D03*
G54D13*
X57197Y-37528D03*
X57197Y-38472D03*
G54D14*
X57197Y-36701D03*
X57197Y-39299D03*
G54D15*
X58900Y-36300D03*
X58900Y-35700D03*
X59700Y-35500D03*
X59700Y-36100D03*
X60700Y-36100D03*
X60700Y-35500D03*
X61900Y-35600D03*
X61900Y-36200D03*
X61750Y-37200D03*
X61750Y-37800D03*
X62700Y-38400D03*
X62700Y-37800D03*
X58500Y-40600D03*
X58500Y-40000D03*
G54D16*
X59500Y-40000D03*
X59500Y-39500D03*
X59500Y-39000D03*
X59500Y-38500D03*
X61625Y-38500D03*
X61625Y-39000D03*
X61625Y-39500D03*
X61625Y-40000D03*
G54D17*
X60000Y-41000D03*
X61000Y-41000D03*
G54D18*
X61000Y-36700D03*
X61000Y-37074D03*
X61000Y-37448D03*
X59898Y-37448D03*
X59898Y-36700D03*
G54D19*
X59700Y-34700D03*
X61300Y-34700D03*
M02*
