M48
;DRILL file {Pcbnew (2012-01-19 BZR 3256)-stable} date 11/26/2012 8:22:28 AM
;FORMAT={-:-/ absolute / inch / decimal}
FMAT,2
INCH,TZ
T1C0.013
T2C0.047
T3C0.050
%
G90
G05
M72
T1
X5.216Y-3.898
X5.221Y-3.272
X5.303Y-3.961
X5.303Y-4.126
X5.303Y-4.177
X5.307Y-3.173
X5.307Y-4.075
X5.382Y-3.630
X5.465Y-3.575
X5.508Y-3.173
X5.516Y-3.350
X5.516Y-3.402
X5.516Y-3.925
X5.516Y-3.976
X5.520Y-4.024
X5.532Y-3.240
X5.587Y-3.331
X5.622Y-3.925
X5.626Y-3.240
X5.724Y-3.315
X5.728Y-3.917
X5.728Y-3.992
X5.728Y-4.091
X5.728Y-4.165
X5.756Y-3.441
X6.067Y-3.173
X6.067Y-3.469
X6.067Y-3.862
X6.067Y-4.158
T2
X5.166Y-3.417
X5.166Y-3.677
T3
X5.165Y-3.173
X5.165Y-3.272
X5.169Y-3.862
X5.169Y-3.961
X5.169Y-4.059
X5.169Y-4.158
X5.169Y-4.256
X6.122Y-3.173
X6.122Y-3.272
X6.122Y-3.469
X6.122Y-3.567
X6.122Y-3.862
X6.122Y-3.961
X6.122Y-4.158
X6.122Y-4.256
T0
M30
