G04 (created by PCBNEW (2013-07-07 BZR 4022)-stable) date 10/22/2013 8:23:24 AM*
%MOIN*%
G04 Gerber Fmt 3.4, Leading zero omitted, Abs format*
%FSLAX34Y34*%
G01*
G70*
G90*
G04 APERTURE LIST*
%ADD10C,0.00590551*%
%ADD11C,0.005*%
%ADD12C,0.0031*%
%ADD13C,0.01*%
%ADD14C,0.0045*%
%ADD15C,0.00688976*%
%ADD16C,0.0047*%
%ADD17C,0.012*%
G04 APERTURE END LIST*
G54D10*
G54D11*
X56050Y-37650D02*
X56050Y-36750D01*
X56050Y-36750D02*
X56550Y-36750D01*
X56550Y-36750D02*
X56550Y-37650D01*
X56550Y-37650D02*
X56050Y-37650D01*
X56400Y-41500D02*
X56400Y-40600D01*
X56400Y-40600D02*
X56900Y-40600D01*
X56900Y-40600D02*
X56900Y-41500D01*
X56900Y-41500D02*
X56400Y-41500D01*
X54900Y-36550D02*
X55800Y-36550D01*
X55800Y-36550D02*
X55800Y-37050D01*
X55800Y-37050D02*
X54900Y-37050D01*
X54900Y-37050D02*
X54900Y-36550D01*
G54D12*
X59549Y-36738D02*
G75*
G03X59549Y-36738I-62J0D01*
G74*
G01*
X60450Y-36400D02*
X60450Y-36800D01*
X59425Y-36400D02*
X59425Y-36800D01*
X60450Y-36800D02*
X59425Y-36800D01*
X59425Y-36400D02*
X60450Y-36400D01*
G54D11*
X55600Y-35850D02*
X56500Y-35850D01*
X56500Y-35850D02*
X56500Y-36350D01*
X56500Y-36350D02*
X55600Y-36350D01*
X55600Y-36350D02*
X55600Y-35850D01*
X58400Y-37650D02*
X57500Y-37650D01*
X57500Y-37650D02*
X57500Y-37150D01*
X57500Y-37150D02*
X58400Y-37150D01*
X58400Y-37150D02*
X58400Y-37650D01*
X55550Y-41700D02*
X55550Y-40800D01*
X55550Y-40800D02*
X56050Y-40800D01*
X56050Y-40800D02*
X56050Y-41700D01*
X56050Y-41700D02*
X55550Y-41700D01*
X61200Y-37250D02*
X61200Y-36350D01*
X61200Y-36350D02*
X61700Y-36350D01*
X61700Y-36350D02*
X61700Y-37250D01*
X61700Y-37250D02*
X61200Y-37250D01*
G54D13*
X56942Y-35746D02*
G75*
G03X56942Y-35746I-39J0D01*
G74*
G01*
G54D14*
X56361Y-37880D02*
X56371Y-37888D01*
X56380Y-37914D01*
X56380Y-37931D01*
X56371Y-37957D01*
X56352Y-37974D01*
X56333Y-37982D01*
X56295Y-37991D01*
X56266Y-37991D01*
X56228Y-37982D01*
X56209Y-37974D01*
X56190Y-37957D01*
X56180Y-37931D01*
X56180Y-37914D01*
X56190Y-37888D01*
X56200Y-37880D01*
X56380Y-37708D02*
X56380Y-37811D01*
X56380Y-37760D02*
X56180Y-37760D01*
X56209Y-37777D01*
X56228Y-37794D01*
X56238Y-37811D01*
X56311Y-40530D02*
X56321Y-40538D01*
X56330Y-40564D01*
X56330Y-40581D01*
X56321Y-40607D01*
X56302Y-40624D01*
X56283Y-40632D01*
X56245Y-40641D01*
X56216Y-40641D01*
X56178Y-40632D01*
X56159Y-40624D01*
X56140Y-40607D01*
X56130Y-40581D01*
X56130Y-40564D01*
X56140Y-40538D01*
X56150Y-40530D01*
X56150Y-40461D02*
X56140Y-40452D01*
X56130Y-40435D01*
X56130Y-40392D01*
X56140Y-40375D01*
X56150Y-40367D01*
X56169Y-40358D01*
X56188Y-40358D01*
X56216Y-40367D01*
X56330Y-40470D01*
X56330Y-40358D01*
X54817Y-36380D02*
X54817Y-36180D01*
X54860Y-36180D01*
X54885Y-36190D01*
X54902Y-36209D01*
X54911Y-36228D01*
X54920Y-36266D01*
X54920Y-36295D01*
X54911Y-36333D01*
X54902Y-36352D01*
X54885Y-36371D01*
X54860Y-36380D01*
X54817Y-36380D01*
X55091Y-36380D02*
X54988Y-36380D01*
X55040Y-36380D02*
X55040Y-36180D01*
X55022Y-36209D01*
X55005Y-36228D01*
X54988Y-36238D01*
G54D15*
X60516Y-41611D02*
X60516Y-41335D01*
X60516Y-41440D02*
X60543Y-41427D01*
X60595Y-41427D01*
X60621Y-41440D01*
X60635Y-41454D01*
X60648Y-41480D01*
X60648Y-41559D01*
X60635Y-41585D01*
X60621Y-41598D01*
X60595Y-41611D01*
X60543Y-41611D01*
X60516Y-41598D01*
X60884Y-41611D02*
X60884Y-41467D01*
X60871Y-41440D01*
X60845Y-41427D01*
X60792Y-41427D01*
X60766Y-41440D01*
X60884Y-41598D02*
X60858Y-41611D01*
X60792Y-41611D01*
X60766Y-41598D01*
X60753Y-41572D01*
X60753Y-41545D01*
X60766Y-41519D01*
X60792Y-41506D01*
X60858Y-41506D01*
X60884Y-41493D01*
X60976Y-41427D02*
X61081Y-41427D01*
X61015Y-41335D02*
X61015Y-41572D01*
X61028Y-41598D01*
X61054Y-41611D01*
X61081Y-41611D01*
X61173Y-41506D02*
X61383Y-41506D01*
X61278Y-41611D02*
X61278Y-41401D01*
X60566Y-42611D02*
X60566Y-42335D01*
X60566Y-42440D02*
X60593Y-42427D01*
X60645Y-42427D01*
X60671Y-42440D01*
X60685Y-42454D01*
X60698Y-42480D01*
X60698Y-42559D01*
X60685Y-42585D01*
X60671Y-42598D01*
X60645Y-42611D01*
X60593Y-42611D01*
X60566Y-42598D01*
X60934Y-42611D02*
X60934Y-42467D01*
X60921Y-42440D01*
X60895Y-42427D01*
X60842Y-42427D01*
X60816Y-42440D01*
X60934Y-42598D02*
X60908Y-42611D01*
X60842Y-42611D01*
X60816Y-42598D01*
X60803Y-42572D01*
X60803Y-42545D01*
X60816Y-42519D01*
X60842Y-42506D01*
X60908Y-42506D01*
X60934Y-42493D01*
X61026Y-42427D02*
X61131Y-42427D01*
X61065Y-42335D02*
X61065Y-42572D01*
X61078Y-42598D01*
X61104Y-42611D01*
X61131Y-42611D01*
X61223Y-42506D02*
X61433Y-42506D01*
X60988Y-38011D02*
X60961Y-37998D01*
X60948Y-37972D01*
X60948Y-37735D01*
X61198Y-37998D02*
X61171Y-38011D01*
X61119Y-38011D01*
X61093Y-37998D01*
X61080Y-37972D01*
X61080Y-37867D01*
X61093Y-37840D01*
X61119Y-37827D01*
X61171Y-37827D01*
X61198Y-37840D01*
X61211Y-37867D01*
X61211Y-37893D01*
X61080Y-37919D01*
X61447Y-38011D02*
X61447Y-37735D01*
X61447Y-37998D02*
X61421Y-38011D01*
X61368Y-38011D01*
X61342Y-37998D01*
X61329Y-37985D01*
X61316Y-37959D01*
X61316Y-37880D01*
X61329Y-37854D01*
X61342Y-37840D01*
X61368Y-37827D01*
X61421Y-37827D01*
X61447Y-37840D01*
X61723Y-38011D02*
X61565Y-38011D01*
X61644Y-38011D02*
X61644Y-37735D01*
X61618Y-37775D01*
X61591Y-37801D01*
X61565Y-37814D01*
X61841Y-37906D02*
X62051Y-37906D01*
X60988Y-40211D02*
X60961Y-40198D01*
X60948Y-40172D01*
X60948Y-39935D01*
X61198Y-40198D02*
X61171Y-40211D01*
X61119Y-40211D01*
X61093Y-40198D01*
X61080Y-40172D01*
X61080Y-40067D01*
X61093Y-40040D01*
X61119Y-40027D01*
X61171Y-40027D01*
X61198Y-40040D01*
X61211Y-40067D01*
X61211Y-40093D01*
X61080Y-40119D01*
X61447Y-40211D02*
X61447Y-39935D01*
X61447Y-40198D02*
X61421Y-40211D01*
X61368Y-40211D01*
X61342Y-40198D01*
X61329Y-40185D01*
X61316Y-40159D01*
X61316Y-40080D01*
X61329Y-40054D01*
X61342Y-40040D01*
X61368Y-40027D01*
X61421Y-40027D01*
X61447Y-40040D01*
X61723Y-40211D02*
X61565Y-40211D01*
X61644Y-40211D02*
X61644Y-39935D01*
X61618Y-39975D01*
X61591Y-40001D01*
X61565Y-40014D01*
X61841Y-40106D02*
X62051Y-40106D01*
X61946Y-40211D02*
X61946Y-40001D01*
G54D16*
X60600Y-36078D02*
X60585Y-36107D01*
X60557Y-36135D01*
X60514Y-36178D01*
X60500Y-36207D01*
X60500Y-36235D01*
X60571Y-36221D02*
X60557Y-36250D01*
X60528Y-36278D01*
X60471Y-36292D01*
X60371Y-36292D01*
X60314Y-36278D01*
X60285Y-36250D01*
X60271Y-36221D01*
X60271Y-36164D01*
X60285Y-36135D01*
X60314Y-36107D01*
X60371Y-36092D01*
X60471Y-36092D01*
X60528Y-36107D01*
X60557Y-36135D01*
X60571Y-36164D01*
X60571Y-36221D01*
X60571Y-35807D02*
X60571Y-35978D01*
X60571Y-35892D02*
X60271Y-35892D01*
X60314Y-35921D01*
X60342Y-35950D01*
X60357Y-35978D01*
G54D14*
X56420Y-36580D02*
X56360Y-36485D01*
X56317Y-36580D02*
X56317Y-36380D01*
X56385Y-36380D01*
X56402Y-36390D01*
X56411Y-36400D01*
X56420Y-36419D01*
X56420Y-36447D01*
X56411Y-36466D01*
X56402Y-36476D01*
X56385Y-36485D01*
X56317Y-36485D01*
X56591Y-36580D02*
X56488Y-36580D01*
X56540Y-36580D02*
X56540Y-36380D01*
X56522Y-36409D01*
X56505Y-36428D01*
X56488Y-36438D01*
X58620Y-37480D02*
X58560Y-37385D01*
X58517Y-37480D02*
X58517Y-37280D01*
X58585Y-37280D01*
X58602Y-37290D01*
X58611Y-37300D01*
X58620Y-37319D01*
X58620Y-37347D01*
X58611Y-37366D01*
X58602Y-37376D01*
X58585Y-37385D01*
X58517Y-37385D01*
X58688Y-37300D02*
X58697Y-37290D01*
X58714Y-37280D01*
X58757Y-37280D01*
X58774Y-37290D01*
X58782Y-37300D01*
X58791Y-37319D01*
X58791Y-37338D01*
X58782Y-37366D01*
X58680Y-37480D01*
X58791Y-37480D01*
X55380Y-40930D02*
X55285Y-40990D01*
X55380Y-41032D02*
X55180Y-41032D01*
X55180Y-40964D01*
X55190Y-40947D01*
X55200Y-40938D01*
X55219Y-40930D01*
X55247Y-40930D01*
X55266Y-40938D01*
X55276Y-40947D01*
X55285Y-40964D01*
X55285Y-41032D01*
X55180Y-40870D02*
X55180Y-40758D01*
X55257Y-40818D01*
X55257Y-40792D01*
X55266Y-40775D01*
X55276Y-40767D01*
X55295Y-40758D01*
X55342Y-40758D01*
X55361Y-40767D01*
X55371Y-40775D01*
X55380Y-40792D01*
X55380Y-40844D01*
X55371Y-40861D01*
X55361Y-40870D01*
X61120Y-36230D02*
X61060Y-36135D01*
X61017Y-36230D02*
X61017Y-36030D01*
X61085Y-36030D01*
X61102Y-36040D01*
X61111Y-36050D01*
X61120Y-36069D01*
X61120Y-36097D01*
X61111Y-36116D01*
X61102Y-36126D01*
X61085Y-36135D01*
X61017Y-36135D01*
X61274Y-36097D02*
X61274Y-36230D01*
X61231Y-36021D02*
X61188Y-36164D01*
X61300Y-36164D01*
G54D15*
X58982Y-37698D02*
X59021Y-37711D01*
X59087Y-37711D01*
X59113Y-37698D01*
X59126Y-37685D01*
X59140Y-37659D01*
X59140Y-37632D01*
X59126Y-37606D01*
X59113Y-37593D01*
X59087Y-37580D01*
X59035Y-37567D01*
X59008Y-37554D01*
X58995Y-37540D01*
X58982Y-37514D01*
X58982Y-37488D01*
X58995Y-37462D01*
X59008Y-37449D01*
X59035Y-37435D01*
X59100Y-37435D01*
X59140Y-37449D01*
X59231Y-37435D02*
X59297Y-37711D01*
X59350Y-37514D01*
X59402Y-37711D01*
X59468Y-37435D01*
X59717Y-37711D02*
X59559Y-37711D01*
X59638Y-37711D02*
X59638Y-37435D01*
X59612Y-37475D01*
X59586Y-37501D01*
X59559Y-37514D01*
X58590Y-36285D02*
X58590Y-36509D01*
X58603Y-36535D01*
X58616Y-36548D01*
X58642Y-36561D01*
X58695Y-36561D01*
X58721Y-36548D01*
X58734Y-36535D01*
X58747Y-36509D01*
X58747Y-36285D01*
X59023Y-36561D02*
X58865Y-36561D01*
X58944Y-36561D02*
X58944Y-36285D01*
X58918Y-36325D01*
X58891Y-36351D01*
X58865Y-36364D01*
X60240Y-40535D02*
X60240Y-40759D01*
X60253Y-40785D01*
X60266Y-40798D01*
X60292Y-40811D01*
X60345Y-40811D01*
X60371Y-40798D01*
X60384Y-40785D01*
X60397Y-40759D01*
X60397Y-40535D01*
X60515Y-40562D02*
X60528Y-40549D01*
X60554Y-40535D01*
X60620Y-40535D01*
X60646Y-40549D01*
X60659Y-40562D01*
X60673Y-40588D01*
X60673Y-40614D01*
X60659Y-40654D01*
X60502Y-40811D01*
X60673Y-40811D01*
G54D17*
X57485Y-40400D02*
X57514Y-40371D01*
X57542Y-40400D01*
X57514Y-40428D01*
X57485Y-40400D01*
X57542Y-40400D01*
G54D15*
X56765Y-41948D02*
X56739Y-41961D01*
X56686Y-41961D01*
X56660Y-41948D01*
X56647Y-41935D01*
X56634Y-41909D01*
X56634Y-41830D01*
X56647Y-41804D01*
X56660Y-41790D01*
X56686Y-41777D01*
X56739Y-41777D01*
X56765Y-41790D01*
X56159Y-41961D02*
X56159Y-41685D01*
X56159Y-41948D02*
X56132Y-41961D01*
X56080Y-41961D01*
X56054Y-41948D01*
X56040Y-41935D01*
X56027Y-41909D01*
X56027Y-41830D01*
X56040Y-41804D01*
X56054Y-41790D01*
X56080Y-41777D01*
X56132Y-41777D01*
X56159Y-41790D01*
X55459Y-41627D02*
X55459Y-41850D01*
X55445Y-41877D01*
X55432Y-41890D01*
X55406Y-41903D01*
X55367Y-41903D01*
X55340Y-41890D01*
X55459Y-41798D02*
X55432Y-41811D01*
X55380Y-41811D01*
X55354Y-41798D01*
X55340Y-41785D01*
X55327Y-41759D01*
X55327Y-41680D01*
X55340Y-41654D01*
X55354Y-41640D01*
X55380Y-41627D01*
X55432Y-41627D01*
X55459Y-41640D01*
X54984Y-41677D02*
X55050Y-41861D01*
X55115Y-41677D01*
X54581Y-41911D02*
X54581Y-41727D01*
X54581Y-41754D02*
X54595Y-41740D01*
X54621Y-41727D01*
X54660Y-41727D01*
X54686Y-41740D01*
X54700Y-41767D01*
X54700Y-41911D01*
X54700Y-41767D02*
X54713Y-41740D01*
X54739Y-41727D01*
X54778Y-41727D01*
X54804Y-41740D01*
X54818Y-41767D01*
X54818Y-41911D01*
X55935Y-39091D02*
X56132Y-39091D01*
X56172Y-39104D01*
X56198Y-39131D01*
X56211Y-39170D01*
X56211Y-39196D01*
X56211Y-38816D02*
X56211Y-38973D01*
X56211Y-38895D02*
X55935Y-38895D01*
X55975Y-38921D01*
X56001Y-38947D01*
X56014Y-38973D01*
M02*
