G04 (created by PCBNEW (2013-07-07 BZR 4022)-stable) date 11/7/2013 9:25:50 PM*
%MOIN*%
G04 Gerber Fmt 3.4, Leading zero omitted, Abs format*
%FSLAX34Y34*%
G01*
G70*
G90*
G04 APERTURE LIST*
%ADD10C,0.00590551*%
%ADD11C,0.083*%
%ADD12R,0.083X0.0751*%
%ADD13R,0.0515X0.0594*%
%ADD14R,0.065X0.045*%
%ADD15C,0.0869*%
%ADD16C,0.0987402*%
G04 APERTURE END LIST*
G54D10*
G54D11*
X57197Y-36701D03*
X57197Y-39299D03*
G54D12*
X58846Y-37114D03*
X62154Y-37114D03*
X58846Y-38886D03*
X62154Y-38886D03*
G54D13*
X63500Y-37467D03*
X63875Y-38333D03*
X63125Y-38333D03*
G54D14*
X60900Y-39400D03*
X60900Y-40000D03*
X60100Y-39400D03*
X60100Y-40000D03*
G54D10*
G36*
X62221Y-39913D02*
X63086Y-40778D01*
X62499Y-41365D01*
X61634Y-40500D01*
X62221Y-39913D01*
X62221Y-39913D01*
G37*
G36*
X63000Y-39134D02*
X63865Y-39999D01*
X63278Y-40586D01*
X62413Y-39721D01*
X63000Y-39134D01*
X63000Y-39134D01*
G37*
G36*
X63086Y-35221D02*
X62221Y-36086D01*
X61634Y-35499D01*
X62499Y-34634D01*
X63086Y-35221D01*
X63086Y-35221D01*
G37*
G36*
X63865Y-36000D02*
X63000Y-36865D01*
X62413Y-36278D01*
X63278Y-35413D01*
X63865Y-36000D01*
X63865Y-36000D01*
G37*
G36*
X58778Y-36086D02*
X57913Y-35221D01*
X58500Y-34634D01*
X59365Y-35499D01*
X58778Y-36086D01*
X58778Y-36086D01*
G37*
G36*
X57999Y-36865D02*
X57134Y-36000D01*
X57721Y-35413D01*
X58586Y-36278D01*
X57999Y-36865D01*
X57999Y-36865D01*
G37*
G36*
X57913Y-40778D02*
X58778Y-39913D01*
X59365Y-40500D01*
X58500Y-41365D01*
X57913Y-40778D01*
X57913Y-40778D01*
G37*
G36*
X57134Y-39999D02*
X57999Y-39134D01*
X58586Y-39721D01*
X57721Y-40586D01*
X57134Y-39999D01*
X57134Y-39999D01*
G37*
G54D15*
X60000Y-41000D03*
X61000Y-41000D03*
G54D16*
X59700Y-34700D03*
X61300Y-34700D03*
M02*
