G04 (created by PCBNEW-RS274X (2012-01-19 BZR 3256)-stable) date 11/26/2012 8:22:25 AM*
G01*
G70*
G90*
%MOIN*%
G04 Gerber Fmt 3.4, Leading zero omitted, Abs format*
%FSLAX34Y34*%
G04 APERTURE LIST*
%ADD10C,0.006000*%
%ADD11C,0.086900*%
%ADD12C,0.083000*%
G04 APERTURE END LIST*
G54D10*
G54D11*
X61220Y-39606D03*
X51693Y-42559D03*
X51693Y-41575D03*
X51693Y-40591D03*
X51693Y-39606D03*
X51693Y-38622D03*
X51654Y-31732D03*
X51654Y-32717D03*
X61220Y-31732D03*
X61220Y-32717D03*
X61220Y-34685D03*
X61220Y-35669D03*
X61220Y-38622D03*
X61220Y-42559D03*
X61220Y-41575D03*
G54D12*
X51664Y-36771D03*
X51664Y-34173D03*
G54D10*
G36*
X56466Y-35802D02*
X56614Y-35012D01*
X57244Y-35012D01*
X57392Y-35802D01*
X56466Y-35802D01*
X56466Y-35802D01*
G37*
G36*
X55722Y-36495D02*
X55268Y-35831D01*
X55713Y-35386D01*
X56377Y-35840D01*
X55722Y-36495D01*
X55722Y-36495D01*
G37*
G36*
X55684Y-37510D02*
X54894Y-37362D01*
X54894Y-36732D01*
X55684Y-36584D01*
X55684Y-37510D01*
X55684Y-37510D01*
G37*
G36*
X56377Y-38254D02*
X55713Y-38708D01*
X55268Y-38263D01*
X55722Y-37599D01*
X56377Y-38254D01*
X56377Y-38254D01*
G37*
G36*
X57481Y-35840D02*
X58145Y-35386D01*
X58590Y-35831D01*
X58136Y-36495D01*
X57481Y-35840D01*
X57481Y-35840D01*
G37*
G36*
X58174Y-36584D02*
X58964Y-36732D01*
X58964Y-37362D01*
X58174Y-37510D01*
X58174Y-36584D01*
X58174Y-36584D01*
G37*
G36*
X58136Y-37599D02*
X58590Y-38263D01*
X58145Y-38708D01*
X57481Y-38254D01*
X58136Y-37599D01*
X58136Y-37599D01*
G37*
G36*
X56714Y-36655D02*
X56514Y-35553D01*
X57344Y-35553D01*
X57144Y-36655D01*
X56714Y-36655D01*
X56714Y-36655D01*
G37*
G36*
X56880Y-36603D02*
X57116Y-35508D01*
X57883Y-35826D01*
X57277Y-36767D01*
X56880Y-36603D01*
X56880Y-36603D01*
G37*
G36*
X56581Y-36767D02*
X55975Y-35826D01*
X56742Y-35508D01*
X56978Y-36603D01*
X56581Y-36767D01*
X56581Y-36767D01*
G37*
G36*
X56501Y-36923D02*
X55580Y-36285D01*
X56167Y-35698D01*
X56805Y-36619D01*
X56501Y-36923D01*
X56501Y-36923D01*
G37*
G36*
X57053Y-36619D02*
X57691Y-35698D01*
X58278Y-36285D01*
X57357Y-36923D01*
X57053Y-36619D01*
X57053Y-36619D01*
G37*
G36*
X56485Y-37096D02*
X55390Y-36860D01*
X55708Y-36093D01*
X56649Y-36699D01*
X56485Y-37096D01*
X56485Y-37096D01*
G37*
G36*
X57209Y-36699D02*
X58150Y-36093D01*
X58468Y-36860D01*
X57373Y-37096D01*
X57209Y-36699D01*
X57209Y-36699D01*
G37*
G36*
X56537Y-37262D02*
X55435Y-37462D01*
X55435Y-36632D01*
X56537Y-36832D01*
X56537Y-37262D01*
X56537Y-37262D01*
G37*
G36*
X57321Y-36832D02*
X58423Y-36632D01*
X58423Y-37462D01*
X57321Y-37262D01*
X57321Y-36832D01*
X57321Y-36832D01*
G37*
G36*
X57373Y-36998D02*
X58468Y-37234D01*
X58150Y-38001D01*
X57209Y-37395D01*
X57373Y-36998D01*
X57373Y-36998D01*
G37*
G36*
X56649Y-37395D02*
X55708Y-38001D01*
X55390Y-37234D01*
X56485Y-36998D01*
X56649Y-37395D01*
X56649Y-37395D01*
G37*
G36*
X56805Y-37475D02*
X56167Y-38396D01*
X55580Y-37809D01*
X56501Y-37171D01*
X56805Y-37475D01*
X56805Y-37475D01*
G37*
G36*
X57357Y-37171D02*
X58278Y-37809D01*
X57691Y-38396D01*
X57053Y-37475D01*
X57357Y-37171D01*
X57357Y-37171D01*
G37*
G36*
X57276Y-37286D02*
X57971Y-38147D01*
X57545Y-38431D01*
X57016Y-37459D01*
X57276Y-37286D01*
X57276Y-37286D01*
G37*
G36*
X56842Y-37459D02*
X56313Y-38431D01*
X55887Y-38147D01*
X56582Y-37286D01*
X56842Y-37459D01*
X56842Y-37459D01*
G37*
M02*
