G04 (created by PCBNEW-RS274X (2012-01-19 BZR 3256)-stable) date 11/26/2012 8:22:25 AM*
G01*
G70*
G90*
%MOIN*%
G04 Gerber Fmt 3.4, Leading zero omitted, Abs format*
%FSLAX34Y34*%
G04 APERTURE LIST*
%ADD10C,0.006000*%
%ADD11C,0.005000*%
%ADD12R,0.039400X0.027600*%
%ADD13R,0.035000X0.055000*%
%ADD14R,0.055000X0.035000*%
%ADD15R,0.059100X0.023600*%
%ADD16C,0.066900*%
%ADD17R,0.023600X0.043300*%
%ADD18R,0.053100X0.015700*%
%ADD19R,0.055100X0.063000*%
%ADD20R,0.074800X0.074800*%
%ADD21C,0.063000*%
%ADD22R,0.063000X0.055100*%
%ADD23C,0.020000*%
%ADD24C,0.006100*%
%ADD25C,0.011800*%
G04 APERTURE END LIST*
G54D10*
G54D11*
X52644Y-42959D02*
X52824Y-42959D01*
X52936Y-42891D02*
X52936Y-43049D01*
X52936Y-42914D02*
X52947Y-42902D01*
X52970Y-42891D01*
X53004Y-42891D01*
X53026Y-42902D01*
X53037Y-42925D01*
X53037Y-43049D01*
X53150Y-42891D02*
X53150Y-43127D01*
X53150Y-42902D02*
X53173Y-42891D01*
X53218Y-42891D01*
X53240Y-42902D01*
X53251Y-42914D01*
X53263Y-42936D01*
X53263Y-43004D01*
X53251Y-43026D01*
X53240Y-43037D01*
X53218Y-43049D01*
X53173Y-43049D01*
X53150Y-43037D01*
X53364Y-42959D02*
X53544Y-42959D01*
X53836Y-42891D02*
X53656Y-42959D01*
X53836Y-43026D01*
X53926Y-42813D02*
X54072Y-42813D01*
X53993Y-42902D01*
X54027Y-42902D01*
X54049Y-42914D01*
X54061Y-42925D01*
X54072Y-42947D01*
X54072Y-43004D01*
X54061Y-43026D01*
X54049Y-43037D01*
X54027Y-43049D01*
X53959Y-43049D01*
X53937Y-43037D01*
X53926Y-43026D01*
X54173Y-42959D02*
X54353Y-42959D01*
X54465Y-43049D02*
X54465Y-42891D01*
X54465Y-42914D02*
X54476Y-42902D01*
X54499Y-42891D01*
X54533Y-42891D01*
X54555Y-42902D01*
X54566Y-42925D01*
X54566Y-43049D01*
X54566Y-42925D02*
X54578Y-42902D01*
X54600Y-42891D01*
X54634Y-42891D01*
X54656Y-42902D01*
X54667Y-42925D01*
X54667Y-43049D01*
X54814Y-43049D02*
X54791Y-43037D01*
X54780Y-43026D01*
X54769Y-43004D01*
X54769Y-42936D01*
X54780Y-42914D01*
X54791Y-42902D01*
X54814Y-42891D01*
X54848Y-42891D01*
X54870Y-42902D01*
X54881Y-42914D01*
X54893Y-42936D01*
X54893Y-43004D01*
X54881Y-43026D01*
X54870Y-43037D01*
X54848Y-43049D01*
X54814Y-43049D01*
X54994Y-43049D02*
X54994Y-42891D01*
X54994Y-42936D02*
X55005Y-42914D01*
X55017Y-42902D01*
X55039Y-42891D01*
X55062Y-42891D01*
X55241Y-42891D02*
X55241Y-43082D01*
X55230Y-43105D01*
X55219Y-43116D01*
X55196Y-43127D01*
X55163Y-43127D01*
X55140Y-43116D01*
X55241Y-43037D02*
X55219Y-43049D01*
X55174Y-43049D01*
X55151Y-43037D01*
X55140Y-43026D01*
X55129Y-43004D01*
X55129Y-42936D01*
X55140Y-42914D01*
X55151Y-42902D01*
X55174Y-42891D01*
X55219Y-42891D01*
X55241Y-42902D01*
X55388Y-43049D02*
X55365Y-43037D01*
X55354Y-43026D01*
X55343Y-43004D01*
X55343Y-42936D01*
X55354Y-42914D01*
X55365Y-42902D01*
X55388Y-42891D01*
X55422Y-42891D01*
X55444Y-42902D01*
X55455Y-42914D01*
X55467Y-42936D01*
X55467Y-43004D01*
X55455Y-43026D01*
X55444Y-43037D01*
X55422Y-43049D01*
X55388Y-43049D01*
X55568Y-42959D02*
X55748Y-42959D01*
X56074Y-43049D02*
X56051Y-43037D01*
X56040Y-43015D01*
X56040Y-42813D01*
X56254Y-43037D02*
X56232Y-43049D01*
X56187Y-43049D01*
X56164Y-43037D01*
X56153Y-43015D01*
X56153Y-42925D01*
X56164Y-42902D01*
X56187Y-42891D01*
X56232Y-42891D01*
X56254Y-42902D01*
X56265Y-42925D01*
X56265Y-42947D01*
X56153Y-42970D01*
X56467Y-43049D02*
X56467Y-42813D01*
X56467Y-43037D02*
X56445Y-43049D01*
X56400Y-43049D01*
X56377Y-43037D01*
X56366Y-43026D01*
X56355Y-43004D01*
X56355Y-42936D01*
X56366Y-42914D01*
X56377Y-42902D01*
X56400Y-42891D01*
X56445Y-42891D01*
X56467Y-42902D01*
X56524Y-43071D02*
X56704Y-43071D01*
X56749Y-43037D02*
X56771Y-43049D01*
X56816Y-43049D01*
X56839Y-43037D01*
X56850Y-43015D01*
X56850Y-43004D01*
X56839Y-42981D01*
X56816Y-42970D01*
X56783Y-42970D01*
X56760Y-42959D01*
X56749Y-42936D01*
X56749Y-42925D01*
X56760Y-42902D01*
X56783Y-42891D01*
X56816Y-42891D01*
X56839Y-42902D01*
X56951Y-43049D02*
X56951Y-42813D01*
X57052Y-43049D02*
X57052Y-42925D01*
X57041Y-42902D01*
X57019Y-42891D01*
X56985Y-42891D01*
X56962Y-42902D01*
X56951Y-42914D01*
X57165Y-43049D02*
X57165Y-42891D01*
X57165Y-42813D02*
X57154Y-42824D01*
X57165Y-42835D01*
X57176Y-42824D01*
X57165Y-42813D01*
X57165Y-42835D01*
X57277Y-43049D02*
X57277Y-42891D01*
X57277Y-42936D02*
X57288Y-42914D01*
X57300Y-42902D01*
X57322Y-42891D01*
X57345Y-42891D01*
X57389Y-42891D02*
X57479Y-42891D01*
X57423Y-42813D02*
X57423Y-43015D01*
X57434Y-43037D01*
X57457Y-43049D01*
X57479Y-43049D01*
X57716Y-42891D02*
X57772Y-43049D01*
X57828Y-42891D01*
X57907Y-42835D02*
X57918Y-42824D01*
X57941Y-42813D01*
X57997Y-42813D01*
X58019Y-42824D01*
X58031Y-42835D01*
X58042Y-42857D01*
X58042Y-42880D01*
X58031Y-42914D01*
X57896Y-43049D01*
X58042Y-43049D01*
X58323Y-42891D02*
X58323Y-43049D01*
X58323Y-42914D02*
X58334Y-42902D01*
X58357Y-42891D01*
X58391Y-42891D01*
X58413Y-42902D01*
X58424Y-42925D01*
X58424Y-43049D01*
X58571Y-43049D02*
X58548Y-43037D01*
X58537Y-43026D01*
X58526Y-43004D01*
X58526Y-42936D01*
X58537Y-42914D01*
X58548Y-42902D01*
X58571Y-42891D01*
X58605Y-42891D01*
X58627Y-42902D01*
X58638Y-42914D01*
X58650Y-42936D01*
X58650Y-43004D01*
X58638Y-43026D01*
X58627Y-43037D01*
X58605Y-43049D01*
X58571Y-43049D01*
X58729Y-42891D02*
X58785Y-43049D01*
X58841Y-42891D01*
X58920Y-42835D02*
X58931Y-42824D01*
X58954Y-42813D01*
X59010Y-42813D01*
X59032Y-42824D01*
X59044Y-42835D01*
X59055Y-42857D01*
X59055Y-42880D01*
X59044Y-42914D01*
X58909Y-43049D01*
X59055Y-43049D01*
X59201Y-42813D02*
X59224Y-42813D01*
X59246Y-42824D01*
X59257Y-42835D01*
X59269Y-42857D01*
X59280Y-42902D01*
X59280Y-42959D01*
X59269Y-43004D01*
X59257Y-43026D01*
X59246Y-43037D01*
X59224Y-43049D01*
X59201Y-43049D01*
X59179Y-43037D01*
X59167Y-43026D01*
X59156Y-43004D01*
X59145Y-42959D01*
X59145Y-42902D01*
X59156Y-42857D01*
X59167Y-42835D01*
X59179Y-42824D01*
X59201Y-42813D01*
X59505Y-43049D02*
X59370Y-43049D01*
X59437Y-43049D02*
X59437Y-42813D01*
X59415Y-42846D01*
X59392Y-42869D01*
X59370Y-42880D01*
X59595Y-42835D02*
X59606Y-42824D01*
X59629Y-42813D01*
X59685Y-42813D01*
X59707Y-42824D01*
X59719Y-42835D01*
X59730Y-42857D01*
X59730Y-42880D01*
X59719Y-42914D01*
X59584Y-43049D01*
X59730Y-43049D01*
G54D12*
X58295Y-41654D03*
X57295Y-42029D03*
X57295Y-41279D03*
X58295Y-39921D03*
X57295Y-40296D03*
X57295Y-39546D03*
X58571Y-34411D03*
X57571Y-34786D03*
X57571Y-34036D03*
X58571Y-32441D03*
X57571Y-32816D03*
X57571Y-32066D03*
G54D13*
X55531Y-31891D03*
X56281Y-31891D03*
X54391Y-32795D03*
X53641Y-32795D03*
X54391Y-33740D03*
X53641Y-33740D03*
G54D14*
X59370Y-42029D03*
X59370Y-41279D03*
X59370Y-39546D03*
X59370Y-40296D03*
X59370Y-34824D03*
X59370Y-34074D03*
X59331Y-32777D03*
X59331Y-32027D03*
G54D13*
X53168Y-37992D03*
X53918Y-37992D03*
X56203Y-34922D03*
X55453Y-34922D03*
X53642Y-31851D03*
X54392Y-31851D03*
G54D15*
X53583Y-39252D03*
X53583Y-39752D03*
X53583Y-40252D03*
X53583Y-40752D03*
X53583Y-41252D03*
X53583Y-41752D03*
X53583Y-42252D03*
X55709Y-42252D03*
X55709Y-41752D03*
X55709Y-41252D03*
X55709Y-40752D03*
X55709Y-40252D03*
X55709Y-39752D03*
X55709Y-39252D03*
G54D16*
X61220Y-39606D03*
X51693Y-42559D03*
X51693Y-41575D03*
X51693Y-40591D03*
X51693Y-39606D03*
X51693Y-38622D03*
X51654Y-31732D03*
X51654Y-32717D03*
X61220Y-31732D03*
X61220Y-32717D03*
X61220Y-34685D03*
X61220Y-35669D03*
X61220Y-38622D03*
X61220Y-42559D03*
X61220Y-41575D03*
G54D17*
X56260Y-32874D03*
X55886Y-32874D03*
X55512Y-32874D03*
X55512Y-33976D03*
X56260Y-33976D03*
G54D18*
X52717Y-34960D03*
X52717Y-35216D03*
X52717Y-35472D03*
X52717Y-35728D03*
X52717Y-35984D03*
G54D19*
X52638Y-34212D03*
X52638Y-36732D03*
G54D20*
X51664Y-35944D03*
X51664Y-35000D03*
G54D21*
X51664Y-36771D03*
X51664Y-34173D03*
G54D22*
X55118Y-36240D03*
X58426Y-36240D03*
X55118Y-38012D03*
X58426Y-38012D03*
G54D23*
X57244Y-33150D03*
X56220Y-39252D03*
X53031Y-39606D03*
X55157Y-39252D03*
X52205Y-32717D03*
X57283Y-40906D03*
X57283Y-39173D03*
X57559Y-34409D03*
X57283Y-39921D03*
X55866Y-33307D03*
X57283Y-41654D03*
X55315Y-32402D03*
X56260Y-32402D03*
X53031Y-41772D03*
X55197Y-40236D03*
X53031Y-41260D03*
X55157Y-39764D03*
X52165Y-38976D03*
X53071Y-40748D03*
X60669Y-31732D03*
X60669Y-41575D03*
X55079Y-31732D03*
X53071Y-31732D03*
X53819Y-36299D03*
X55157Y-34016D03*
X54646Y-35748D03*
X60669Y-38622D03*
X60669Y-34685D03*
X55157Y-33504D03*
G54D24*
X52046Y-40591D02*
X53031Y-39606D01*
G54D25*
X57571Y-32823D02*
X57244Y-33150D01*
G54D24*
X56281Y-31891D02*
X55886Y-32286D01*
G54D25*
X57571Y-38885D02*
X57283Y-39173D01*
X57559Y-34409D02*
X57559Y-34774D01*
X52205Y-32717D02*
X51654Y-32717D01*
G54D24*
X55157Y-39252D02*
X55709Y-39252D01*
G54D25*
X55709Y-39252D02*
X56220Y-39252D01*
G54D24*
X51693Y-40591D02*
X52046Y-40591D01*
G54D25*
X52638Y-34212D02*
X53110Y-33740D01*
X57559Y-34774D02*
X57571Y-34786D01*
X51654Y-32717D02*
X52638Y-33701D01*
X52638Y-33701D02*
X52638Y-34212D01*
X52638Y-36063D02*
X52638Y-36732D01*
X51850Y-35000D02*
X52638Y-34212D01*
X51664Y-35000D02*
X51850Y-35000D01*
G54D24*
X55886Y-32286D02*
X55886Y-32874D01*
G54D25*
X58426Y-36240D02*
X57571Y-36240D01*
X57571Y-36240D02*
X57571Y-38885D01*
X53110Y-33740D02*
X53641Y-33740D01*
X52452Y-36732D02*
X52638Y-36732D01*
X55886Y-33287D02*
X55886Y-32874D01*
X57295Y-40296D02*
X57295Y-40894D01*
X55709Y-39252D02*
X55709Y-37068D01*
G54D24*
X55453Y-35905D02*
X55118Y-36240D01*
X55453Y-34922D02*
X55453Y-35905D01*
G54D25*
X55709Y-36831D02*
X55118Y-36240D01*
X55709Y-37068D02*
X55709Y-36831D01*
X54862Y-35984D02*
X55118Y-36240D01*
X52717Y-35984D02*
X54862Y-35984D01*
X51664Y-35944D02*
X52452Y-36732D01*
X57571Y-32816D02*
X57571Y-32823D01*
X57283Y-39921D02*
X57295Y-39933D01*
X57295Y-39933D02*
X57295Y-40296D01*
X57295Y-40894D02*
X57283Y-40906D01*
X57571Y-34786D02*
X57571Y-36240D01*
X51664Y-35944D02*
X51664Y-35000D01*
X52717Y-35984D02*
X52638Y-36063D01*
X55866Y-33307D02*
X55886Y-33287D01*
X57295Y-41666D02*
X57295Y-42029D01*
X57283Y-41654D02*
X57295Y-41666D01*
X59370Y-34074D02*
X58908Y-34074D01*
X58908Y-34074D02*
X58571Y-34411D01*
X59331Y-32777D02*
X61160Y-32777D01*
X61160Y-32777D02*
X61220Y-32717D01*
X59370Y-42029D02*
X59900Y-42559D01*
X59900Y-42559D02*
X61220Y-42559D01*
X59370Y-41279D02*
X58670Y-41279D01*
X58670Y-41279D02*
X58295Y-41654D01*
X59370Y-39546D02*
X59430Y-39606D01*
X59430Y-39606D02*
X61220Y-39606D01*
X59370Y-40296D02*
X58670Y-40296D01*
X58670Y-40296D02*
X58295Y-39921D01*
X60215Y-35669D02*
X61220Y-35669D01*
X59370Y-34824D02*
X60215Y-35669D01*
G54D24*
X56322Y-42252D02*
X55709Y-42252D01*
X57295Y-41279D02*
X56322Y-42252D01*
X56654Y-41244D02*
X56654Y-39448D01*
X57571Y-34036D02*
X57165Y-34442D01*
X56646Y-41252D02*
X56654Y-41244D01*
X56654Y-39448D02*
X57165Y-38937D01*
X56646Y-41252D02*
X55709Y-41252D01*
X57165Y-34442D02*
X57165Y-38937D01*
X56969Y-32668D02*
X56969Y-38858D01*
X56453Y-40752D02*
X55709Y-40752D01*
X57571Y-32066D02*
X56969Y-32668D01*
X56457Y-40748D02*
X56453Y-40752D01*
X56969Y-38858D02*
X56457Y-39370D01*
X56457Y-39370D02*
X56457Y-40748D01*
X56260Y-34865D02*
X56203Y-34922D01*
X56260Y-33976D02*
X56260Y-34865D01*
X54943Y-32402D02*
X54392Y-31851D01*
X56260Y-32874D02*
X56260Y-32402D01*
X55315Y-32402D02*
X54943Y-32402D01*
G54D25*
X59331Y-32027D02*
X58985Y-32027D01*
X58985Y-32027D02*
X58571Y-32441D01*
G54D24*
X53641Y-31852D02*
X53642Y-31851D01*
X53641Y-32795D02*
X53641Y-31852D01*
X54082Y-39752D02*
X53583Y-39752D01*
X54082Y-39752D02*
X54082Y-39752D01*
X53938Y-38012D02*
X54881Y-38012D01*
X54082Y-38156D02*
X54082Y-39752D01*
X53918Y-37992D02*
X54082Y-38156D01*
X53918Y-37992D02*
X53938Y-38012D01*
X56850Y-39991D02*
X56850Y-41378D01*
X57295Y-39546D02*
X56850Y-39991D01*
X56476Y-41752D02*
X55709Y-41752D01*
X56850Y-41378D02*
X56476Y-41752D01*
X52244Y-42559D02*
X53031Y-41772D01*
X51693Y-42559D02*
X52244Y-42559D01*
X55213Y-40252D02*
X55709Y-40252D01*
X55197Y-40236D02*
X55213Y-40252D01*
X51693Y-41575D02*
X52716Y-41575D01*
X52716Y-41575D02*
X53031Y-41260D01*
X55157Y-39764D02*
X55169Y-39752D01*
X55169Y-39752D02*
X55709Y-39752D01*
X53075Y-40752D02*
X53583Y-40752D01*
X51693Y-38622D02*
X52047Y-38976D01*
X52047Y-38976D02*
X52165Y-38976D01*
X53071Y-40748D02*
X53075Y-40752D01*
G54D25*
X60669Y-31732D02*
X61220Y-31732D01*
X55531Y-31891D02*
X55372Y-31732D01*
X55372Y-31732D02*
X55079Y-31732D01*
X51654Y-31732D02*
X53071Y-31732D01*
G54D24*
X55512Y-33070D02*
X55512Y-32874D01*
X53168Y-37992D02*
X53583Y-38407D01*
X53583Y-38407D02*
X53583Y-39252D01*
X51693Y-39606D02*
X52047Y-39252D01*
X52047Y-39252D02*
X53583Y-39252D01*
X55531Y-31891D02*
X55531Y-32855D01*
X55531Y-32855D02*
X55512Y-32874D01*
G54D25*
X55512Y-33149D02*
X55512Y-32874D01*
G54D24*
X54646Y-35748D02*
X54646Y-34527D01*
X54646Y-34527D02*
X55157Y-34016D01*
X53168Y-37992D02*
X53819Y-37341D01*
X53819Y-37341D02*
X53819Y-36299D01*
G54D25*
X60669Y-34685D02*
X61220Y-34685D01*
X60669Y-41575D02*
X61220Y-41575D01*
X60669Y-38622D02*
X61220Y-38622D01*
X55157Y-33504D02*
X55512Y-33149D01*
X52717Y-34960D02*
X53171Y-34960D01*
X53171Y-34960D02*
X54391Y-33740D01*
G54D24*
X54391Y-33740D02*
X54391Y-32795D01*
X54391Y-33740D02*
X55276Y-33740D01*
X55276Y-33740D02*
X55512Y-33976D01*
M02*
