G04 (created by PCBNEW (2013-07-07 BZR 4022)-stable) date 10/22/2013 8:23:25 AM*
%MOIN*%
G04 Gerber Fmt 3.4, Leading zero omitted, Abs format*
%FSLAX34Y34*%
G01*
G70*
G90*
G04 APERTURE LIST*
%ADD10C,0.00590551*%
%ADD11R,0.065X0.045*%
%ADD12R,0.045X0.065*%
%ADD13C,0.0869*%
%ADD14R,0.0515X0.0594*%
%ADD15R,0.083X0.0751*%
%ADD16R,0.0633X0.0436*%
%ADD17R,0.0810236X0.043622*%
%ADD18R,0.043622X0.0810236*%
%ADD19R,0.0731X0.0357*%
%ADD20R,0.0751X0.083*%
%ADD21R,0.0948X0.0948*%
%ADD22C,0.083*%
G04 APERTURE END LIST*
G54D10*
G54D11*
X56300Y-37500D03*
X56300Y-36900D03*
X56650Y-41350D03*
X56650Y-40750D03*
G54D12*
X55050Y-36800D03*
X55650Y-36800D03*
G54D13*
X61500Y-41050D03*
X61500Y-42050D03*
X61500Y-38500D03*
X61500Y-39500D03*
G54D14*
X59950Y-36167D03*
X60325Y-37033D03*
X59575Y-37033D03*
G54D12*
X55750Y-36100D03*
X56350Y-36100D03*
X58250Y-37400D03*
X57650Y-37400D03*
G54D11*
X55800Y-41550D03*
X55800Y-40950D03*
X61450Y-37100D03*
X61450Y-36500D03*
G54D15*
X60354Y-39886D03*
X57046Y-39886D03*
X60354Y-38114D03*
X57046Y-38114D03*
G54D16*
X57100Y-36100D03*
X57100Y-36474D03*
X57100Y-36848D03*
X58202Y-36848D03*
X58202Y-36100D03*
G54D17*
X57600Y-40800D03*
X57600Y-41300D03*
X57600Y-41800D03*
X57600Y-42300D03*
X59725Y-42300D03*
X59725Y-41800D03*
X59725Y-41300D03*
X59725Y-40800D03*
G54D18*
X56700Y-42400D03*
X56200Y-42400D03*
X55700Y-42400D03*
X55200Y-42400D03*
X54700Y-42400D03*
G54D19*
X55500Y-38488D03*
X55500Y-38744D03*
X55500Y-39000D03*
X55500Y-39256D03*
X55500Y-39512D03*
G54D20*
X55421Y-37740D03*
X55421Y-40260D03*
G54D21*
X54447Y-39472D03*
X54447Y-38528D03*
G54D22*
X54447Y-40299D03*
X54447Y-37701D03*
M02*
