G04 #@! TF.FileFunction,Copper,L2,Bot,Signal*
%FSLAX46Y46*%
G04 Gerber Fmt 4.6, Leading zero omitted, Abs format (unit mm)*
G04 Created by KiCad (PCBNEW 4.0.0-rc1-stable) date 11/22/2015 9:16:10 AM*
%MOMM*%
G01*
G04 APERTURE LIST*
%ADD10C,0.150000*%
%ADD11R,1.500000X1.500000*%
%ADD12C,1.500000*%
%ADD13C,0.508000*%
%ADD14C,0.299720*%
%ADD15C,0.154940*%
%ADD16C,0.254000*%
G04 APERTURE END LIST*
D10*
D11*
X121158000Y-80518000D03*
D12*
X121158000Y-82518000D03*
D11*
X148844000Y-82550000D03*
D12*
X148844000Y-80550000D03*
D13*
X148082000Y-90043000D03*
X149352000Y-91313000D03*
X140716000Y-94742000D03*
X146685000Y-94742000D03*
X133985000Y-91313000D03*
X136398000Y-85471000D03*
X148082000Y-86106000D03*
X142240000Y-84709000D03*
X125222000Y-84074000D03*
X122936000Y-95250000D03*
X125222000Y-92710000D03*
X146812000Y-83058000D03*
X140208000Y-86614000D03*
X131064000Y-94742000D03*
X124968000Y-86868000D03*
X133858000Y-93853000D03*
X140462000Y-92075000D03*
X134747000Y-93853000D03*
X140843000Y-93091000D03*
X141732000Y-93980000D03*
X142240000Y-85852000D03*
D14*
X148082000Y-90043000D02*
X149352000Y-91313000D01*
X140716000Y-94742000D02*
X146685000Y-94742000D01*
X136398000Y-85471000D02*
X136398000Y-88900000D01*
X136398000Y-88900000D02*
X133985000Y-91313000D01*
X142240000Y-84709000D02*
X146685000Y-84709000D01*
X146685000Y-84709000D02*
X148082000Y-86106000D01*
X122936000Y-94996000D02*
X122936000Y-95250000D01*
X125222000Y-92710000D02*
X122936000Y-94996000D01*
X121158000Y-80518000D02*
X144272000Y-80518000D01*
X144272000Y-80518000D02*
X146812000Y-83058000D01*
D15*
X131064000Y-94742000D02*
X132080000Y-94742000D01*
X132080000Y-94742000D02*
X140208000Y-86614000D01*
X124968000Y-86868000D02*
X131064000Y-92964000D01*
X131064000Y-92964000D02*
X131064000Y-94742000D01*
X140462000Y-92075000D02*
X135636000Y-92075000D01*
X135636000Y-92075000D02*
X133858000Y-93853000D01*
X140843000Y-93091000D02*
X135509000Y-93091000D01*
X135509000Y-93091000D02*
X134747000Y-93853000D01*
D14*
X142240000Y-85852000D02*
X141732000Y-86360000D01*
X141732000Y-86360000D02*
X141732000Y-93980000D01*
D16*
G36*
X152309913Y-78344277D02*
X152448873Y-78437126D01*
X152541723Y-78576087D01*
X152590500Y-78821303D01*
X152590500Y-95930697D01*
X152541723Y-96175913D01*
X152448873Y-96314874D01*
X152309913Y-96407723D01*
X152064696Y-96456500D01*
X117937303Y-96456500D01*
X117692087Y-96407723D01*
X117553126Y-96314873D01*
X117460277Y-96175913D01*
X117411500Y-95930696D01*
X117411500Y-87044057D01*
X124078846Y-87044057D01*
X124213903Y-87370920D01*
X124463764Y-87621218D01*
X124790391Y-87756846D01*
X124849313Y-87756897D01*
X130351530Y-93259114D01*
X130351530Y-94197087D01*
X130310782Y-94237764D01*
X130175154Y-94564391D01*
X130174846Y-94918057D01*
X130309903Y-95244920D01*
X130559764Y-95495218D01*
X130886391Y-95630846D01*
X131240057Y-95631154D01*
X131566920Y-95496097D01*
X131608620Y-95454470D01*
X132080000Y-95454470D01*
X132352650Y-95400236D01*
X132583792Y-95245792D01*
X133288622Y-94540962D01*
X133353764Y-94606218D01*
X133680391Y-94741846D01*
X134034057Y-94742154D01*
X134302757Y-94631129D01*
X134569391Y-94741846D01*
X134923057Y-94742154D01*
X135249920Y-94607097D01*
X135500218Y-94357236D01*
X135635846Y-94030609D01*
X135635897Y-93971687D01*
X135804115Y-93803470D01*
X140298087Y-93803470D01*
X140338764Y-93844218D01*
X140665391Y-93979846D01*
X140842999Y-93980001D01*
X140842846Y-94156057D01*
X140977903Y-94482920D01*
X141227764Y-94733218D01*
X141554391Y-94868846D01*
X141908057Y-94869154D01*
X142234920Y-94734097D01*
X142485218Y-94484236D01*
X142620846Y-94157609D01*
X142621154Y-93803943D01*
X142516860Y-93551532D01*
X142516860Y-86699503D01*
X142742920Y-86606097D01*
X142993218Y-86356236D01*
X143128846Y-86029609D01*
X143129154Y-85675943D01*
X142994097Y-85349080D01*
X142744236Y-85098782D01*
X142417609Y-84963154D01*
X142063943Y-84962846D01*
X141737080Y-85097903D01*
X141486782Y-85347764D01*
X141382047Y-85599994D01*
X141177020Y-85805020D01*
X141006884Y-86059647D01*
X140985424Y-86167535D01*
X140962097Y-86111080D01*
X140712236Y-85860782D01*
X140385609Y-85725154D01*
X140031943Y-85724846D01*
X139705080Y-85859903D01*
X139454782Y-86109764D01*
X139319154Y-86436391D01*
X139319103Y-86495313D01*
X131784886Y-94029530D01*
X131776470Y-94029530D01*
X131776470Y-92964000D01*
X131722236Y-92691350D01*
X131567792Y-92460208D01*
X125857104Y-86749520D01*
X125857154Y-86691943D01*
X125722097Y-86365080D01*
X125472236Y-86114782D01*
X125145609Y-85979154D01*
X124791943Y-85978846D01*
X124465080Y-86113903D01*
X124214782Y-86363764D01*
X124079154Y-86690391D01*
X124078846Y-87044057D01*
X117411500Y-87044057D01*
X117411500Y-83489517D01*
X120366088Y-83489517D01*
X120434077Y-83730460D01*
X120953171Y-83915201D01*
X121503448Y-83887230D01*
X121881923Y-83730460D01*
X121949912Y-83489517D01*
X121158000Y-82697605D01*
X120366088Y-83489517D01*
X117411500Y-83489517D01*
X117411500Y-79768000D01*
X119760560Y-79768000D01*
X119760560Y-81268000D01*
X119804838Y-81503317D01*
X119943910Y-81719441D01*
X120021693Y-81772588D01*
X119945540Y-81794077D01*
X119760799Y-82313171D01*
X119788770Y-82863448D01*
X119945540Y-83241923D01*
X120186483Y-83309912D01*
X120978395Y-82518000D01*
X120964253Y-82503858D01*
X121143858Y-82324253D01*
X121158000Y-82338395D01*
X121172143Y-82324253D01*
X121351748Y-82503858D01*
X121337605Y-82518000D01*
X122129517Y-83309912D01*
X122370460Y-83241923D01*
X122555201Y-82722829D01*
X122527230Y-82172552D01*
X122370460Y-81794077D01*
X122295835Y-81773019D01*
X122359441Y-81732090D01*
X122504431Y-81519890D01*
X122548381Y-81302860D01*
X143946900Y-81302860D01*
X145954355Y-83310315D01*
X146057903Y-83560920D01*
X146307764Y-83811218D01*
X146634391Y-83946846D01*
X146988057Y-83947154D01*
X147314920Y-83812097D01*
X147530476Y-83596917D01*
X147629910Y-83751441D01*
X147842110Y-83896431D01*
X148094000Y-83947440D01*
X149594000Y-83947440D01*
X149829317Y-83903162D01*
X150045441Y-83764090D01*
X150190431Y-83551890D01*
X150241440Y-83300000D01*
X150241440Y-81800000D01*
X150197162Y-81564683D01*
X150058090Y-81348559D01*
X150022237Y-81324062D01*
X150228759Y-80826702D01*
X150229240Y-80275715D01*
X150018831Y-79766485D01*
X149629564Y-79376539D01*
X149120702Y-79165241D01*
X148569715Y-79164760D01*
X148060485Y-79375169D01*
X147670539Y-79764436D01*
X147459241Y-80273298D01*
X147458760Y-80824285D01*
X147664362Y-81321880D01*
X147642559Y-81335910D01*
X147497569Y-81548110D01*
X147446560Y-81800000D01*
X147446560Y-82435334D01*
X147316236Y-82304782D01*
X147064007Y-82200047D01*
X144826980Y-79963020D01*
X144572353Y-79792884D01*
X144272000Y-79733140D01*
X122548881Y-79733140D01*
X122511162Y-79532683D01*
X122372090Y-79316559D01*
X122159890Y-79171569D01*
X121908000Y-79120560D01*
X120408000Y-79120560D01*
X120172683Y-79164838D01*
X119956559Y-79303910D01*
X119811569Y-79516110D01*
X119760560Y-79768000D01*
X117411500Y-79768000D01*
X117411500Y-78821304D01*
X117460277Y-78576087D01*
X117553126Y-78437127D01*
X117692087Y-78344277D01*
X117937303Y-78295500D01*
X152064696Y-78295500D01*
X152309913Y-78344277D01*
X152309913Y-78344277D01*
G37*
X152309913Y-78344277D02*
X152448873Y-78437126D01*
X152541723Y-78576087D01*
X152590500Y-78821303D01*
X152590500Y-95930697D01*
X152541723Y-96175913D01*
X152448873Y-96314874D01*
X152309913Y-96407723D01*
X152064696Y-96456500D01*
X117937303Y-96456500D01*
X117692087Y-96407723D01*
X117553126Y-96314873D01*
X117460277Y-96175913D01*
X117411500Y-95930696D01*
X117411500Y-87044057D01*
X124078846Y-87044057D01*
X124213903Y-87370920D01*
X124463764Y-87621218D01*
X124790391Y-87756846D01*
X124849313Y-87756897D01*
X130351530Y-93259114D01*
X130351530Y-94197087D01*
X130310782Y-94237764D01*
X130175154Y-94564391D01*
X130174846Y-94918057D01*
X130309903Y-95244920D01*
X130559764Y-95495218D01*
X130886391Y-95630846D01*
X131240057Y-95631154D01*
X131566920Y-95496097D01*
X131608620Y-95454470D01*
X132080000Y-95454470D01*
X132352650Y-95400236D01*
X132583792Y-95245792D01*
X133288622Y-94540962D01*
X133353764Y-94606218D01*
X133680391Y-94741846D01*
X134034057Y-94742154D01*
X134302757Y-94631129D01*
X134569391Y-94741846D01*
X134923057Y-94742154D01*
X135249920Y-94607097D01*
X135500218Y-94357236D01*
X135635846Y-94030609D01*
X135635897Y-93971687D01*
X135804115Y-93803470D01*
X140298087Y-93803470D01*
X140338764Y-93844218D01*
X140665391Y-93979846D01*
X140842999Y-93980001D01*
X140842846Y-94156057D01*
X140977903Y-94482920D01*
X141227764Y-94733218D01*
X141554391Y-94868846D01*
X141908057Y-94869154D01*
X142234920Y-94734097D01*
X142485218Y-94484236D01*
X142620846Y-94157609D01*
X142621154Y-93803943D01*
X142516860Y-93551532D01*
X142516860Y-86699503D01*
X142742920Y-86606097D01*
X142993218Y-86356236D01*
X143128846Y-86029609D01*
X143129154Y-85675943D01*
X142994097Y-85349080D01*
X142744236Y-85098782D01*
X142417609Y-84963154D01*
X142063943Y-84962846D01*
X141737080Y-85097903D01*
X141486782Y-85347764D01*
X141382047Y-85599994D01*
X141177020Y-85805020D01*
X141006884Y-86059647D01*
X140985424Y-86167535D01*
X140962097Y-86111080D01*
X140712236Y-85860782D01*
X140385609Y-85725154D01*
X140031943Y-85724846D01*
X139705080Y-85859903D01*
X139454782Y-86109764D01*
X139319154Y-86436391D01*
X139319103Y-86495313D01*
X131784886Y-94029530D01*
X131776470Y-94029530D01*
X131776470Y-92964000D01*
X131722236Y-92691350D01*
X131567792Y-92460208D01*
X125857104Y-86749520D01*
X125857154Y-86691943D01*
X125722097Y-86365080D01*
X125472236Y-86114782D01*
X125145609Y-85979154D01*
X124791943Y-85978846D01*
X124465080Y-86113903D01*
X124214782Y-86363764D01*
X124079154Y-86690391D01*
X124078846Y-87044057D01*
X117411500Y-87044057D01*
X117411500Y-83489517D01*
X120366088Y-83489517D01*
X120434077Y-83730460D01*
X120953171Y-83915201D01*
X121503448Y-83887230D01*
X121881923Y-83730460D01*
X121949912Y-83489517D01*
X121158000Y-82697605D01*
X120366088Y-83489517D01*
X117411500Y-83489517D01*
X117411500Y-79768000D01*
X119760560Y-79768000D01*
X119760560Y-81268000D01*
X119804838Y-81503317D01*
X119943910Y-81719441D01*
X120021693Y-81772588D01*
X119945540Y-81794077D01*
X119760799Y-82313171D01*
X119788770Y-82863448D01*
X119945540Y-83241923D01*
X120186483Y-83309912D01*
X120978395Y-82518000D01*
X120964253Y-82503858D01*
X121143858Y-82324253D01*
X121158000Y-82338395D01*
X121172143Y-82324253D01*
X121351748Y-82503858D01*
X121337605Y-82518000D01*
X122129517Y-83309912D01*
X122370460Y-83241923D01*
X122555201Y-82722829D01*
X122527230Y-82172552D01*
X122370460Y-81794077D01*
X122295835Y-81773019D01*
X122359441Y-81732090D01*
X122504431Y-81519890D01*
X122548381Y-81302860D01*
X143946900Y-81302860D01*
X145954355Y-83310315D01*
X146057903Y-83560920D01*
X146307764Y-83811218D01*
X146634391Y-83946846D01*
X146988057Y-83947154D01*
X147314920Y-83812097D01*
X147530476Y-83596917D01*
X147629910Y-83751441D01*
X147842110Y-83896431D01*
X148094000Y-83947440D01*
X149594000Y-83947440D01*
X149829317Y-83903162D01*
X150045441Y-83764090D01*
X150190431Y-83551890D01*
X150241440Y-83300000D01*
X150241440Y-81800000D01*
X150197162Y-81564683D01*
X150058090Y-81348559D01*
X150022237Y-81324062D01*
X150228759Y-80826702D01*
X150229240Y-80275715D01*
X150018831Y-79766485D01*
X149629564Y-79376539D01*
X149120702Y-79165241D01*
X148569715Y-79164760D01*
X148060485Y-79375169D01*
X147670539Y-79764436D01*
X147459241Y-80273298D01*
X147458760Y-80824285D01*
X147664362Y-81321880D01*
X147642559Y-81335910D01*
X147497569Y-81548110D01*
X147446560Y-81800000D01*
X147446560Y-82435334D01*
X147316236Y-82304782D01*
X147064007Y-82200047D01*
X144826980Y-79963020D01*
X144572353Y-79792884D01*
X144272000Y-79733140D01*
X122548881Y-79733140D01*
X122511162Y-79532683D01*
X122372090Y-79316559D01*
X122159890Y-79171569D01*
X121908000Y-79120560D01*
X120408000Y-79120560D01*
X120172683Y-79164838D01*
X119956559Y-79303910D01*
X119811569Y-79516110D01*
X119760560Y-79768000D01*
X117411500Y-79768000D01*
X117411500Y-78821304D01*
X117460277Y-78576087D01*
X117553126Y-78437127D01*
X117692087Y-78344277D01*
X117937303Y-78295500D01*
X152064696Y-78295500D01*
X152309913Y-78344277D01*
M02*
