G04 (created by PCBNEW (2013-07-07 BZR 4022)-stable) date 10/22/2013 8:23:24 AM*
%MOIN*%
G04 Gerber Fmt 3.4, Leading zero omitted, Abs format*
%FSLAX34Y34*%
G01*
G70*
G90*
G04 APERTURE LIST*
%ADD10C,0.00590551*%
%ADD11C,0.00688976*%
G04 APERTURE END LIST*
G54D10*
G54D11*
X58730Y-38461D02*
X58757Y-38448D01*
X58770Y-38422D01*
X58770Y-38185D01*
X58520Y-38448D02*
X58547Y-38461D01*
X58599Y-38461D01*
X58625Y-38448D01*
X58638Y-38422D01*
X58638Y-38317D01*
X58625Y-38290D01*
X58599Y-38277D01*
X58547Y-38277D01*
X58520Y-38290D01*
X58507Y-38317D01*
X58507Y-38343D01*
X58638Y-38369D01*
X58271Y-38461D02*
X58271Y-38185D01*
X58271Y-38448D02*
X58297Y-38461D01*
X58350Y-38461D01*
X58376Y-38448D01*
X58389Y-38435D01*
X58402Y-38409D01*
X58402Y-38330D01*
X58389Y-38304D01*
X58376Y-38290D01*
X58350Y-38277D01*
X58297Y-38277D01*
X58271Y-38290D01*
X58205Y-38487D02*
X57995Y-38487D01*
X57943Y-38448D02*
X57917Y-38461D01*
X57864Y-38461D01*
X57838Y-38448D01*
X57825Y-38422D01*
X57825Y-38409D01*
X57838Y-38382D01*
X57864Y-38369D01*
X57904Y-38369D01*
X57930Y-38356D01*
X57943Y-38330D01*
X57943Y-38317D01*
X57930Y-38290D01*
X57904Y-38277D01*
X57864Y-38277D01*
X57838Y-38290D01*
X57707Y-38461D02*
X57707Y-38185D01*
X57589Y-38461D02*
X57589Y-38317D01*
X57602Y-38290D01*
X57628Y-38277D01*
X57667Y-38277D01*
X57694Y-38290D01*
X57707Y-38304D01*
X57457Y-38461D02*
X57457Y-38277D01*
X57457Y-38185D02*
X57470Y-38199D01*
X57457Y-38212D01*
X57444Y-38199D01*
X57457Y-38185D01*
X57457Y-38212D01*
X57326Y-38461D02*
X57326Y-38277D01*
X57326Y-38330D02*
X57313Y-38304D01*
X57300Y-38290D01*
X57274Y-38277D01*
X57247Y-38277D01*
X57195Y-38277D02*
X57090Y-38277D01*
X57156Y-38185D02*
X57156Y-38422D01*
X57142Y-38448D01*
X57116Y-38461D01*
X57090Y-38461D01*
X60594Y-38732D02*
X60594Y-38955D01*
X60607Y-38981D01*
X60620Y-38995D01*
X60646Y-39008D01*
X60686Y-39008D01*
X60712Y-38995D01*
X60594Y-38903D02*
X60620Y-38916D01*
X60673Y-38916D01*
X60699Y-38903D01*
X60712Y-38890D01*
X60725Y-38863D01*
X60725Y-38785D01*
X60712Y-38758D01*
X60699Y-38745D01*
X60673Y-38732D01*
X60620Y-38732D01*
X60594Y-38745D01*
X60463Y-38916D02*
X60463Y-38732D01*
X60463Y-38640D02*
X60476Y-38653D01*
X60463Y-38666D01*
X60449Y-38653D01*
X60463Y-38640D01*
X60463Y-38666D01*
X60371Y-38732D02*
X60266Y-38732D01*
X60331Y-38640D02*
X60331Y-38876D01*
X60318Y-38903D01*
X60292Y-38916D01*
X60266Y-38916D01*
X60174Y-38916D02*
X60174Y-38640D01*
X60056Y-38916D02*
X60056Y-38771D01*
X60069Y-38745D01*
X60095Y-38732D01*
X60135Y-38732D01*
X60161Y-38745D01*
X60174Y-38758D01*
X59806Y-38732D02*
X59806Y-38916D01*
X59925Y-38732D02*
X59925Y-38876D01*
X59911Y-38903D01*
X59885Y-38916D01*
X59846Y-38916D01*
X59820Y-38903D01*
X59806Y-38890D01*
X59675Y-38916D02*
X59675Y-38640D01*
X59675Y-38745D02*
X59649Y-38732D01*
X59596Y-38732D01*
X59570Y-38745D01*
X59557Y-38758D01*
X59544Y-38785D01*
X59544Y-38863D01*
X59557Y-38890D01*
X59570Y-38903D01*
X59596Y-38916D01*
X59649Y-38916D01*
X59675Y-38903D01*
X59426Y-38890D02*
X59413Y-38903D01*
X59426Y-38916D01*
X59439Y-38903D01*
X59426Y-38890D01*
X59426Y-38916D01*
X59177Y-38903D02*
X59203Y-38916D01*
X59255Y-38916D01*
X59282Y-38903D01*
X59295Y-38890D01*
X59308Y-38863D01*
X59308Y-38785D01*
X59295Y-38758D01*
X59282Y-38745D01*
X59255Y-38732D01*
X59203Y-38732D01*
X59177Y-38745D01*
X59019Y-38916D02*
X59045Y-38903D01*
X59058Y-38890D01*
X59072Y-38863D01*
X59072Y-38785D01*
X59058Y-38758D01*
X59045Y-38745D01*
X59019Y-38732D01*
X58980Y-38732D01*
X58953Y-38745D01*
X58940Y-38758D01*
X58927Y-38785D01*
X58927Y-38863D01*
X58940Y-38890D01*
X58953Y-38903D01*
X58980Y-38916D01*
X59019Y-38916D01*
X58809Y-38916D02*
X58809Y-38732D01*
X58809Y-38758D02*
X58796Y-38745D01*
X58770Y-38732D01*
X58730Y-38732D01*
X58704Y-38745D01*
X58691Y-38771D01*
X58691Y-38916D01*
X58691Y-38771D02*
X58678Y-38745D01*
X58652Y-38732D01*
X58612Y-38732D01*
X58586Y-38745D01*
X58573Y-38771D01*
X58573Y-38916D01*
X58245Y-38627D02*
X58481Y-38981D01*
X58153Y-38732D02*
X58153Y-38916D01*
X58153Y-38758D02*
X58140Y-38745D01*
X58114Y-38732D01*
X58074Y-38732D01*
X58048Y-38745D01*
X58035Y-38771D01*
X58035Y-38916D01*
X57864Y-38916D02*
X57890Y-38903D01*
X57904Y-38890D01*
X57917Y-38863D01*
X57917Y-38785D01*
X57904Y-38758D01*
X57890Y-38745D01*
X57864Y-38732D01*
X57825Y-38732D01*
X57799Y-38745D01*
X57785Y-38758D01*
X57772Y-38785D01*
X57772Y-38863D01*
X57785Y-38890D01*
X57799Y-38903D01*
X57825Y-38916D01*
X57864Y-38916D01*
X57536Y-38916D02*
X57536Y-38771D01*
X57549Y-38745D01*
X57575Y-38732D01*
X57628Y-38732D01*
X57654Y-38745D01*
X57536Y-38903D02*
X57562Y-38916D01*
X57628Y-38916D01*
X57654Y-38903D01*
X57667Y-38876D01*
X57667Y-38850D01*
X57654Y-38824D01*
X57628Y-38811D01*
X57562Y-38811D01*
X57536Y-38798D01*
X57405Y-38916D02*
X57405Y-38640D01*
X57287Y-38916D02*
X57287Y-38771D01*
X57300Y-38745D01*
X57326Y-38732D01*
X57366Y-38732D01*
X57392Y-38745D01*
X57405Y-38758D01*
X57156Y-38732D02*
X57156Y-39008D01*
X57156Y-38745D02*
X57129Y-38732D01*
X57077Y-38732D01*
X57051Y-38745D01*
X57037Y-38758D01*
X57024Y-38785D01*
X57024Y-38863D01*
X57037Y-38890D01*
X57051Y-38903D01*
X57077Y-38916D01*
X57129Y-38916D01*
X57156Y-38903D01*
X56709Y-38627D02*
X56946Y-38981D01*
X56578Y-38916D02*
X56604Y-38903D01*
X56617Y-38876D01*
X56617Y-38640D01*
X56368Y-38903D02*
X56394Y-38916D01*
X56447Y-38916D01*
X56473Y-38903D01*
X56486Y-38876D01*
X56486Y-38771D01*
X56473Y-38745D01*
X56447Y-38732D01*
X56394Y-38732D01*
X56368Y-38745D01*
X56355Y-38771D01*
X56355Y-38798D01*
X56486Y-38824D01*
X56119Y-38916D02*
X56119Y-38640D01*
X56119Y-38903D02*
X56145Y-38916D01*
X56198Y-38916D01*
X56224Y-38903D01*
X56237Y-38890D01*
X56250Y-38863D01*
X56250Y-38785D01*
X56237Y-38758D01*
X56224Y-38745D01*
X56198Y-38732D01*
X56145Y-38732D01*
X56119Y-38745D01*
X56001Y-38903D02*
X55974Y-38916D01*
X55922Y-38916D01*
X55896Y-38903D01*
X55883Y-38876D01*
X55883Y-38863D01*
X55896Y-38837D01*
X55922Y-38824D01*
X55961Y-38824D01*
X55988Y-38811D01*
X56001Y-38785D01*
X56001Y-38771D01*
X55988Y-38745D01*
X55961Y-38732D01*
X55922Y-38732D01*
X55896Y-38745D01*
X55764Y-38916D02*
X55764Y-38640D01*
X55646Y-38916D02*
X55646Y-38771D01*
X55659Y-38745D01*
X55686Y-38732D01*
X55725Y-38732D01*
X55751Y-38745D01*
X55764Y-38758D01*
X55515Y-38916D02*
X55515Y-38732D01*
X55515Y-38640D02*
X55528Y-38653D01*
X55515Y-38666D01*
X55502Y-38653D01*
X55515Y-38640D01*
X55515Y-38666D01*
X55384Y-38916D02*
X55384Y-38732D01*
X55384Y-38785D02*
X55371Y-38758D01*
X55358Y-38745D01*
X55331Y-38732D01*
X55305Y-38732D01*
X55253Y-38732D02*
X55148Y-38732D01*
X55213Y-38640D02*
X55213Y-38876D01*
X55200Y-38903D01*
X55174Y-38916D01*
X55148Y-38916D01*
X58343Y-39187D02*
X58278Y-39370D01*
X58212Y-39187D01*
X58120Y-39121D02*
X58107Y-39108D01*
X58081Y-39095D01*
X58015Y-39095D01*
X57989Y-39108D01*
X57976Y-39121D01*
X57963Y-39147D01*
X57963Y-39174D01*
X57976Y-39213D01*
X58133Y-39370D01*
X57963Y-39370D01*
X57845Y-39344D02*
X57831Y-39357D01*
X57845Y-39370D01*
X57858Y-39357D01*
X57845Y-39344D01*
X57845Y-39370D01*
X57661Y-39095D02*
X57635Y-39095D01*
X57608Y-39108D01*
X57595Y-39121D01*
X57582Y-39147D01*
X57569Y-39200D01*
X57569Y-39266D01*
X57582Y-39318D01*
X57595Y-39344D01*
X57608Y-39357D01*
X57635Y-39370D01*
X57661Y-39370D01*
X57687Y-39357D01*
X57700Y-39344D01*
X57713Y-39318D01*
X57726Y-39266D01*
X57726Y-39200D01*
X57713Y-39147D01*
X57700Y-39121D01*
X57687Y-39108D01*
X57661Y-39095D01*
X58862Y-39825D02*
X58888Y-39812D01*
X58901Y-39799D01*
X58914Y-39773D01*
X58914Y-39694D01*
X58901Y-39668D01*
X58888Y-39655D01*
X58862Y-39641D01*
X58822Y-39641D01*
X58796Y-39655D01*
X58783Y-39668D01*
X58770Y-39694D01*
X58770Y-39773D01*
X58783Y-39799D01*
X58796Y-39812D01*
X58822Y-39825D01*
X58862Y-39825D01*
X58533Y-39812D02*
X58560Y-39825D01*
X58612Y-39825D01*
X58638Y-39812D01*
X58652Y-39799D01*
X58665Y-39773D01*
X58665Y-39694D01*
X58652Y-39668D01*
X58638Y-39655D01*
X58612Y-39641D01*
X58560Y-39641D01*
X58533Y-39655D01*
X58455Y-39641D02*
X58350Y-39641D01*
X58415Y-39550D02*
X58415Y-39786D01*
X58402Y-39812D01*
X58376Y-39825D01*
X58350Y-39825D01*
X58258Y-39720D02*
X58048Y-39720D01*
X57930Y-39576D02*
X57917Y-39563D01*
X57890Y-39550D01*
X57825Y-39550D01*
X57799Y-39563D01*
X57785Y-39576D01*
X57772Y-39602D01*
X57772Y-39628D01*
X57785Y-39668D01*
X57943Y-39825D01*
X57772Y-39825D01*
X57602Y-39550D02*
X57575Y-39550D01*
X57549Y-39563D01*
X57536Y-39576D01*
X57523Y-39602D01*
X57510Y-39655D01*
X57510Y-39720D01*
X57523Y-39773D01*
X57536Y-39799D01*
X57549Y-39812D01*
X57575Y-39825D01*
X57602Y-39825D01*
X57628Y-39812D01*
X57641Y-39799D01*
X57654Y-39773D01*
X57667Y-39720D01*
X57667Y-39655D01*
X57654Y-39602D01*
X57641Y-39576D01*
X57628Y-39563D01*
X57602Y-39550D01*
X57247Y-39825D02*
X57405Y-39825D01*
X57326Y-39825D02*
X57326Y-39550D01*
X57352Y-39589D01*
X57379Y-39615D01*
X57405Y-39628D01*
X57156Y-39550D02*
X56985Y-39550D01*
X57077Y-39655D01*
X57037Y-39655D01*
X57011Y-39668D01*
X56998Y-39681D01*
X56985Y-39707D01*
X56985Y-39773D01*
X56998Y-39799D01*
X57011Y-39812D01*
X57037Y-39825D01*
X57116Y-39825D01*
X57142Y-39812D01*
X57156Y-39799D01*
M02*
